# LIRR M7 saloon interior — generated by
# tools/convert_m7_interior.py from the openBVE donor.
# DO NOT EDIT: re-run the converter instead.
mtllib m7_interior.mtl

v -1.27980 2.15868 0.93750
v -1.36326 0.62043 0.93750
v -1.36326 0.62043 -0.93750
v -1.27980 2.15868 -0.93750
v -1.35399 0.41533 0.93750
v -1.35399 0.41533 -0.93750
v -1.29834 0.07691 0.93750
v -1.29834 0.07691 -0.93750
v -1.29834 -0.23452 0.93750
v -1.29834 -0.23452 -0.93750
v 1.27980 2.15868 -0.93750
v 1.36326 0.62043 -0.93750
v 1.36326 0.62043 0.93750
v 1.27980 2.15868 0.93750
v 1.35399 0.41533 -0.93750
v 1.35399 0.41533 0.93750
v 1.29834 0.07691 -0.93750
v 1.29834 0.07691 0.93750
v 1.29834 -0.23452 -0.93750
v 1.29834 -0.23452 0.93750
v -1.30762 1.85103 0.93750
v -1.30762 1.85103 -0.93750
v -1.20561 2.00485 -0.93750
v -1.20561 2.00485 0.93750
v -1.06650 2.10740 -0.93750
v -1.06650 2.10740 0.93750
v -0.88102 2.15868 -0.93750
v -0.88102 2.15868 0.93750
v 0.88102 2.15868 -0.93750
v 0.88102 2.15868 0.93750
v 1.06650 2.10740 -0.93750
v 1.06650 2.10740 0.93750
v 1.20561 2.00485 -0.93750
v 1.20561 2.00485 0.93750
v 1.30762 1.85103 -0.93750
v 1.30762 1.85103 0.93750
v 1.29834 0.00000 0.93750
v 1.29834 0.00000 -0.93750
v -1.29834 0.00000 -0.93750
v -1.29834 0.00000 0.93750
v -0.81610 1.71771 0.93750
v -1.27980 1.83052 0.93750
v -1.27980 1.83052 -0.93750
v -0.81610 1.71771 -0.93750
v -0.78828 1.68695 0.93750
v -0.78828 1.89205 0.93750
v -1.29834 1.89205 0.93750
v -1.29834 1.68695 0.93750
v 0.81610 1.71771 0.93750
v 1.27980 1.83052 0.93750
v 1.27980 1.83052 -0.93750
v 0.81610 1.71771 -0.93750
v 0.78828 1.68695 0.93750
v 0.78828 1.89205 0.93750
v 1.29834 1.89205 0.93750
v 1.29834 1.68695 0.93750
v -0.53789 2.16893 0.93750
v -0.53789 2.09618 0.93750
v -0.53789 2.09618 -0.93750
v -0.53789 2.16893 -0.93750
v -0.75118 2.09618 0.93750
v -0.75118 2.09618 -0.93750
v -0.75118 2.16893 0.93750
v -0.75118 2.16893 -0.93750
v 0.53789 2.16893 -0.93750
v 0.53789 2.09618 -0.93750
v 0.53789 2.09618 0.93750
v 0.53789 2.16893 0.93750
v 0.75118 2.09618 -0.93750
v 0.75118 2.09618 0.93750
v 0.75118 2.16893 -0.93750
v 0.75118 2.16893 0.93750
v -1.31634 1.65618 0.93750
v -1.24456 1.65618 0.93750
v -1.24456 1.65618 -0.93750
v -1.31634 1.65618 -0.93750
v -1.25068 1.54338 0.93750
v -1.25068 1.54338 -0.93750
v -1.32246 1.54338 0.93750
v -1.32246 1.54338 -0.93750
v 1.31634 1.65618 -0.93750
v 1.24456 1.65618 -0.93750
v 1.24456 1.65618 0.93750
v 1.31634 1.65618 0.93750
v 1.25068 1.54338 -0.93750
v 1.25068 1.54338 0.93750
v 1.32246 1.54338 -0.93750
v 1.32246 1.54338 0.93750
v -0.78485 1.72797 0.93750
v -0.78485 1.62396 0.93750
v -0.78485 1.62396 -0.93750
v -0.78485 1.72797 -0.93750
v -0.84735 1.62396 0.93750
v -0.84735 1.62396 -0.93750
v -0.84735 1.72797 0.93750
v -0.84735 1.72797 -0.93750
v 0.78485 1.72797 -0.93750
v 0.78485 1.62396 -0.93750
v 0.78485 1.62396 0.93750
v 0.78485 1.72797 0.93750
v 0.84735 1.62396 -0.93750
v 0.84735 1.62396 0.93750
v 0.84735 1.72797 -0.93750
v 0.84735 1.72797 0.93750
v -1.27980 2.15868 1.37500
v -1.36326 0.62043 1.37500
v -1.36326 0.62043 0.72246
v -1.27980 2.15868 0.72246
v -1.35399 0.41533 1.37500
v -1.35399 0.41533 0.72246
v -1.29834 0.07691 1.37500
v -1.29834 0.07691 0.72246
v -1.29834 -0.23452 1.37500
v -1.29834 -0.23452 0.72246
v 1.27980 2.15868 0.72246
v 1.36326 0.62043 0.72246
v 1.36326 0.62043 1.37500
v 1.27980 2.15868 1.37500
v 1.35399 0.41533 0.72246
v 1.35399 0.41533 1.37500
v 1.29834 0.07691 0.72246
v 1.29834 0.07691 1.37500
v 1.29834 -0.23452 0.72246
v 1.29834 -0.23452 1.37500
v -1.27980 2.15868 -0.72246
v -1.36326 0.62043 -0.72246
v -1.36326 0.62043 -1.37500
v -1.27980 2.15868 -1.37500
v -1.35399 0.41533 -0.72246
v -1.35399 0.41533 -1.37500
v -1.29834 0.07691 -0.72246
v -1.29834 0.07691 -1.37500
v -1.29834 -0.23452 -0.72246
v -1.29834 -0.23452 -1.37500
v 1.27980 2.15868 -1.37500
v 1.36326 0.62043 -1.37500
v 1.36326 0.62043 -0.72246
v 1.27980 2.15868 -0.72246
v 1.35399 0.41533 -1.37500
v 1.35399 0.41533 -0.72246
v 1.29834 0.07691 -1.37500
v 1.29834 0.07691 -0.72246
v 1.29834 -0.23452 -1.37500
v 1.29834 -0.23452 -0.72246
v -1.29092 1.95358 0.72246
v -1.29092 1.95358 -0.72246
v 1.29092 1.95358 -0.72246
v 1.29092 1.95358 0.72246
v -1.30762 1.85103 1.37500
v -1.30762 1.85103 0.72246
v -1.20561 2.00485 0.72246
v -1.20561 2.00485 1.37500
v -1.06650 2.10740 0.72246
v -1.06650 2.10740 1.37500
v -0.88102 2.15868 0.72246
v -0.88102 2.15868 1.37500
v 0.88102 2.15868 0.72246
v 0.88102 2.15868 1.37500
v 1.06650 2.10740 0.72246
v 1.06650 2.10740 1.37500
v 1.20561 2.00485 0.72246
v 1.20561 2.00485 1.37500
v 1.30762 1.85103 0.72246
v 1.30762 1.85103 1.37500
v -1.30762 1.85103 -0.72246
v -1.30762 1.85103 -1.37500
v -1.20561 2.00485 -1.37500
v -1.20561 2.00485 -0.72246
v -1.06650 2.10740 -1.37500
v -1.06650 2.10740 -0.72246
v -0.88102 2.15868 -1.37500
v -0.88102 2.15868 -0.72246
v 0.88102 2.15868 -1.37500
v 0.88102 2.15868 -0.72246
v 1.06650 2.10740 -1.37500
v 1.06650 2.10740 -0.72246
v 1.20561 2.00485 -1.37500
v 1.20561 2.00485 -0.72246
v 1.30762 1.85103 -1.37500
v 1.30762 1.85103 -0.72246
v -1.06650 2.15868 0.72246
v -1.06650 2.15868 -0.72246
v 1.06650 2.15868 -0.72246
v 1.06650 2.15868 0.72246
v -1.15924 1.95358 0.72246
v -1.15924 1.95358 -0.72246
v -1.28907 1.95358 0.72246
v -1.28907 1.95358 -0.72246
v 1.15924 1.95358 -0.72246
v 1.15924 1.95358 0.72246
v 1.28907 1.95358 -0.72246
v 1.28907 1.95358 0.72246
v 1.29834 0.00000 1.37500
v 1.29834 0.00000 -1.37500
v -1.29834 0.00000 -1.37500
v -1.29834 0.00000 1.37500
v -0.53789 2.16893 1.37500
v -0.53789 2.09618 1.37500
v -0.53789 2.09618 -1.37500
v -0.53789 2.16893 -1.37500
v -0.75118 2.09618 1.37500
v -0.75118 2.09618 -1.37500
v -0.75118 2.16893 1.37500
v -0.75118 2.16893 -1.37500
v 0.53789 2.16893 -1.37500
v 0.53789 2.09618 -1.37500
v 0.53789 2.09618 1.37500
v 0.53789 2.16893 1.37500
v 0.75118 2.09618 -1.37500
v 0.75118 2.09618 1.37500
v 0.75118 2.16893 -1.37500
v 0.75118 2.16893 1.37500
v -1.31634 1.65618 1.37500
v -1.24456 1.65618 1.37500
v -1.24456 1.65618 0.72246
v -1.31634 1.65618 0.72246
v -1.25068 1.54338 1.37500
v -1.25068 1.54338 0.72246
v -1.32246 1.54338 1.37500
v -1.32246 1.54338 0.72246
v 1.31634 1.65618 0.72246
v 1.24456 1.65618 0.72246
v 1.24456 1.65618 1.37500
v 1.31634 1.65618 1.37500
v 1.25068 1.54338 0.72246
v 1.25068 1.54338 1.37500
v 1.32246 1.54338 0.72246
v 1.32246 1.54338 1.37500
v -1.31634 1.65618 -0.72246
v -1.24456 1.65618 -0.72246
v -1.24456 1.65618 -1.37500
v -1.31634 1.65618 -1.37500
v -1.25068 1.54338 -0.72246
v -1.25068 1.54338 -1.37500
v -1.32246 1.54338 -0.72246
v -1.32246 1.54338 -1.37500
v 1.31634 1.65618 -1.37500
v 1.24456 1.65618 -1.37500
v 1.24456 1.65618 -0.72246
v 1.31634 1.65618 -0.72246
v 1.25068 1.54338 -1.37500
v 1.25068 1.54338 -0.72246
v 1.32246 1.54338 -1.37500
v 1.32246 1.54338 -0.72246
v 1.29834 0.07691 0.75371
v -1.29834 0.07691 0.75371
v -1.29834 0.00000 0.75371
v 1.29834 0.00000 0.75371
v 1.35399 0.41533 0.75371
v -1.35399 0.41533 0.75371
v 1.36326 0.62043 0.75371
v -1.36326 0.62043 0.75371
v 1.27980 2.15868 0.75371
v -1.27980 2.15868 0.75371
v 1.29834 0.00000 0.69121
v -1.29834 0.00000 0.69121
v -1.29834 0.07691 0.69121
v 1.29834 0.07691 0.69121
v -1.35399 0.41533 0.69121
v 1.35399 0.41533 0.69121
v -1.36326 0.62043 0.69121
v 1.36326 0.62043 0.69121
v -1.27980 2.15868 0.69121
v 1.27980 2.15868 0.69121
v -0.54098 0.99108 0.72246
v -1.25408 0.99108 0.72246
v -1.25408 1.91025 0.72246
v -0.54098 1.91025 0.72246
v 1.25408 0.99108 0.72246
v 0.54098 0.99108 0.72246
v 0.54098 1.91025 0.72246
v 1.25408 1.91025 0.72246
v 0.43278 0.00000 0.75371
v 0.43278 1.90230 0.75371
v 0.43278 1.90230 0.69121
v 0.43278 0.00000 0.69121
v -0.43278 0.00000 0.69121
v -0.43278 1.90230 0.69121
v -0.43278 1.90230 0.75371
v -0.43278 0.00000 0.75371
v 1.29834 0.00000 -0.75371
v -1.29834 0.00000 -0.75371
v -1.29834 0.07691 -0.75371
v 1.29834 0.07691 -0.75371
v -1.35399 0.41533 -0.75371
v 1.35399 0.41533 -0.75371
v -1.36326 0.62043 -0.75371
v 1.36326 0.62043 -0.75371
v -1.27980 2.15868 -0.75371
v 1.27980 2.15868 -0.75371
v 1.29834 0.07691 -0.69121
v -1.29834 0.07691 -0.69121
v -1.29834 0.00000 -0.69121
v 1.29834 0.00000 -0.69121
v 1.35399 0.41533 -0.69121
v -1.35399 0.41533 -0.69121
v 1.36326 0.62043 -0.69121
v -1.36326 0.62043 -0.69121
v 1.27980 2.15868 -0.69121
v -1.27980 2.15868 -0.69121
v -0.54098 0.99108 -0.72246
v -1.25408 0.99108 -0.72246
v -1.25408 1.91025 -0.72246
v -0.54098 1.91025 -0.72246
v 1.25408 0.99108 -0.72246
v 0.54098 0.99108 -0.72246
v 0.54098 1.91025 -0.72246
v 1.25408 1.91025 -0.72246
v 0.43278 0.00000 -0.69121
v 0.43278 1.90230 -0.69121
v 0.43278 1.90230 -0.75371
v 0.43278 0.00000 -0.75371
v -0.43278 0.00000 -0.75371
v -0.43278 1.90230 -0.75371
v -0.43278 1.90230 -0.69121
v -0.43278 0.00000 -0.69121
v 0.40249 2.15458 0.76121
v -0.40249 2.15458 0.76121
v -0.40249 1.95563 0.76121
v 0.40249 1.95563 0.76121
v 0.40249 1.95563 -0.76121
v -0.40249 1.95563 -0.76121
v -0.40249 2.15458 -0.76121
v 0.40249 2.15458 -0.76121
v -1.35088 0.64350 1.28701
v -1.35088 0.64350 0.81044
v -1.30331 1.52030 0.81044
v -1.30331 1.52030 1.28701
v 1.30331 1.52030 1.28701
v 1.30331 1.52030 0.81044
v 1.35088 0.64350 0.81044
v 1.35088 0.64350 1.28701
v -1.35088 0.64350 -0.81044
v -1.35088 0.64350 -1.28701
v -1.30331 1.52030 -1.28701
v -1.30331 1.52030 -0.81044
v 1.30331 1.52030 -0.81044
v 1.30331 1.52030 -1.28701
v 1.35088 0.64350 -1.28701
v 1.35088 0.64350 -0.81044
v 0.08346 0.56915 0.21404
v 0.08346 0.23074 0.21404
v 0.08346 0.23074 -0.25360
v 0.08346 0.56915 -0.25360
v 0.08346 1.13318 0.25360
v 1.28907 1.13318 0.25360
v 1.28907 0.72298 0.25360
v 0.08346 0.72298 0.25360
v 1.28907 0.31278 0.15216
v 0.08346 0.31278 0.15216
v 1.28907 0.31278 -0.25360
v 0.08346 0.31278 -0.25360
v 1.28907 0.23074 -0.25360
v 1.28907 1.13318 0.32880
v 0.08346 1.13318 0.32880
v 0.08346 0.72298 0.32880
v 1.28907 0.72298 0.32880
v 0.08346 0.23074 0.20707
v 1.28907 0.23074 0.20707
v 1.28907 0.56915 0.21404
v 1.28907 0.23074 0.21404
v 1.28907 0.56915 -0.25360
v 0.92893 1.13318 0.25360
v 0.92893 1.13318 0.32880
v 0.52707 1.13318 0.25360
v 0.52707 1.13318 0.32880
v 0.84547 1.13318 0.32880
v 0.84547 1.13318 0.25360
v 0.44360 1.13318 0.32880
v 0.44360 1.13318 0.25360
v 0.08346 0.56915 0.21556
v 0.08346 0.56915 0.29076
v -1.31689 0.56915 0.21404
v -1.31689 0.23074 0.21404
v -1.31689 0.23074 -0.25360
v -1.31689 0.56915 -0.25360
v -1.31689 1.13318 0.25360
v -0.43587 1.13318 0.25360
v -0.43587 0.72298 0.25360
v -1.31689 0.72298 0.25360
v -0.43587 0.31278 0.15216
v -1.31689 0.31278 0.15216
v -0.43587 0.31278 -0.25360
v -1.31689 0.31278 -0.25360
v -0.43587 0.23074 -0.25360
v -0.43587 1.13318 0.32880
v -1.31689 1.13318 0.32880
v -1.31689 0.72298 0.32880
v -0.43587 0.72298 0.32880
v -1.31689 0.23074 0.20707
v -0.43587 0.23074 0.20707
v -0.43587 0.56915 0.21404
v -0.43587 0.23074 0.21404
v -0.43587 0.56915 -0.25360
v -0.83465 1.13318 0.25360
v -0.83465 1.13318 0.32880
v -0.91811 1.13318 0.32880
v -0.91811 1.13318 0.25360
v -0.43587 0.56915 0.29076
v -0.43587 0.56915 0.21556
v 1.28907 0.56915 -0.21404
v 1.28907 0.23074 -0.21404
v 1.28907 0.23074 0.25360
v 1.28907 0.56915 0.25360
v 1.28907 1.13318 -0.25360
v 0.08346 1.13318 -0.25360
v 0.08346 0.72298 -0.25360
v 1.28907 0.72298 -0.25360
v 0.08346 0.31278 -0.15216
v 1.28907 0.31278 -0.15216
v 0.08346 0.31278 0.25360
v 1.28907 0.31278 0.25360
v 0.08346 0.23074 0.25360
v 0.08346 1.13318 -0.32880
v 1.28907 1.13318 -0.32880
v 1.28907 0.72298 -0.32880
v 0.08346 0.72298 -0.32880
v 1.28907 0.23074 -0.20707
v 0.08346 0.23074 -0.20707
v 0.08346 0.56915 -0.21404
v 0.08346 0.23074 -0.21404
v 0.08346 0.56915 0.25360
v 0.92893 1.13318 -0.32880
v 0.92893 1.13318 -0.25360
v 0.84547 1.13318 -0.25360
v 0.84547 1.13318 -0.32880
v 0.52707 1.13318 -0.32880
v 0.52707 1.13318 -0.25360
v 0.44360 1.13318 -0.25360
v 0.44360 1.13318 -0.32880
v 0.08346 0.56915 -0.29076
v 0.08346 0.56915 -0.21556
v -0.43587 0.56915 -0.21404
v -0.43587 0.23074 -0.21404
v -0.43587 0.23074 0.25360
v -0.43587 0.56915 0.25360
v -0.43587 1.13318 -0.25360
v -1.31689 1.13318 -0.25360
v -1.31689 0.72298 -0.25360
v -0.43587 0.72298 -0.25360
v -1.31689 0.31278 -0.15216
v -0.43587 0.31278 -0.15216
v -1.31689 0.31278 0.25360
v -0.43587 0.31278 0.25360
v -1.31689 0.23074 0.25360
v -1.31689 1.13318 -0.32880
v -0.43587 1.13318 -0.32880
v -0.43587 0.72298 -0.32880
v -1.31689 0.72298 -0.32880
v -0.43587 0.23074 -0.20707
v -1.31689 0.23074 -0.20707
v -1.31689 0.56915 -0.21404
v -1.31689 0.23074 -0.21404
v -1.31689 0.56915 0.25360
v -0.83465 1.13318 -0.32880
v -0.83465 1.13318 -0.25360
v -0.91811 1.13318 -0.25360
v -0.91811 1.13318 -0.32880
v -0.43587 0.56915 -0.21556
v -0.43587 0.56915 -0.29076
v -1.27980 2.15868 0.93008
v -1.36326 0.62043 0.93008
v -1.36326 0.62043 -2.31250
v -1.27980 2.15868 -2.31250
v -1.35399 0.41533 0.93008
v -1.35399 0.41533 -2.31250
v -1.29834 0.07691 0.93008
v -1.29834 0.07691 -2.31250
v -1.29834 -0.23452 0.93008
v -1.29834 -0.23452 -2.31250
v 1.27980 2.15868 -2.31250
v 1.36326 0.62043 -2.31250
v 1.36326 0.62043 0.93008
v 1.27980 2.15868 0.93008
v 1.35399 0.41533 -2.31250
v 1.35399 0.41533 0.93008
v 1.29834 0.07691 -2.31250
v 1.29834 0.07691 0.93008
v 1.29834 -0.23452 -2.31250
v 1.29834 -0.23452 0.93008
v -1.30762 1.85103 0.93008
v -1.30762 1.85103 -2.31250
v -1.20561 2.00485 -2.31250
v -1.20561 2.00485 0.93008
v -1.06650 2.10740 -2.31250
v -1.06650 2.10740 0.93008
v -0.88102 2.15868 -2.31250
v -0.88102 2.15868 0.93008
v 0.88102 2.15868 -2.31250
v 0.88102 2.15868 0.93008
v 1.06650 2.10740 -2.31250
v 1.06650 2.10740 0.93008
v 1.20561 2.00485 -2.31250
v 1.20561 2.00485 0.93008
v 1.30762 1.85103 -2.31250
v 1.30762 1.85103 0.93008
v 1.29834 0.00000 0.93008
v 1.29834 0.00000 -2.31250
v -1.29834 0.00000 -2.31250
v -1.29834 0.00000 0.93008
v -0.53789 2.16893 0.93008
v -0.53789 2.09618 0.93008
v -0.53789 2.09618 -2.31250
v -0.53789 2.16893 -2.31250
v -0.75118 2.09618 0.93008
v -0.75118 2.09618 -2.31250
v -0.75118 2.16893 0.93008
v -0.75118 2.16893 -2.31250
v 0.53789 2.16893 -2.31250
v 0.53789 2.09618 -2.31250
v 0.53789 2.09618 0.93008
v 0.53789 2.16893 0.93008
v 0.75118 2.09618 -2.31250
v 0.75118 2.09618 0.93008
v 0.75118 2.16893 -2.31250
v 0.75118 2.16893 0.93008
v -1.31634 1.65618 0.93008
v -1.24456 1.65618 0.93008
v -1.24456 1.65618 -2.31250
v -1.31634 1.65618 -2.31250
v -1.25068 1.54338 0.93008
v -1.25068 1.54338 -2.31250
v -1.32246 1.54338 0.93008
v -1.32246 1.54338 -2.31250
v 1.31634 1.65618 -2.31250
v 1.24456 1.65618 -2.31250
v 1.24456 1.65618 0.93008
v 1.31634 1.65618 0.93008
v 1.25068 1.54338 -2.31250
v 1.25068 1.54338 0.93008
v 1.32246 1.54338 -2.31250
v 1.32246 1.54338 0.93008
v 0.46369 0.00000 -0.05036
v 0.46369 2.15868 -0.05036
v 1.27980 2.15868 -0.05036
v 1.36326 0.62043 -0.05036
v 1.35399 0.41533 -0.05036
v 1.29834 0.00000 -0.05036
v -1.29834 0.00000 -0.05036
v -1.35399 0.41533 -0.05036
v -1.36326 0.62043 -0.05036
v -1.27980 2.15868 -0.05036
v -0.46369 2.15868 -0.05036
v -0.46369 0.00000 -0.05036
v 0.46369 0.00000 0.93008
v 0.46369 2.15868 0.93008
v 0.34313 0.00000 0.93008
v 0.34313 2.15868 0.93008
v -0.46369 2.15868 0.93008
v -0.46369 0.00000 0.93008
v -0.34313 2.15868 0.93008
v -0.34313 0.00000 0.93008
v -1.27980 2.15868 0.52383
v -1.36326 0.62043 0.52383
v -1.36326 0.62043 -1.90625
v -1.27980 2.15868 -1.90625
v -1.35399 0.41533 0.52383
v -1.35399 0.41533 -1.90625
v -1.29834 0.07691 0.52383
v -1.29834 0.07691 -1.90625
v -1.29834 -0.23452 0.52383
v -1.29834 -0.23452 -1.90625
v 1.27980 2.15868 -1.90625
v 1.36326 0.62043 -1.90625
v 1.36326 0.62043 0.52383
v 1.27980 2.15868 0.52383
v 1.35399 0.41533 -1.90625
v 1.35399 0.41533 0.52383
v 1.29834 0.07691 -1.90625
v 1.29834 0.07691 0.52383
v 1.29834 -0.23452 -1.90625
v 1.29834 -0.23452 0.52383
v -1.30762 1.85103 0.52383
v -1.30762 1.85103 -1.90625
v -1.20561 2.00485 -1.90625
v -1.20561 2.00485 0.52383
v -1.06650 2.10740 -1.90625
v -1.06650 2.10740 0.52383
v -0.88102 2.15868 -1.90625
v -0.88102 2.15868 0.52383
v 0.88102 2.15868 -1.90625
v 0.88102 2.15868 0.52383
v 1.06650 2.10740 -1.90625
v 1.06650 2.10740 0.52383
v 1.20561 2.00485 -1.90625
v 1.20561 2.00485 0.52383
v 1.30762 1.85103 -1.90625
v 1.30762 1.85103 0.52383
v 1.29834 0.00000 0.52383
v 1.29834 0.00000 -1.90625
v -1.29834 0.00000 -1.90625
v -1.29834 0.00000 0.52383
v -0.53789 2.16893 0.52383
v -0.53789 2.09618 0.52383
v -0.53789 2.09618 -1.90625
v -0.53789 2.16893 -1.90625
v -0.75118 2.09618 0.52383
v -0.75118 2.09618 -1.90625
v -0.75118 2.16893 0.52383
v -0.75118 2.16893 -1.90625
v 0.53789 2.16893 -1.90625
v 0.53789 2.09618 -1.90625
v 0.53789 2.09618 0.52383
v 0.53789 2.16893 0.52383
v 0.75118 2.09618 -1.90625
v 0.75118 2.09618 0.52383
v 0.75118 2.16893 -1.90625
v 0.75118 2.16893 0.52383
v -1.31634 1.65618 0.52383
v -1.24456 1.65618 0.52383
v -1.24456 1.65618 -1.90625
v -1.31634 1.65618 -1.90625
v -1.25068 1.54338 0.52383
v -1.25068 1.54338 -1.90625
v -1.32246 1.54338 0.52383
v -1.32246 1.54338 -1.90625
v 1.31634 1.65618 -1.90625
v 1.24456 1.65618 -1.90625
v 1.24456 1.65618 0.52383
v 1.31634 1.65618 0.52383
v 1.25068 1.54338 -1.90625
v 1.25068 1.54338 0.52383
v 1.32246 1.54338 -1.90625
v 1.32246 1.54338 0.52383
v 0.46369 0.00000 -0.45661
v 0.46369 2.15868 -0.45661
v 1.27980 2.15868 -0.45661
v 1.36326 0.62043 -0.45661
v 1.35399 0.41533 -0.45661
v 1.29834 0.00000 -0.45661
v -1.29834 0.00000 -0.45661
v -1.35399 0.41533 -0.45661
v -1.36326 0.62043 -0.45661
v -1.27980 2.15868 -0.45661
v -0.46369 2.15868 -0.45661
v -0.46369 0.00000 -0.45661
v 0.46369 0.00000 0.52383
v 0.46369 2.15868 0.52383
v 0.34313 0.00000 0.52383
v 0.34313 2.15868 0.52383
v -0.46369 2.15868 0.52383
v -0.46369 0.00000 0.52383
v -0.34313 2.15868 0.52383
v -0.34313 0.00000 0.52383
v -1.27980 2.15868 1.98794
v -1.36326 0.62043 1.98794
v -1.35399 0.41533 1.98794
v -1.29834 0.07691 1.98794
v -1.29834 -0.23452 1.98794
v 1.36326 0.62043 1.98794
v 1.27980 2.15868 1.98794
v 1.35399 0.41533 1.98794
v 1.29834 0.07691 1.98794
v 1.29834 -0.23452 1.98794
v -1.29834 0.00000 1.98794
v 1.29834 0.00000 1.98794
v -0.34313 0.00000 2.13780
v 0.34313 0.00000 2.13780
v 0.34313 2.15868 2.13780
v -0.34313 2.15868 2.13780
v 0.34313 -0.19477 2.13780
v 1.29834 -0.19477 1.98794
v -0.34313 -0.19477 2.13780
v -1.29834 -0.19477 1.98794
v 1.18706 2.15868 1.85571
v 1.18706 0.00000 1.85571
v 1.18706 0.00000 2.01439
v 1.18706 2.15868 2.01439
v 1.27980 2.15868 1.72348
v 1.36326 0.62043 1.72348
v 1.35399 0.41533 1.72348
v 1.29834 0.00000 1.72348
v 0.34313 2.15868 1.81163
v 0.34313 0.00000 1.81163
v 0.58425 2.15868 1.81163
v 0.58425 0.00000 1.81163
v 0.58425 2.15868 2.09373
v 0.58425 0.00000 2.09373
v 1.18706 0.82553 1.88215
v 0.58425 0.82553 1.88215
v 0.58425 0.90757 2.09373
v 1.18706 0.90757 2.01439
v 1.18706 0.00000 1.88215
v 0.58425 0.00000 1.88215
v 1.18706 2.05613 1.88215
v 0.58425 2.05613 1.88215
v 0.58425 2.15868 1.88215
v 1.18706 2.15868 1.88215
v 1.18706 1.95358 2.01439
v 0.58425 1.95358 2.09373
v 1.29834 0.00000 0.93361
v 1.35399 0.41533 0.93361
v 1.36326 0.62043 0.93361
v 1.27980 2.15868 0.93361
v 0.34313 2.15868 0.93361
v 0.34313 0.00000 0.93361
v -0.41732 2.15868 1.63532
v -0.41732 0.00000 1.63532
v -0.41732 0.00000 2.12458
v -0.41732 2.15868 2.12458
v -0.34313 2.15868 1.63532
v -0.34313 0.00000 1.63532
v -1.27980 2.15868 0.93361
v -1.36326 0.62043 0.93361
v -1.35399 0.41533 0.93361
v -1.29834 0.00000 0.93361
v -0.34313 0.00000 0.93361
v -0.34313 2.15868 0.93361
v -0.53789 0.72298 1.82926
v -0.53789 1.13318 1.82926
v -0.41732 1.13318 1.69703
v -0.41732 0.72298 1.69703
v -0.53789 0.72298 2.10254
v -0.53789 1.13318 2.10254
v -0.53789 0.00000 1.82926
v -0.41732 0.00000 1.69703
v -0.53789 0.00000 2.10254
v -0.64917 0.72298 1.64414
v -0.64917 0.77425 1.64414
v -0.41732 0.77425 1.64414
v -0.41732 0.72298 1.64414
v -0.64917 0.79989 1.82926
v -0.41732 0.79989 1.82926
v -0.53789 1.13318 1.85571
v -1.25197 1.13318 1.85571
v -1.25197 0.84604 2.01439
v -0.53789 0.84604 2.10695
v -0.53789 1.12292 1.83808
v -1.25197 1.12292 1.83808
v -0.53789 1.09216 1.86452
v -1.25197 1.09216 1.86452
v -0.53789 0.79989 1.82926
v -1.25197 0.79989 1.82926
v -1.06650 0.77425 1.64414
v -1.06650 0.72298 1.64414
v -1.35399 0.72298 1.64414
v -1.35399 0.77425 1.64414
v -1.35399 0.79989 1.82926
v -1.06650 0.79989 1.82926
v -0.64917 0.79989 1.64414
v -1.06650 0.79989 1.64414
v -1.08504 0.80297 1.82926
v -0.63062 0.80297 1.82926
v -0.64917 0.80502 1.63532
v -1.06650 0.80502 1.63532
v -1.06650 0.80502 1.82926
v -0.64917 0.80502 1.82926
v -0.64917 0.72298 1.63532
v -1.06650 0.72298 1.63532
v -1.15924 0.00000 1.87334
v -1.15924 0.72298 1.87334
v -0.53789 0.72298 1.87334
v -0.53789 0.00000 1.87334
v -1.15924 0.00000 1.65295
v -1.15924 0.72298 1.65295
v -1.29834 0.00000 1.65295
v -1.35399 0.72298 1.65295
v -1.31689 1.13318 1.65295
v -1.33544 0.77425 1.65295
v -1.35399 0.77425 1.65295
v -1.33544 1.13318 1.65295
v -1.31689 1.13318 1.72348
v -1.33544 0.77425 1.72348
v -1.25197 1.13318 1.81163
v -1.25197 0.77425 1.81163
v -1.25197 1.13318 2.01439
v -1.25197 0.77425 2.01439
v 0.37096 0.00000 0.95785
v 0.37096 2.15868 0.95785
v -0.37096 2.15868 0.94022
v -0.37096 0.00000 0.94022
v 0.37096 2.15868 0.95520
v 0.37096 0.00000 0.95520
v -0.37096 0.00000 0.93757
v -0.37096 2.15868 0.93757
v -0.58425 2.05613 1.82926
v -1.20561 2.05613 1.81163
v -1.26125 2.15868 1.65295
v -0.41732 2.15868 1.64414
v -0.49152 2.05613 2.10254
v -1.25197 2.05613 2.01439
v -0.46369 1.23573 1.64414
v -0.46369 2.05613 1.64414
v -0.41732 1.13318 1.64414
v -0.58425 1.23573 1.82926
v -0.53789 1.23573 2.10254
v -0.53789 2.05613 2.10254
v -0.53789 2.15868 1.82926
v -0.53789 2.15868 2.10254
v 1.37254 2.15868 0.93008
v 1.37254 2.15868 1.98794
v -1.37254 2.15868 1.98794
v -1.37254 2.15868 0.93008
v -0.46369 2.15355 1.19455
v -1.18706 2.15355 1.19455
v -1.18706 2.15355 1.01824
v -0.46369 2.15355 1.01824
v 0.46369 2.15355 1.19455
v -0.25967 2.15355 1.19455
v -0.25967 2.15355 1.01824
v 0.46369 2.15355 1.01824
v -1.24270 2.05613 1.65295
v -1.27052 1.23573 1.65295
v -1.20561 1.23573 1.81163
v -1.25197 1.23573 2.01439
v -1.25197 2.15868 1.81163
v -1.25197 2.15868 2.01439
v -1.27980 2.15868 1.65295
v 0.43587 0.56915 1.37967
v 0.43587 0.23074 1.37967
v 0.43587 0.23074 0.97328
v 0.43587 0.56915 0.97328
v 0.43587 0.72298 0.93890
v 1.31689 0.72298 0.93890
v 1.31689 1.13318 0.93890
v 0.43587 1.13318 0.93890
v 0.43587 0.31278 1.02705
v 1.31689 0.31278 1.02705
v 0.43587 0.31278 1.37967
v 1.31689 0.31278 1.37967
v 1.31689 0.23074 1.37967
v 1.31689 0.56915 1.37967
v 1.31689 0.23074 0.97328
v 1.31689 0.56915 0.97328
v -1.14069 0.56915 1.10639
v -0.67699 0.56915 1.10639
v -0.67699 1.20496 1.01824
v -1.14069 1.20496 1.01824
v -1.14069 0.56915 1.50309
v -0.67699 0.56915 1.50309
v -0.95521 -0.03180 1.28270
v -0.90884 -0.03180 1.23862
v -0.90884 0.56403 1.23862
v -0.95521 0.56403 1.28270
v -0.86247 -0.03180 1.28270
v -0.86247 0.56403 1.28270
v -0.90884 -0.03180 1.32678
v -0.90884 0.56403 1.32678
v -1.03999 -0.07552 1.15803
v -0.77769 -0.07552 1.15803
v -0.81048 0.10768 1.18920
v -1.00721 0.10768 1.18920
v -0.77769 -0.07552 1.40737
v -0.81048 0.10768 1.37620
v -1.03999 -0.07552 1.40737
v -1.00721 0.10768 1.37620
v -1.27980 2.15868 1.58169
v -1.36326 0.62043 1.58169
v -1.35399 0.41533 1.58169
v -1.29834 0.07691 1.58169
v -1.29834 -0.23452 1.58169
v 1.36326 0.62043 1.58169
v 1.27980 2.15868 1.58169
v 1.35399 0.41533 1.58169
v 1.29834 0.07691 1.58169
v 1.29834 -0.23452 1.58169
v -1.29834 0.00000 1.58169
v 1.29834 0.00000 1.58169
v -0.34313 0.00000 1.73155
v 0.34313 0.00000 1.73155
v 0.34313 2.15868 1.73155
v -0.34313 2.15868 1.73155
v 0.34313 -0.19477 1.73155
v 1.29834 -0.19477 1.58169
v -0.34313 -0.19477 1.73155
v -1.29834 -0.19477 1.58169
v 1.18706 2.15868 1.44946
v 1.18706 0.00000 1.44946
v 1.18706 0.00000 1.60814
v 1.18706 2.15868 1.60814
v 1.27980 2.15868 1.31723
v 1.36326 0.62043 1.31723
v 1.35399 0.41533 1.31723
v 1.29834 0.00000 1.31723
v 0.34313 2.15868 1.40538
v 0.34313 0.00000 1.40538
v 0.58425 2.15868 1.40538
v 0.58425 0.00000 1.40538
v 0.58425 2.15868 1.68748
v 0.58425 0.00000 1.68748
v 1.18706 0.82553 1.47590
v 0.58425 0.82553 1.47590
v 0.58425 0.90757 1.68748
v 1.18706 0.90757 1.60814
v 1.18706 0.00000 1.47590
v 0.58425 0.00000 1.47590
v 1.18706 2.05613 1.47590
v 0.58425 2.05613 1.47590
v 0.58425 2.15868 1.47590
v 1.18706 2.15868 1.47590
v 1.18706 1.95358 1.60814
v 0.58425 1.95358 1.68748
v 1.29834 0.00000 0.52736
v 1.35399 0.41533 0.52736
v 1.36326 0.62043 0.52736
v 1.27980 2.15868 0.52736
v 0.34313 2.15868 0.52736
v 0.34313 0.00000 0.52736
v -0.41732 2.15868 1.22907
v -0.41732 0.00000 1.22907
v -0.41732 0.00000 1.71833
v -0.41732 2.15868 1.71833
v -0.34313 2.15868 1.22907
v -0.34313 0.00000 1.22907
v -1.27980 2.15868 0.52736
v -1.36326 0.62043 0.52736
v -1.35399 0.41533 0.52736
v -1.29834 0.00000 0.52736
v -0.34313 0.00000 0.52736
v -0.34313 2.15868 0.52736
v -0.53789 0.72298 1.42301
v -0.53789 1.13318 1.42301
v -0.41732 1.13318 1.29078
v -0.41732 0.72298 1.29078
v -0.53789 0.72298 1.69629
v -0.53789 1.13318 1.69629
v -0.53789 0.00000 1.42301
v -0.41732 0.00000 1.29078
v -0.53789 0.00000 1.69629
v -0.64917 0.72298 1.23789
v -0.64917 0.77425 1.23789
v -0.41732 0.77425 1.23789
v -0.41732 0.72298 1.23789
v -0.64917 0.79989 1.42301
v -0.41732 0.79989 1.42301
v -0.53789 1.13318 1.44946
v -1.25197 1.13318 1.44946
v -1.25197 0.84604 1.60814
v -0.53789 0.84604 1.70070
v -0.53789 1.12292 1.43183
v -1.25197 1.12292 1.43183
v -0.53789 1.09216 1.45827
v -1.25197 1.09216 1.45827
v -0.53789 0.79989 1.42301
v -1.25197 0.79989 1.42301
v -1.06650 0.77425 1.23789
v -1.06650 0.72298 1.23789
v -1.35399 0.72298 1.23789
v -1.35399 0.77425 1.23789
v -1.35399 0.79989 1.42301
v -1.06650 0.79989 1.42301
v -0.64917 0.79989 1.23789
v -1.06650 0.79989 1.23789
v -1.08504 0.80297 1.42301
v -0.63062 0.80297 1.42301
v -0.64917 0.80502 1.22907
v -1.06650 0.80502 1.22907
v -1.06650 0.80502 1.42301
v -0.64917 0.80502 1.42301
v -0.64917 0.72298 1.22907
v -1.06650 0.72298 1.22907
v -1.15924 0.00000 1.46709
v -1.15924 0.72298 1.46709
v -0.53789 0.72298 1.46709
v -0.53789 0.00000 1.46709
v -1.15924 0.00000 1.24670
v -1.15924 0.72298 1.24670
v -1.29834 0.00000 1.24670
v -1.35399 0.72298 1.24670
v -1.31689 1.13318 1.24670
v -1.33544 0.77425 1.24670
v -1.35399 0.77425 1.24670
v -1.33544 1.13318 1.24670
v -1.31689 1.13318 1.31723
v -1.33544 0.77425 1.31723
v -1.25197 1.13318 1.40538
v -1.25197 0.77425 1.40538
v -1.25197 1.13318 1.60814
v -1.25197 0.77425 1.60814
v 0.37096 0.00000 0.55160
v 0.37096 2.15868 0.55160
v -0.37096 2.15868 0.53397
v -0.37096 0.00000 0.53397
v 0.37096 2.15868 0.54895
v 0.37096 0.00000 0.54895
v -0.37096 0.00000 0.53132
v -0.37096 2.15868 0.53132
v -0.58425 2.05613 1.42301
v -1.20561 2.05613 1.40538
v -1.26125 2.15868 1.24670
v -0.41732 2.15868 1.23789
v -0.49152 2.05613 1.69629
v -1.25197 2.05613 1.60814
v -0.46369 1.23573 1.23789
v -0.46369 2.05613 1.23789
v -0.41732 1.13318 1.23789
v -0.58425 1.23573 1.42301
v -0.53789 1.23573 1.69629
v -0.53789 2.05613 1.69629
v -0.53789 2.15868 1.42301
v -0.53789 2.15868 1.69629
v 1.37254 2.15868 0.52383
v 1.37254 2.15868 1.58169
v -1.37254 2.15868 1.58169
v -1.37254 2.15868 0.52383
v -0.46369 2.15355 0.78830
v -1.18706 2.15355 0.78830
v -1.18706 2.15355 0.61199
v -0.46369 2.15355 0.61199
v 0.46369 2.15355 0.78830
v -0.25967 2.15355 0.78830
v -0.25967 2.15355 0.61199
v 0.46369 2.15355 0.61199
v -1.24270 2.05613 1.24670
v -1.27052 1.23573 1.24670
v -1.20561 1.23573 1.40538
v -1.25197 1.23573 1.60814
v -1.25197 2.15868 1.40538
v -1.25197 2.15868 1.60814
v -1.27980 2.15868 1.24670
v 0.43587 0.56915 0.97342
v 0.43587 0.23074 0.97342
v 0.43587 0.23074 0.56703
v 0.43587 0.56915 0.56703
v 0.43587 0.72298 0.53265
v 1.31689 0.72298 0.53265
v 1.31689 1.13318 0.53265
v 0.43587 1.13318 0.53265
v 0.43587 0.31278 0.62080
v 1.31689 0.31278 0.62080
v 0.43587 0.31278 0.97342
v 1.31689 0.31278 0.97342
v 1.31689 0.23074 0.97342
v 1.31689 0.56915 0.97342
v 1.31689 0.23074 0.56703
v 1.31689 0.56915 0.56703
v -1.14069 0.56915 0.70014
v -0.67699 0.56915 0.70014
v -0.67699 1.20496 0.61199
v -1.14069 1.20496 0.61199
v -1.14069 0.56915 1.09684
v -0.67699 0.56915 1.09684
v -0.95521 -0.03180 0.87645
v -0.90884 -0.03180 0.83237
v -0.90884 0.56403 0.83237
v -0.95521 0.56403 0.87645
v -0.86247 -0.03180 0.87645
v -0.86247 0.56403 0.87645
v -0.90884 -0.03180 0.92053
v -0.90884 0.56403 0.92053
v -1.03999 -0.07552 0.75178
v -0.77769 -0.07552 0.75178
v -0.81048 0.10768 0.78295
v -1.00721 0.10768 0.78295
v -0.77769 -0.07552 1.00112
v -0.81048 0.10768 0.96995
v -1.03999 -0.07552 1.00112
v -1.00721 0.10768 0.96995
v -1.27980 2.15868 1.88533
v -1.36326 0.62043 1.88533
v -1.35399 0.41533 1.88533
v -1.29834 0.07691 1.88533
v -1.29834 -0.23452 1.88533
v 1.36326 0.62043 1.88533
v 1.27980 2.15868 1.88533
v 1.35399 0.41533 1.88533
v 1.29834 0.07691 1.88533
v 1.29834 -0.23452 1.88533
v -1.30762 1.85103 1.69338
v -1.20561 2.00485 1.69338
v -1.06650 2.10740 1.69338
v -0.88102 2.15868 1.69338
v 0.88102 2.15868 1.69338
v 1.06650 2.10740 1.69338
v 1.20561 2.00485 1.69338
v 1.30762 1.85103 1.69338
v 1.29834 0.00000 1.88533
v -1.29834 0.00000 1.88533
v -0.53789 2.16893 1.69338
v -0.53789 2.09618 1.69338
v -0.75118 2.09618 1.69338
v -0.75118 2.16893 1.69338
v 0.53789 2.09618 1.69338
v 0.53789 2.16893 1.69338
v 0.75118 2.09618 1.69338
v 0.75118 2.16893 1.69338
v -1.31634 1.65618 1.88533
v -1.24456 1.65618 1.88533
v -1.25068 1.54338 1.88533
v -1.32246 1.54338 1.88533
v 1.24456 1.65618 1.88533
v 1.31634 1.65618 1.88533
v 1.25068 1.54338 1.88533
v 1.32246 1.54338 1.88533
v -0.34313 2.15868 2.04848
v -0.34313 0.00000 2.04848
v -0.46369 0.00000 1.69338
v -0.46369 2.15868 1.69338
v -1.29834 0.00000 1.69338
v -1.35399 0.41533 1.69338
v -1.36326 0.62043 1.69338
v -1.27980 2.15868 1.69338
v 0.34313 0.00000 2.04848
v 0.34313 2.15868 2.04848
v 0.46369 2.15868 1.69338
v 0.46369 0.00000 1.69338
v 1.27980 2.15868 1.69338
v 1.36326 0.62043 1.69338
v 1.35399 0.41533 1.69338
v 1.29834 0.00000 1.69338
v -0.47297 2.15868 1.68379
v 0.47297 2.15868 1.68379
v -1.27980 2.15868 1.47908
v -1.36326 0.62043 1.47908
v -1.35399 0.41533 1.47908
v -1.29834 0.07691 1.47908
v -1.29834 -0.23452 1.47908
v 1.36326 0.62043 1.47908
v 1.27980 2.15868 1.47908
v 1.35399 0.41533 1.47908
v 1.29834 0.07691 1.47908
v 1.29834 -0.23452 1.47908
v -1.30762 1.85103 1.28713
v -1.20561 2.00485 1.28713
v -1.06650 2.10740 1.28713
v -0.88102 2.15868 1.28713
v 0.88102 2.15868 1.28713
v 1.06650 2.10740 1.28713
v 1.20561 2.00485 1.28713
v 1.30762 1.85103 1.28713
v 1.29834 0.00000 1.47908
v -1.29834 0.00000 1.47908
v -0.53789 2.16893 1.28713
v -0.53789 2.09618 1.28713
v -0.75118 2.09618 1.28713
v -0.75118 2.16893 1.28713
v 0.53789 2.09618 1.28713
v 0.53789 2.16893 1.28713
v 0.75118 2.09618 1.28713
v 0.75118 2.16893 1.28713
v -1.31634 1.65618 1.47908
v -1.24456 1.65618 1.47908
v -1.25068 1.54338 1.47908
v -1.32246 1.54338 1.47908
v 1.24456 1.65618 1.47908
v 1.31634 1.65618 1.47908
v 1.25068 1.54338 1.47908
v 1.32246 1.54338 1.47908
v -0.34313 2.15868 1.64223
v -0.34313 0.00000 1.64223
v -0.46369 0.00000 1.28713
v -0.46369 2.15868 1.28713
v -1.29834 0.00000 1.28713
v -1.35399 0.41533 1.28713
v -1.36326 0.62043 1.28713
v -1.27980 2.15868 1.28713
v 0.34313 0.00000 1.64223
v 0.34313 2.15868 1.64223
v 0.46369 2.15868 1.28713
v 0.46369 0.00000 1.28713
v 1.27980 2.15868 1.28713
v 1.36326 0.62043 1.28713
v 1.35399 0.41533 1.28713
v 1.29834 0.00000 1.28713
v -0.47297 2.15868 1.27754
v 0.47297 2.15868 1.27754
vt 0.227546 0.007812
vt 0.227546 0.125938
vt 0.373989 0.125938
vt 0.373989 0.007812
vt 0.227546 0.142813
vt 0.373989 0.142813
vt 0.227546 0.163437
vt 0.373989 0.163437
vt 0.227546 0.195312
vt 0.373989 0.195312
vt 0.007812 0.742188
vt 0.007812 0.773438
vt 0.018945 0.773438
vt 0.018945 0.742188
vt 0.030078 0.773438
vt 0.030078 0.742188
vt 0.041211 0.773438
vt 0.041211 0.742188
vt 0.197070 0.773438
vt 0.197070 0.742188
vt 0.208203 0.773438
vt 0.208203 0.742188
vt 0.219336 0.773438
vt 0.219336 0.742188
vt 0.230469 0.773438
vt 0.230469 0.742188
vt 0.468750 0.441406
vt 0.468750 0.589844
vt 0.671875 0.589844
vt 0.671875 0.441406
vt 0.437500 0.664062
vt 0.437500 0.625000
vt 0.585938 0.625000
vt 0.585938 0.664062
vt 0.939453 0.640625
vt 0.939453 0.625000
vt 0.978516 0.625000
vt 0.978516 0.640625
vt 0.968750 0.472656
vt 0.968750 0.465781
vt 0.984375 0.465781
vt 0.984375 0.472656
vt 0.968750 0.448281
vt 0.984375 0.448281
vt 0.968750 0.441406
vt 0.984375 0.441406
vt 0.740234 0.625000
vt 0.740234 0.631875
vt 0.755859 0.631875
vt 0.755859 0.625000
vt 0.740234 0.649375
vt 0.755859 0.649375
vt 0.740234 0.656250
vt 0.755859 0.656250
vt 0.771484 0.656250
vt 0.771484 0.646875
vt 0.787109 0.646875
vt 0.787109 0.656250
vt 0.771484 0.634375
vt 0.787109 0.634375
vt 0.771484 0.625000
vt 0.787109 0.625000
vt 0.390928 0.007812
vt 0.390928 0.125938
vt 0.442371 0.125938
vt 0.442371 0.007812
vt 0.390928 0.142813
vt 0.442371 0.142813
vt 0.390928 0.163437
vt 0.442371 0.163437
vt 0.390928 0.195312
vt 0.442371 0.195312
vt 0.556280 0.007812
vt 0.556280 0.125938
vt 0.607723 0.125938
vt 0.607723 0.007812
vt 0.556280 0.142813
vt 0.607723 0.142813
vt 0.556280 0.163437
vt 0.607723 0.163437
vt 0.556280 0.195312
vt 0.607723 0.195312
vt 0.442371 0.023562
vt 0.556280 0.023562
vt 0.601562 0.650000
vt 0.724609 0.650000
vt 0.724609 0.625000
vt 0.601562 0.625000
vt 0.601562 0.656250
vt 0.724609 0.656250
vt 0.007812 0.007812
vt 0.007812 0.222656
vt 0.210938 0.222656
vt 0.210938 0.007812
vt 0.218359 0.600977
vt 0.012109 0.600977
vt 0.012109 0.609375
vt 0.218359 0.609375
vt 0.222227 0.592578
vt 0.008242 0.592578
vt 0.222656 0.562344
vt 0.007812 0.562344
vt 0.216211 0.441406
vt 0.014258 0.441406
vt 0.448828 0.609375
vt 0.242578 0.609375
vt 0.242578 0.600977
vt 0.448828 0.600977
vt 0.238711 0.592578
vt 0.452695 0.592578
vt 0.238281 0.562344
vt 0.453125 0.562344
vt 0.244727 0.441406
vt 0.446680 0.441406
vt 0.000000 1.000000
vt 1.000000 1.000000
vt 1.000000 0.000000
vt 0.000000 0.000000
vt 0.277344 0.742188
vt 0.277344 0.757812
vt 0.292969 0.757812
vt 0.292969 0.742188
vt 0.171875 0.625000
vt 0.421875 0.625000
vt 0.421875 0.681641
vt 0.171875 0.681641
vt 0.935547 0.308594
vt 0.974609 0.308594
vt 0.974609 0.238281
vt 0.935547 0.238281
vt 0.117188 0.695312
vt 0.156250 0.695312
vt 0.156250 0.625000
vt 0.117188 0.625000
vt 0.833984 0.625000
vt 0.833984 0.652344
vt 0.869141 0.652344
vt 0.869141 0.625000
vt 0.859375 0.441406
vt 0.953125 0.441406
vt 0.953125 0.475938
vt 0.859375 0.475938
vt 0.953125 0.514531
vt 0.859375 0.514531
vt 0.953125 0.537891
vt 0.859375 0.537891
vt 0.953125 0.542969
vt 0.859375 0.542969
vt 0.101562 0.625000
vt 0.007812 0.625000
vt 0.007812 0.659531
vt 0.101562 0.659531
vt 0.007812 0.698125
vt 0.101562 0.698125
vt 0.818359 0.625000
vt 0.818359 0.656250
vt 0.802734 0.656250
vt 0.802734 0.625000
vt 0.687500 0.441406
vt 0.757812 0.441406
vt 0.757812 0.475938
vt 0.687500 0.475938
vt 0.757812 0.514531
vt 0.687500 0.514531
vt 0.757812 0.537891
vt 0.687500 0.537891
vt 0.757812 0.542969
vt 0.687500 0.542969
vt 0.843750 0.441406
vt 0.773438 0.441406
vt 0.773438 0.475938
vt 0.843750 0.475938
vt 0.773438 0.514531
vt 0.843750 0.514531
vt 0.246094 0.742188
vt 0.246094 0.757812
vt 0.261719 0.757812
vt 0.261719 0.742188
vt 0.103736 0.238281
vt 0.103736 0.356406
vt 0.394543 0.356406
vt 0.394543 0.238281
vt 0.103736 0.373281
vt 0.394543 0.373281
vt 0.103736 0.393906
vt 0.394543 0.393906
vt 0.103736 0.425781
vt 0.394543 0.425781
vt 0.791797 0.406250
vt 0.791797 0.238281
vt 0.779297 0.238281
vt 0.779297 0.355859
vt 0.779297 0.389453
vt 0.779297 0.406250
vt 0.826172 0.406250
vt 0.826172 0.389453
vt 0.826172 0.355859
vt 0.826172 0.238281
vt 0.813672 0.238281
vt 0.813672 0.406250
vt 0.849453 0.406250
vt 0.849453 0.238281
vt 0.841797 0.238281
vt 0.841797 0.406250
vt 0.849766 0.406250
vt 0.849766 0.238281
vt 0.321675 0.356406
vt 0.321675 0.238281
vt 0.321675 0.373281
vt 0.321675 0.393906
vt 0.321675 0.425781
vt 0.008863 0.238281
vt 0.008863 0.356406
vt 0.008863 0.373281
vt 0.008863 0.393906
vt 0.008863 0.425781
vt 0.804688 0.015625
vt 0.804688 0.351562
vt 0.299102 0.097187
vt 0.458125 0.097187
vt 0.471953 0.332812
vt 0.299102 0.468750
vt 0.469648 0.364531
vt 0.458125 0.414375
vt 0.458125 0.468750
vt 0.193086 0.097187
vt 0.020234 0.332812
vt 0.034062 0.097187
vt 0.193086 0.468750
vt 0.022539 0.364531
vt 0.031758 0.414375
vt 0.031758 0.468750
vt 0.156250 0.500000
vt 0.218750 0.500000
vt 0.015625 0.500000
vt 0.125000 0.500000
vt 0.125000 0.560577
vt 0.015625 0.560577
vt 0.015625 0.502163
vt 0.125000 0.502163
vt 0.015625 0.508654
vt 0.125000 0.508654
vt 0.015625 0.570312
vt 0.125000 0.570312
vt 0.281250 0.500000
vt 0.625000 0.351562
vt 0.625000 0.015625
vt 0.507812 0.015625
vt 0.507812 0.351562
vt 0.773438 0.015625
vt 0.773438 0.351562
vt 0.656250 0.351562
vt 0.656250 0.015625
vt 0.343750 0.500000
vt 0.406250 0.500000
vt 0.867188 0.130469
vt 0.937500 0.130469
vt 0.937500 0.015625
vt 0.867188 0.015625
vt 0.867188 0.179688
vt 0.937500 0.179688
vt 0.281250 0.531250
vt 0.289062 0.531250
vt 0.289062 0.500000
vt 0.296875 0.531250
vt 0.296875 0.500000
vt 0.304688 0.531250
vt 0.304688 0.500000
vt 0.976562 0.007812
vt 0.976562 0.125938
vt 0.626922 0.125938
vt 0.626922 0.007812
vt 0.976562 0.142813
vt 0.626922 0.142813
vt 0.976562 0.163437
vt 0.626922 0.163437
vt 0.976562 0.195312
vt 0.626922 0.195312
vt 0.904297 0.238281
vt 0.904297 0.406250
vt 0.916797 0.406250
vt 0.916797 0.238281
vt 0.904297 0.372656
vt 0.904297 0.355859
vt 0.873047 0.406250
vt 0.873047 0.238281
vt 0.876172 0.238281
vt 0.876172 0.406250
vt 0.888672 0.238281
vt 0.888672 0.355859
vt 0.888672 0.389453
vt 0.888672 0.406250
vt 0.763672 0.238281
vt 0.763672 0.356406
vt 0.481705 0.356406
vt 0.481705 0.238281
vt 0.763672 0.373281
vt 0.481705 0.373281
vt 0.763672 0.393906
vt 0.481705 0.393906
vt 0.763672 0.425781
vt 0.481705 0.425781

g int_window
usemtl m7_int_atlas
f 1/1 2/2 3/3 4/4
f 2/2 5/5 6/6 3/3
f 5/5 7/7 8/8 6/6
f 7/7 9/9 10/10 8/8
f 11/4 12/3 13/2 14/1
f 12/3 15/6 16/5 13/2
f 15/6 17/8 18/7 16/5
f 17/8 19/10 20/9 18/7
f 21/11 22/12 23/13 24/14
f 24/14 23/13 25/15 26/16
f 26/16 25/15 27/17 28/18
f 28/18 27/17 29/19 30/20
f 30/20 29/19 31/21 32/22
f 32/22 31/21 33/23 34/24
f 34/24 33/23 35/25 36/26
f 37/27 38/28 39/29 40/30
f 41/31 42/32 43/33 44/34
f 44/34 43/33 42/32 41/31
f 45/35 46/36 47/37 48/38
f 48/38 47/37 46/36 45/35
f 49/31 50/32 51/33 52/34
f 52/34 51/33 50/32 49/31
f 53/35 54/36 55/37 56/38
f 56/38 55/37 54/36 53/35
f 57/39 58/40 59/41 60/42
f 58/40 61/43 62/44 59/41
f 61/43 63/45 64/46 62/44
f 65/42 66/41 67/40 68/39
f 66/41 69/44 70/43 67/40
f 69/44 71/46 72/45 70/43
f 73/47 74/48 75/49 76/50
f 74/48 77/51 78/52 75/49
f 77/51 79/53 80/54 78/52
f 81/50 82/49 83/48 84/47
f 82/49 85/52 86/51 83/48
f 85/52 87/54 88/53 86/51
f 89/55 90/56 91/57 92/58
f 90/56 93/59 94/60 91/57
f 93/59 95/61 96/62 94/60
f 97/58 98/57 99/56 100/55
f 98/57 101/60 102/59 99/56
f 101/60 103/62 104/61 102/59
g int_door
usemtl m7_int_atlas
f 105/63 106/64 107/65 108/66
f 106/64 109/67 110/68 107/65
f 109/67 111/69 112/70 110/68
f 111/69 113/71 114/72 112/70
f 115/66 116/65 117/64 118/63
f 116/65 119/68 120/67 117/64
f 119/68 121/70 122/69 120/67
f 121/70 123/72 124/71 122/69
f 125/73 126/74 127/75 128/76
f 126/74 129/77 130/78 127/75
f 129/77 131/79 132/80 130/78
f 131/79 133/81 134/82 132/80
f 135/76 136/75 137/74 138/73
f 136/75 139/78 140/77 137/74
f 139/78 141/80 142/79 140/77
f 141/80 143/82 144/81 142/79
f 108/66 145/83 146/84 125/73
f 138/73 147/84 148/83 115/66
f 149/11 150/12 151/13 152/14
f 152/14 151/13 153/15 154/16
f 154/16 153/15 155/17 156/18
f 156/18 155/17 157/19 158/20
f 158/20 157/19 159/21 160/22
f 160/22 159/21 161/23 162/24
f 162/24 161/23 163/25 164/26
f 165/11 166/12 167/13 168/14
f 168/14 167/13 169/15 170/16
f 170/16 169/15 171/17 172/18
f 172/18 171/17 173/19 174/20
f 174/20 173/19 175/21 176/22
f 176/22 175/21 177/23 178/24
f 178/24 177/23 179/25 180/26
f 181/16 182/15 183/21 184/22
f 185/85 186/86 182/87 181/88
f 187/89 188/90 186/86 185/85
f 184/87 183/88 189/85 190/86
f 190/86 189/85 191/89 192/90
f 193/91 194/92 195/93 196/94
f 197/39 198/40 199/41 200/42
f 198/40 201/43 202/44 199/41
f 201/43 203/45 204/46 202/44
f 205/42 206/41 207/40 208/39
f 206/41 209/44 210/43 207/40
f 209/44 211/46 212/45 210/43
f 213/47 214/48 215/49 216/50
f 214/48 217/51 218/52 215/49
f 217/51 219/53 220/54 218/52
f 221/50 222/49 223/48 224/47
f 222/49 225/52 226/51 223/48
f 225/52 227/54 228/53 226/51
f 229/47 230/48 231/49 232/50
f 230/48 233/51 234/52 231/49
f 233/51 235/53 236/54 234/52
f 237/50 238/49 239/48 240/47
f 238/49 241/52 242/51 239/48
f 241/52 243/54 244/53 242/51
f 245/95 246/96 247/97 248/98
f 249/99 250/100 246/96 245/95
f 251/101 252/102 250/100 249/99
f 253/103 254/104 252/102 251/101
f 255/105 256/106 257/107 258/108
f 258/108 257/107 259/109 260/110
f 260/110 259/109 261/111 262/112
f 262/112 261/111 263/113 264/114
usemtl m7_int_glass#interior_translucent
f 265/115 266/116 267/117 268/118
f 268/118 267/117 266/116 265/115
f 269/115 270/116 271/117 272/118
f 272/118 271/117 270/116 269/115
usemtl m7_int_atlas
f 273/119 274/120 275/121 276/122
f 277/122 278/121 279/120 280/119
f 274/119 279/120 278/121 275/122
f 281/98 282/97 283/96 284/95
f 284/95 283/96 285/100 286/99
f 286/99 285/100 287/102 288/101
f 288/101 287/102 289/104 290/103
f 291/108 292/107 293/106 294/105
f 295/110 296/109 292/107 291/108
f 297/112 298/111 296/109 295/110
f 299/114 300/113 298/111 297/112
usemtl m7_int_glass#interior_translucent
f 301/115 302/116 303/117 304/118
f 304/118 303/117 302/116 301/115
f 305/115 306/116 307/117 308/118
f 308/118 307/117 306/116 305/115
usemtl m7_int_atlas
f 309/119 310/120 311/121 312/122
f 313/122 314/121 315/120 316/119
f 310/119 315/120 314/121 311/122
f 317/123 318/124 319/125 320/126
f 321/125 322/126 323/123 324/124
f 325/127 326/128 327/129 328/130
f 329/129 330/130 331/127 332/128
f 333/131 334/132 335/133 336/134
f 337/133 338/134 339/131 340/132
g int_seat_fwd
usemtl m7_int_atlas
f 341/135 342/136 343/137 344/138
f 344/138 343/137 342/136 341/135
f 345/139 346/140 347/141 348/142
f 348/142 347/141 349/143 350/144
f 350/144 349/143 351/145 352/146
f 352/146 351/145 353/147 343/148
f 354/149 355/150 356/151 357/152
f 357/152 356/151 358/153 359/154
f 360/135 361/136 353/137 362/138
f 362/138 353/137 361/136 360/135
f 363/155 364/156 354/157 346/158
f 365/155 366/156 367/157 368/158
f 345/155 355/156 369/157 370/158
f 371/155 372/156 355/157 345/158
f 373/135 374/136 375/137 376/138
f 376/138 375/137 374/136 373/135
f 377/159 378/160 379/161 380/162
f 380/162 379/161 381/163 382/164
f 382/164 381/163 383/165 384/166
f 384/166 383/165 385/167 375/168
f 386/169 387/170 388/171 389/172
f 389/172 388/171 390/173 391/174
f 392/135 393/136 385/137 394/138
f 394/138 385/137 393/136 392/135
f 395/155 396/156 386/157 378/158
f 377/155 387/156 397/157 398/158
f 378/158 386/157 399/156 400/155
g int_seat_rev
usemtl m7_int_atlas
f 401/135 402/136 403/137 404/138
f 404/138 403/137 402/136 401/135
f 405/139 406/140 407/141 408/142
f 408/142 407/141 409/143 410/144
f 410/144 409/143 411/145 412/146
f 412/146 411/145 413/147 403/148
f 414/149 415/150 416/151 417/152
f 417/152 416/151 418/153 419/154
f 420/135 421/136 413/137 422/138
f 422/138 413/137 421/136 420/135
f 405/158 415/157 423/156 424/155
f 425/158 426/157 427/156 428/155
f 429/158 430/157 414/156 406/155
f 406/158 414/157 431/156 432/155
f 433/135 434/136 435/137 436/138
f 436/138 435/137 434/136 433/135
f 437/159 438/160 439/161 440/162
f 440/162 439/161 441/163 442/164
f 442/164 441/163 443/165 444/166
f 444/166 443/165 445/167 435/168
f 446/169 447/170 448/171 449/172
f 449/172 448/171 450/173 451/174
f 452/135 453/136 445/137 454/138
f 454/138 445/137 453/136 452/135
f 437/158 447/157 455/156 456/155
f 457/158 458/157 446/156 438/155
f 459/155 460/156 447/157 437/158
g int_seat_zone
usemtl m7_int_atlas
f 403/175 353/176 343/177 413/178
f 435/175 385/176 375/177 445/178
g int_end_cab
usemtl m7_int_atlas
f 461/179 462/180 463/181 464/182
f 462/180 465/183 466/184 463/181
f 465/183 467/185 468/186 466/184
f 467/185 469/187 470/188 468/186
f 471/182 472/181 473/180 474/179
f 472/181 475/184 476/183 473/180
f 475/184 477/186 478/185 476/183
f 477/186 479/188 480/187 478/185
f 481/11 482/12 483/13 484/14
f 484/14 483/13 485/15 486/16
f 486/16 485/15 487/17 488/18
f 488/18 487/17 489/19 490/20
f 490/20 489/19 491/21 492/22
f 492/22 491/21 493/23 494/24
f 494/24 493/23 495/25 496/26
f 497/27 498/28 499/29 500/30
f 501/39 502/40 503/41 504/42
f 502/40 505/43 506/44 503/41
f 505/43 507/45 508/46 506/44
f 509/42 510/41 511/40 512/39
f 510/41 513/44 514/43 511/40
f 513/44 515/46 516/45 514/43
f 517/47 518/48 519/49 520/50
f 518/48 521/51 522/52 519/49
f 521/51 523/53 524/54 522/52
f 525/50 526/49 527/48 528/47
f 526/49 529/52 530/51 527/48
f 529/52 531/54 532/53 530/51
f 533/189 534/190 535/191 536/192 537/193 538/194
f 539/195 540/196 541/197 542/198 543/199 544/200
f 545/201 546/202 534/203 533/204
f 547/205 548/206 546/202 545/201
f 549/202 550/201 544/204 543/203
f 551/206 552/205 550/201 549/202
g int_end_cab_mini
usemtl m7_int_atlas
f 553/179 554/180 555/207 556/208
f 554/180 557/183 558/209 555/207
f 557/183 559/185 560/210 558/209
f 559/185 561/187 562/211 560/210
f 563/208 564/207 565/180 566/179
f 564/207 567/209 568/183 565/180
f 567/209 569/210 570/185 568/183
f 569/210 571/211 572/187 570/185
f 573/11 574/12 575/13 576/14
f 576/14 575/13 577/15 578/16
f 578/16 577/15 579/17 580/18
f 580/18 579/17 581/19 582/20
f 582/20 581/19 583/21 584/22
f 584/22 583/21 585/23 586/24
f 586/24 585/23 587/25 588/26
f 589/27 590/28 591/29 592/30
f 593/39 594/40 595/41 596/42
f 594/40 597/43 598/44 595/41
f 597/43 599/45 600/46 598/44
f 601/42 602/41 603/40 604/39
f 602/41 605/44 606/43 603/40
f 605/44 607/46 608/45 606/43
f 609/47 610/48 611/49 612/50
f 610/48 613/51 614/52 611/49
f 613/51 615/53 616/54 614/52
f 617/50 618/49 619/48 620/47
f 618/49 621/52 622/51 619/48
f 621/52 623/54 624/53 622/51
f 625/189 626/190 627/191 628/192 629/193 630/194
f 631/195 632/196 633/197 634/198 635/199 636/200
f 637/201 638/202 626/203 625/204
f 639/205 640/206 638/202 637/201
f 641/202 642/201 636/204 635/203
f 643/206 644/205 642/201 641/202
g int_cab
usemtl m7_int_atlas
f 645/212 646/213 462/180 461/179
f 646/213 647/214 465/183 462/180
f 647/214 648/215 467/185 465/183
f 648/215 649/216 469/187 467/185
f 474/179 473/180 650/213 651/212
f 473/180 476/183 652/214 650/213
f 476/183 478/185 653/215 652/214
f 478/185 480/187 654/216 653/215
f 500/30 655/29 656/28 497/27
f 655/30 657/29 658/28 656/27
usemtl m7_int_cab_atlas
f 659/217 658/218 657/218 660/217
f 659/219 651/220 650/221
f 661/222 659/219 650/221 652/223
f 661/222 652/223 653/224
f 661/222 653/224 662/225
f 660/226 646/227 645/228
f 660/226 663/229 647/230 646/227
f 663/229 648/231 647/230
f 663/229 664/232 648/231
f 665/233 666/233 667/233 668/233
f 668/233 667/233 666/233 665/233
f 666/233 665/233 669/233 670/233 671/233 672/233
f 672/233 671/233 670/233 669/233 665/233 666/233
f 673/233 674/233 658/233 659/233
f 659/233 658/233 674/233 673/233
f 675/233 676/233 674/233 673/233
f 673/233 674/233 676/233 675/233
f 677/233 678/233 676/233 675/233
f 675/233 676/233 678/233 677/233
f 679/233 680/233 681/233 682/233
f 682/233 681/233 680/233 679/233
f 683/233 684/233 680/233 679/233
f 679/233 680/233 684/233 683/233
f 685/233 686/233 687/233 688/233
f 688/233 687/233 686/233 685/233
f 689/233 690/233 686/233 685/233
f 685/233 686/233 690/233 689/233
f 691/233 692/233 693/233 694/233 695/233 696/233
f 697/233 698/233 699/233 700/233
f 700/233 699/233 698/233 697/233
f 701/233 702/233 698/233 697/233
f 697/233 698/233 702/233 701/233
f 660/233 657/233 702/233 701/233
f 701/233 702/233 657/233 660/233
f 703/233 704/233 705/233 706/233 707/233 708/233
f 709/233 710/233 711/233 712/233
f 712/233 711/233 710/233 709/233
f 713/233 714/233 710/233 709/233
f 709/233 710/233 714/233 713/233
f 715/234 709/234 712/234 716/234
f 716/234 712/234 709/234 715/234
f 717/234 713/234 709/234 715/234
f 715/234 709/234 713/234 717/234
f 718/233 719/233 720/233 721/233
f 721/233 720/233 719/233 718/233
f 722/233 723/233 720/233 719/233
f 719/233 720/233 723/233 722/233
f 724/235 725/236 726/237 727/238
f 727/238 726/237 725/236 724/235
f 728/239 729/240 725/236 724/235
f 724/235 725/236 729/240 728/239
f 730/241 731/242 729/240 728/239
f 728/239 729/240 731/242 730/241
f 732/243 733/244 731/242 730/241
f 730/241 731/242 733/244 732/243
f 734/233 735/233 736/233 737/233
f 737/233 736/233 735/233 734/233
f 738/233 739/233 734/233 737/233
f 737/233 734/233 739/233 738/233
f 740/233 741/233 742/233 743/233
f 743/233 742/233 741/233 740/233
f 718/233 735/233 741/233 740/233
f 740/233 741/233 735/233 718/233
f 718/233 740/233 743/233
f 743/233 740/233 718/233
f 742/233 741/233 735/233
f 735/233 741/233 742/233
f 744/245 745/245 746/245 747/245
f 747/245 746/245 745/245 744/245
f 748/245 749/245 745/245 744/245
f 744/245 745/245 749/245 748/245
f 750/234 751/234 752/234 753/234
f 753/234 752/234 751/234 750/234
f 754/234 755/234 751/234 750/234
f 750/234 751/234 755/234 754/234
f 756/234 757/234 755/234 754/234
f 754/234 755/234 757/234 756/234
f 758/233 759/233 760/233 761/233
f 761/233 760/233 759/233 758/233
f 762/233 763/233 759/233 758/233
f 758/233 759/233 763/233 762/233
f 764/233 765/233 763/233 762/233
f 762/233 763/233 765/233 764/233
f 766/233 767/233 765/233 764/233
f 764/233 765/233 767/233 766/233
f 768/246 769/247 770/248 771/249
f 772/250 773/251 774/252 775/253
f 776/233 777/233 778/233 779/233
f 780/233 781/233 777/233 776/233
f 782/233 783/233 779/233 784/233
f 710/233 785/233 782/233 784/233
f 714/233 786/233 785/233 710/233
f 785/233 776/233 783/233 782/233
f 786/233 787/233 776/233 785/233
f 776/233 788/233 779/233 783/233
f 787/233 789/233 788/233 776/233
f 790/254 791/254 659/254 660/254 792/254 793/254
f 794/255 795/255 796/255 797/255
f 798/255 799/255 800/255 801/255
f 802/233 803/233 758/233 778/233
f 804/233 764/233 758/233 803/233
f 805/233 766/233 764/233 804/233
f 777/233 804/233 803/233 802/233
f 781/233 805/233 804/233 777/233
f 806/233 777/233 802/233 778/233
f 807/233 781/233 777/233 806/233
f 761/233 808/233 778/233 758/233
usemtl m7_int_atlas
f 809/138 810/137 811/136 812/135
f 812/135 811/136 810/137 809/138
f 813/162 814/161 815/160 816/159
f 817/164 818/163 814/161 813/162
f 819/166 820/165 818/163 817/164
f 810/168 821/167 820/165 819/166
f 822/138 821/137 823/136 824/135
f 824/135 823/136 821/137 822/138
usemtl m7_int_cab_atlas
f 825/256 826/257 827/258 828/259
f 828/259 827/258 826/257 825/256
f 829/260 830/261 826/257 825/256
f 825/256 826/257 830/261 829/260
f 831/262 832/263 833/264 834/245
f 834/245 833/264 832/263 831/262
f 832/263 835/265 836/266 833/264
f 833/264 836/266 835/265 832/263
f 835/265 837/267 838/268 836/266
f 836/266 838/268 837/267 835/265
f 837/267 831/262 834/245 838/268
f 838/268 834/245 831/262 837/267
f 839/262 840/263 841/264 842/245
f 842/245 841/264 840/263 839/262
f 840/263 843/265 844/266 841/264
f 841/264 844/266 843/265 840/263
f 843/265 845/267 846/268 844/266
f 844/266 846/268 845/267 843/265
f 845/267 839/262 842/245 846/268
f 846/268 842/245 839/262 845/267
g int_cab_mini
usemtl m7_int_atlas
f 847/212 848/213 554/180 553/179
f 848/213 849/214 557/183 554/180
f 849/214 850/215 559/185 557/183
f 850/215 851/216 561/187 559/185
f 566/179 565/180 852/213 853/212
f 565/180 568/183 854/214 852/213
f 568/183 570/185 855/215 854/214
f 570/185 572/187 856/216 855/215
f 592/30 857/29 858/28 589/27
f 857/30 859/29 860/28 858/27
usemtl m7_int_cab_atlas
f 861/217 860/218 859/218 862/217
f 861/219 853/220 852/221
f 863/222 861/219 852/221 854/223
f 863/222 854/223 855/224
f 863/222 855/224 864/225
f 862/226 848/227 847/228
f 862/226 865/229 849/230 848/227
f 865/229 850/231 849/230
f 865/229 866/232 850/231
f 867/233 868/233 869/233 870/233
f 870/233 869/233 868/233 867/233
f 868/233 867/233 871/233 872/233 873/233 874/233
f 874/233 873/233 872/233 871/233 867/233 868/233
f 875/233 876/233 860/233 861/233
f 861/233 860/233 876/233 875/233
f 877/233 878/233 876/233 875/233
f 875/233 876/233 878/233 877/233
f 879/233 880/233 878/233 877/233
f 877/233 878/233 880/233 879/233
f 881/233 882/233 883/233 884/233
f 884/233 883/233 882/233 881/233
f 885/233 886/233 882/233 881/233
f 881/233 882/233 886/233 885/233
f 887/233 888/233 889/233 890/233
f 890/233 889/233 888/233 887/233
f 891/233 892/233 888/233 887/233
f 887/233 888/233 892/233 891/233
f 893/233 894/233 895/233 896/233 897/233 898/233
f 899/233 900/233 901/233 902/233
f 902/233 901/233 900/233 899/233
f 903/233 904/233 900/233 899/233
f 899/233 900/233 904/233 903/233
f 862/233 859/233 904/233 903/233
f 903/233 904/233 859/233 862/233
f 905/233 906/233 907/233 908/233 909/233 910/233
f 911/233 912/233 913/233 914/233
f 914/233 913/233 912/233 911/233
f 915/233 916/233 912/233 911/233
f 911/233 912/233 916/233 915/233
f 917/234 911/234 914/234 918/234
f 918/234 914/234 911/234 917/234
f 919/234 915/234 911/234 917/234
f 917/234 911/234 915/234 919/234
f 920/233 921/233 922/233 923/233
f 923/233 922/233 921/233 920/233
f 924/233 925/233 922/233 921/233
f 921/233 922/233 925/233 924/233
f 926/235 927/236 928/237 929/238
f 929/238 928/237 927/236 926/235
f 930/239 931/240 927/236 926/235
f 926/235 927/236 931/240 930/239
f 932/241 933/242 931/240 930/239
f 930/239 931/240 933/242 932/241
f 934/243 935/244 933/242 932/241
f 932/241 933/242 935/244 934/243
f 936/233 937/233 938/233 939/233
f 939/233 938/233 937/233 936/233
f 940/233 941/233 936/233 939/233
f 939/233 936/233 941/233 940/233
f 942/233 943/233 944/233 945/233
f 945/233 944/233 943/233 942/233
f 920/233 937/233 943/233 942/233
f 942/233 943/233 937/233 920/233
f 920/233 942/233 945/233
f 945/233 942/233 920/233
f 944/233 943/233 937/233
f 937/233 943/233 944/233
f 946/245 947/245 948/245 949/245
f 949/245 948/245 947/245 946/245
f 950/245 951/245 947/245 946/245
f 946/245 947/245 951/245 950/245
f 952/234 953/234 954/234 955/234
f 955/234 954/234 953/234 952/234
f 956/234 957/234 953/234 952/234
f 952/234 953/234 957/234 956/234
f 958/234 959/234 957/234 956/234
f 956/234 957/234 959/234 958/234
f 960/233 961/233 962/233 963/233
f 963/233 962/233 961/233 960/233
f 964/233 965/233 961/233 960/233
f 960/233 961/233 965/233 964/233
f 966/233 967/233 965/233 964/233
f 964/233 965/233 967/233 966/233
f 968/233 969/233 967/233 966/233
f 966/233 967/233 969/233 968/233
f 970/246 971/247 972/248 973/249
f 974/250 975/251 976/252 977/253
f 978/233 979/233 980/233 981/233
f 982/233 983/233 979/233 978/233
f 984/233 985/233 981/233 986/233
f 912/233 987/233 984/233 986/233
f 916/233 988/233 987/233 912/233
f 987/233 978/233 985/233 984/233
f 988/233 989/233 978/233 987/233
f 978/233 990/233 981/233 985/233
f 989/233 991/233 990/233 978/233
f 992/254 993/254 861/254 862/254 994/254 995/254
f 996/255 997/255 998/255 999/255
f 1000/255 1001/255 1002/255 1003/255
f 1004/233 1005/233 960/233 980/233
f 1006/233 966/233 960/233 1005/233
f 1007/233 968/233 966/233 1006/233
f 979/233 1006/233 1005/233 1004/233
f 983/233 1007/233 1006/233 979/233
f 1008/233 979/233 1004/233 980/233
f 1009/233 983/233 979/233 1008/233
f 963/233 1010/233 980/233 960/233
usemtl m7_int_atlas
f 1011/138 1012/137 1013/136 1014/135
f 1014/135 1013/136 1012/137 1011/138
f 1015/162 1016/161 1017/160 1018/159
f 1019/164 1020/163 1016/161 1015/162
f 1021/166 1022/165 1020/163 1019/164
f 1012/168 1023/167 1022/165 1021/166
f 1024/138 1023/137 1025/136 1026/135
f 1026/135 1025/136 1023/137 1024/138
usemtl m7_int_cab_atlas
f 1027/256 1028/257 1029/258 1030/259
f 1030/259 1029/258 1028/257 1027/256
f 1031/260 1032/261 1028/257 1027/256
f 1027/256 1028/257 1032/261 1031/260
f 1033/262 1034/263 1035/264 1036/245
f 1036/245 1035/264 1034/263 1033/262
f 1034/263 1037/265 1038/266 1035/264
f 1035/264 1038/266 1037/265 1034/263
f 1037/265 1039/267 1040/268 1038/266
f 1038/266 1040/268 1039/267 1037/265
f 1039/267 1033/262 1036/245 1040/268
f 1040/268 1036/245 1033/262 1039/267
f 1041/262 1042/263 1043/264 1044/245
f 1044/245 1043/264 1042/263 1041/262
f 1042/263 1045/265 1046/266 1043/264
f 1043/264 1046/266 1045/265 1042/263
f 1045/265 1047/267 1048/268 1046/266
f 1046/266 1048/268 1047/267 1045/265
f 1047/267 1041/262 1044/245 1048/268
f 1048/268 1044/245 1041/262 1047/267
g int_end_gangway
usemtl m7_int_atlas
f 1049/269 1050/270 463/271 464/272
f 1050/270 1051/273 466/274 463/271
f 1051/273 1052/275 468/276 466/274
f 1052/275 1053/277 470/278 468/276
f 471/272 472/271 1054/270 1055/269
f 472/271 475/274 1056/273 1054/270
f 475/274 477/276 1057/275 1056/273
f 477/276 479/278 1058/277 1057/275
f 1059/11 482/12 483/13 1060/14
f 1060/14 483/13 485/15 1061/16
f 1061/16 485/15 487/17 1062/18
f 1062/18 487/17 489/19 1063/20
f 1063/20 489/19 491/21 1064/22
f 1064/22 491/21 493/23 1065/24
f 1065/24 493/23 495/25 1066/26
f 1067/27 498/28 499/29 1068/30
f 1069/39 1070/40 503/41 504/42
f 1070/40 1071/43 506/44 503/41
f 1071/43 1072/45 508/46 506/44
f 509/42 510/41 1073/40 1074/39
f 510/41 513/44 1075/43 1073/40
f 513/44 515/46 1076/45 1075/43
f 1077/47 1078/48 519/49 520/50
f 1078/48 1079/51 522/52 519/49
f 1079/51 1080/53 524/54 522/52
f 525/50 526/49 1081/48 1082/47
f 526/49 529/52 1083/51 1081/48
f 529/52 531/54 1084/53 1083/51
f 1085/279 1086/280 1087/281 1088/282
f 1088/282 1087/281 1089/280 1090/283 1091/284 1092/279
f 1093/285 1094/286 1095/287 1096/288
f 1096/288 1095/287 1097/289 1098/290 1099/291 1100/292
f 1085/175 1101/175 1102/175 1094/175
g int_end_gangway_mini
usemtl m7_int_atlas
f 1103/293 1104/294 555/295 556/296
f 1104/294 1105/297 558/298 555/295
f 1105/297 1106/299 560/300 558/298
f 1106/299 1107/301 562/302 560/300
f 563/296 564/295 1108/294 1109/293
f 564/295 567/298 1110/297 1108/294
f 567/298 569/300 1111/299 1110/297
f 569/300 571/302 1112/301 1111/299
f 1113/11 574/12 575/13 1114/14
f 1114/14 575/13 577/15 1115/16
f 1115/16 577/15 579/17 1116/18
f 1116/18 579/17 581/19 1117/20
f 1117/20 581/19 583/21 1118/22
f 1118/22 583/21 585/23 1119/24
f 1119/24 585/23 587/25 1120/26
f 1121/27 590/28 591/29 1122/30
f 1123/39 1124/40 595/41 596/42
f 1124/40 1125/43 598/44 595/41
f 1125/43 1126/45 600/46 598/44
f 601/42 602/41 1127/40 1128/39
f 602/41 605/44 1129/43 1127/40
f 605/44 607/46 1130/45 1129/43
f 1131/47 1132/48 611/49 612/50
f 1132/48 1133/51 614/52 611/49
f 1133/51 1134/53 616/54 614/52
f 617/50 618/49 1135/48 1136/47
f 618/49 621/52 1137/51 1135/48
f 621/52 623/54 1138/53 1137/51
f 1139/279 1140/280 1141/281 1142/282
f 1142/282 1141/281 1143/280 1144/283 1145/284 1146/279
f 1147/285 1148/286 1149/287 1150/288
f 1150/288 1149/287 1151/289 1152/290 1153/291 1154/292
f 1139/175 1155/175 1156/175 1148/175
