# NYCT R62 — generated by tools/convert_openbve_r62.py from the
# openBVE donor. DO NOT EDIT: re-run the converter instead.
mtllib r62.mtl

v 1.21362 2.04833 1.81250
v 1.21362 2.04833 -1.81250
v 1.21362 -0.16644 -1.81250
v 1.21362 -0.16644 1.81250
v 1.19511 1.35622 0.70589
v 1.19511 1.35622 -0.66853
v 1.19511 1.03982 -0.66853
v 1.19511 1.03982 0.70589
v 1.19511 1.47487 0.68680
v 1.19511 1.47487 -0.64944
v 1.19511 1.39577 -0.64944
v 1.19511 1.39577 0.68680
v -1.21362 -0.16644 1.81250
v -1.21362 -0.16644 -1.81250
v -1.21362 2.04833 -1.81250
v -1.21362 2.04833 1.81250
v -1.19511 1.71216 0.64862
v -1.19511 1.71216 -0.74488
v -1.19511 1.87036 -0.74488
v -1.19511 1.87036 0.64862
v -1.19511 1.03982 0.64862
v -1.19511 1.03982 -0.74488
v -1.19511 1.67261 -0.74488
v -1.19511 1.67261 0.64862
v -0.21719 2.57277 1.81250
v -0.21719 2.57277 -1.81250
v -0.00000 2.57534 -1.81250
v -0.00000 2.57534 1.81250
v -0.42448 2.55534 1.81250
v -0.42448 2.55534 -1.81250
v -0.59538 2.51268 1.81250
v -0.59538 2.51268 -1.81250
v -0.73971 2.45197 1.81250
v -0.73971 2.45197 -1.81250
v -0.87090 2.38131 1.81250
v -0.87090 2.38131 -1.81250
v -0.99208 2.29538 1.81250
v -0.99208 2.29538 -1.81250
v -1.10012 2.19344 1.81250
v -1.10012 2.19344 -1.81250
v -1.17669 2.10679 1.81250
v -1.17669 2.10679 -1.81250
v 0.21719 2.57277 -1.81250
v 0.21719 2.57277 1.81250
v 0.42448 2.55534 -1.81250
v 0.42448 2.55534 1.81250
v 0.59538 2.51268 -1.81250
v 0.59538 2.51268 1.81250
v 0.73971 2.45197 -1.81250
v 0.73971 2.45197 1.81250
v 0.87090 2.38131 -1.81250
v 0.87090 2.38131 1.81250
v 0.99208 2.29538 -1.81250
v 0.99208 2.29538 1.81250
v 1.10012 2.19344 -1.81250
v 1.10012 2.19344 1.81250
v 1.17669 2.10679 -1.81250
v 1.17669 2.10679 1.81250
v -1.02819 -0.54249 1.81250
v -1.02819 -0.54249 -1.81250
v -1.02819 -0.16644 -1.81250
v -1.02819 -0.16644 1.81250
v 1.02819 -0.16644 1.81250
v 1.02819 -0.16644 -1.81250
v 1.02819 -0.54249 -1.81250
v 1.02819 -0.54249 1.81250
v 1.27612 1.87872 0.74078
v 1.27612 1.87872 -0.68340
v 1.27612 1.48800 -0.68340
v 1.27612 1.48800 0.74078
v 1.21362 1.48800 -0.68340
v 1.21362 1.87872 -0.68340
v 1.21362 1.87872 0.74078
v 1.21362 1.48800 0.74078
v 1.21362 2.04833 0.65625
v 1.21362 2.04833 -0.65625
v 1.21362 1.99562 -0.65625
v 1.21362 1.99562 0.65625
v 1.21362 0.00000 0.65625
v 1.21362 0.00000 -0.65625
v 1.21362 -0.16644 -0.65625
v 1.21362 -0.16644 0.65625
v 1.17104 1.99562 -0.65625
v 1.17104 0.00000 -0.65625
v 1.17104 0.00000 0.65625
v 1.17104 1.99562 0.65625
v 1.24487 0.00000 0.65625
v 1.24487 0.00000 -0.65625
v 1.24487 -0.06250 -0.65625
v 1.24487 -0.06250 0.65625
v 1.10253 -0.06250 0.65625
v 1.10253 -0.06250 -0.65625
v 1.10253 0.00000 -0.65625
v 1.10253 0.00000 0.65625
v -1.21362 1.99562 0.65625
v -1.21362 1.99562 -0.65625
v -1.21362 2.04833 -0.65625
v -1.21362 2.04833 0.65625
v -1.21362 -0.16644 0.65625
v -1.21362 -0.16644 -0.65625
v -1.21362 0.00000 -0.65625
v -1.21362 0.00000 0.65625
v -1.17104 0.00000 -0.65625
v -1.17104 1.99562 -0.65625
v -1.17104 1.99562 0.65625
v -1.17104 0.00000 0.65625
v -1.10253 0.00000 0.65625
v -1.10253 0.00000 -0.65625
v -1.10253 -0.06250 -0.65625
v -1.10253 -0.06250 0.65625
v -1.24487 -0.06250 0.65625
v -1.24487 -0.06250 -0.65625
v -1.24487 0.00000 -0.65625
v -1.24487 0.00000 0.65625
v -0.21719 2.57277 0.65625
v -0.21719 2.57277 -0.65625
v -0.00000 2.57534 -0.65625
v -0.00000 2.57534 0.65625
v -0.42448 2.55534 0.65625
v -0.42448 2.55534 -0.65625
v -0.59538 2.51268 0.65625
v -0.59538 2.51268 -0.65625
v -0.73971 2.45197 0.65625
v -0.73971 2.45197 -0.65625
v -0.87090 2.38131 0.65625
v -0.87090 2.38131 -0.65625
v -0.99208 2.29538 0.65625
v -0.99208 2.29538 -0.65625
v -1.10012 2.19344 0.65625
v -1.10012 2.19344 -0.65625
v -1.17669 2.10679 0.65625
v -1.17669 2.10679 -0.65625
v 0.21719 2.57277 -0.65625
v 0.21719 2.57277 0.65625
v 0.42448 2.55534 -0.65625
v 0.42448 2.55534 0.65625
v 0.59538 2.51268 -0.65625
v 0.59538 2.51268 0.65625
v 0.73971 2.45197 -0.65625
v 0.73971 2.45197 0.65625
v 0.87090 2.38131 -0.65625
v 0.87090 2.38131 0.65625
v 0.99208 2.29538 -0.65625
v 0.99208 2.29538 0.65625
v 1.10012 2.19344 -0.65625
v 1.10012 2.19344 0.65625
v 1.17669 2.10679 -0.65625
v 1.17669 2.10679 0.65625
v -1.02819 -0.54249 0.65625
v -1.02819 -0.54249 -0.65625
v -1.02819 -0.16644 -0.65625
v -1.02819 -0.16644 0.65625
v 1.02819 -0.16644 0.65625
v 1.02819 -0.16644 -0.65625
v 1.02819 -0.54249 -0.65625
v 1.02819 -0.54249 0.65625
v 1.21362 2.04833 1.20312
v 1.21362 2.04833 -0.55944
v 1.21362 -0.16644 -0.55944
v 1.21362 -0.16644 1.20312
v 1.19511 1.83081 -0.00360
v 1.19511 1.83081 -0.42527
v 1.19511 1.03982 -0.42527
v 1.19511 1.03982 -0.00360
v -1.21362 -0.16644 1.20312
v -1.21362 -0.16644 -0.55944
v -1.21362 2.04833 -0.55944
v -1.21362 2.04833 1.20312
v -1.19511 1.03982 -0.00360
v -1.19511 1.03982 -0.42527
v -1.19511 1.83081 -0.42527
v -1.19511 1.83081 -0.00360
v -0.21719 2.57277 1.20312
v -0.21719 2.57277 -0.55944
v -0.00000 2.57534 -0.55944
v -0.00000 2.57534 1.20312
v -0.42448 2.55534 1.20312
v -0.42448 2.55534 -0.55944
v -0.59538 2.51268 1.20312
v -0.59538 2.51268 -0.55944
v -0.73971 2.45197 1.20312
v -0.73971 2.45197 -0.55944
v -0.87090 2.38131 1.20312
v -0.87090 2.38131 -0.55944
v -0.99208 2.29538 1.20312
v -0.99208 2.29538 -0.55944
v -1.10012 2.19344 1.20312
v -1.10012 2.19344 -0.55944
v -1.17669 2.10679 1.20312
v -1.17669 2.10679 -0.55944
v 0.21719 2.57277 -0.55944
v 0.21719 2.57277 1.20312
v 0.42448 2.55534 -0.55944
v 0.42448 2.55534 1.20312
v 0.59538 2.51268 -0.55944
v 0.59538 2.51268 1.20312
v 0.73971 2.45197 -0.55944
v 0.73971 2.45197 1.20312
v 0.87090 2.38131 -0.55944
v 0.87090 2.38131 1.20312
v 0.99208 2.29538 -0.55944
v 0.99208 2.29538 1.20312
v 1.10012 2.19344 -0.55944
v 1.10012 2.19344 1.20312
v 1.17669 2.10679 -0.55944
v 1.17669 2.10679 1.20312
v -1.02819 -0.54249 1.20312
v -1.02819 -0.54249 -0.55944
v -1.02819 -0.16644 -0.55944
v -1.02819 -0.16644 1.20312
v 1.02819 -0.16644 1.20312
v 1.02819 -0.16644 -0.55944
v 1.02819 -0.54249 -0.55944
v 1.02819 -0.54249 1.20312
v -0.87090 2.44381 1.06527
v -0.87090 2.44381 0.39658
v -0.83738 2.46186 0.39658
v -0.83738 2.46186 1.06527
v -0.87090 2.38131 0.39658
v -0.83738 2.39936 0.39658
v -0.83738 2.39936 1.06527
v -0.87090 2.38131 1.06527
v -0.99208 2.35788 1.06527
v -0.99208 2.35788 0.39658
v -0.99208 2.29538 0.39658
v -0.99208 2.29538 1.06527
v -1.10012 2.25594 1.06527
v -1.10012 2.25594 0.39658
v -1.10012 2.19344 0.39658
v -1.10012 2.19344 1.06527
v -1.15215 2.19705 1.06527
v -1.15215 2.19705 0.39658
v -1.15215 2.13455 0.39658
v -1.15215 2.13455 1.06527
v 0.83738 2.46186 1.06527
v 0.83738 2.46186 0.39658
v 0.87090 2.44381 0.39658
v 0.87090 2.44381 1.06527
v 0.83738 2.39936 0.39658
v 0.87090 2.38131 0.39658
v 0.87090 2.38131 1.06527
v 0.83738 2.39936 1.06527
v 0.99208 2.35788 0.39658
v 0.99208 2.35788 1.06527
v 0.99208 2.29538 0.39658
v 0.99208 2.29538 1.06527
v 1.10012 2.25594 0.39658
v 1.10012 2.25594 1.06527
v 1.10012 2.19344 0.39658
v 1.10012 2.19344 1.06527
v 1.15215 2.19705 0.39658
v 1.15215 2.19705 1.06527
v 1.15215 2.13455 0.39658
v 1.15215 2.13455 1.06527
v -0.38587 2.13425 -0.94038
v -0.42448 2.13185 -0.93565
v -0.42448 0.00000 -0.93565
v -0.38587 0.00000 -0.94038
v -0.59538 2.11846 -0.91469
v -0.59538 0.00000 -0.91469
v -0.65935 2.11243 -0.90684
v -0.65935 0.00000 -0.90684
v -0.73971 2.10116 -0.88688
v -0.73971 0.00000 -0.88688
v -0.87090 2.07816 -0.85428
v -0.87090 0.00000 -0.85428
v -0.89867 2.07274 -0.84738
v -0.89867 0.00000 -0.84738
v -0.99208 2.04993 -0.81444
v -0.99208 0.00000 -0.81444
v -1.07077 2.03305 -0.78669
v -1.07077 0.00000 -0.78669
v -1.10012 2.02680 -0.76931
v -1.10012 0.00000 -0.76931
v -1.10447 2.02588 -0.76673
v -1.10447 0.00000 -0.76673
v -1.12003 2.02899 -0.74739
v -1.12003 0.00000 -0.74739
v -1.13688 2.03236 -0.72064
v -1.13688 0.00000 -0.72064
v -1.17113 2.03921 -0.66612
v -1.17113 0.00000 -0.66612
v -1.17669 2.04040 -0.65217
v -1.17669 0.00000 -0.65217
v -1.21362 0.00000 -0.55944
v 0.38587 0.00000 -0.94038
v 0.42448 0.00000 -0.93565
v 0.42448 2.13185 -0.93565
v 0.38587 2.13425 -0.94038
v 0.59538 0.00000 -0.91469
v 0.59538 2.11846 -0.91469
v 0.65935 0.00000 -0.90684
v 0.65935 2.11243 -0.90684
v 0.73971 0.00000 -0.88688
v 0.73971 2.10116 -0.88688
v 0.87090 0.00000 -0.85428
v 0.87090 2.07816 -0.85428
v 0.89867 0.00000 -0.84738
v 0.89867 2.07274 -0.84738
v 0.99208 0.00000 -0.81444
v 0.99208 2.04993 -0.81444
v 1.07077 0.00000 -0.78669
v 1.07077 2.03305 -0.78669
v 1.10012 0.00000 -0.76931
v 1.10012 2.02680 -0.76931
v 1.10447 0.00000 -0.76673
v 1.10447 2.02588 -0.76673
v 1.12003 0.00000 -0.74739
v 1.12003 2.02899 -0.74739
v 1.13688 0.00000 -0.72064
v 1.13688 2.03236 -0.72064
v 1.17113 0.00000 -0.66612
v 1.17113 2.03921 -0.66612
v 1.17669 0.00000 -0.65217
v 1.17669 2.04040 -0.65217
v 1.21362 0.00000 -0.55944
v -0.00000 2.27341 -0.90610
v -0.21719 2.26950 -0.90610
v -0.21719 2.13953 -0.94038
v -0.00000 2.14401 -0.94038
v -0.00000 2.38124 -0.85276
v -0.21719 2.37781 -0.85276
v -0.00000 2.48045 -0.78038
v -0.21719 2.47746 -0.78038
v -0.00000 2.54515 -0.67753
v -0.21719 2.54245 -0.67753
v -0.38587 2.26155 -0.90610
v -0.38587 2.36763 -0.85276
v -0.38587 2.46523 -0.78038
v -0.38587 2.52888 -0.67753
v -0.38587 2.55859 -0.55944
v -0.42448 2.25890 -0.90179
v -0.42448 2.36477 -0.84912
v -0.42448 2.46217 -0.77764
v -0.42448 2.52570 -0.67606
v -0.59538 2.23672 -0.88272
v -0.59538 2.33528 -0.83298
v -0.59538 2.42595 -0.76548
v -0.59538 2.48508 -0.66956
v -0.65935 2.22443 -0.87558
v -0.65935 2.31777 -0.82694
v -0.65935 2.40364 -0.76093
v -0.65935 2.45964 -0.66713
v -0.65935 2.48577 -0.55944
v -0.73971 2.20640 -0.85741
v -0.73971 2.29410 -0.81157
v -0.73971 2.37479 -0.74935
v -0.73971 2.42741 -0.66094
v -0.87090 2.16911 -0.82775
v -0.87090 2.24490 -0.78647
v -0.87090 2.31462 -0.73045
v -0.87090 2.36009 -0.65084
v -0.89867 2.15940 -0.82147
v -0.89867 2.23162 -0.78115
v -0.89867 2.29807 -0.72644
v -0.89867 2.34140 -0.64870
v -0.89867 2.36162 -0.55944
v -0.99208 2.12357 -0.79149
v -0.99208 2.18493 -0.75579
v -0.99208 2.24138 -0.70734
v -0.99208 2.27820 -0.63849
v -1.07077 2.08947 -0.76623
v -1.07077 2.13649 -0.73442
v -1.07077 2.17975 -0.69124
v -1.07077 2.20797 -0.62988
v -1.07077 2.22113 -0.55944
v -1.10012 2.07679 -0.75042
v -1.10012 2.11845 -0.72104
v -1.10012 2.15678 -0.68116
v -1.10012 2.18178 -0.62449
v -1.10447 2.07467 -0.74807
v -1.10447 2.11533 -0.71905
v -1.10447 2.15274 -0.67967
v -1.10447 2.17713 -0.62370
v -1.10447 2.18852 -0.55944
v -1.12003 2.07156 -0.73047
v -1.12003 2.10705 -0.70416
v -1.12003 2.13969 -0.66845
v -1.12003 2.16098 -0.61770
v -1.12003 2.17091 -0.55944
v -1.13688 2.06820 -0.70613
v -1.13688 2.09807 -0.68356
v -1.13688 2.12556 -0.65293
v -1.13688 2.14348 -0.60941
v -1.13688 2.15184 -0.55944
v -1.17113 2.06137 -0.65652
v -1.17113 2.07983 -0.64158
v -1.17113 2.09682 -0.62131
v -1.17113 2.10790 -0.59251
v -1.17113 2.11307 -0.55944
v -1.17669 2.06032 -0.64383
v -1.17669 2.07691 -0.63084
v -1.17669 2.09218 -0.61322
v -1.17669 2.10214 -0.58818
v 0.21719 2.13953 -0.94038
v 0.21719 2.26950 -0.90610
v 0.21719 2.37781 -0.85276
v 0.21719 2.47746 -0.78038
v 0.21719 2.54245 -0.67753
v 0.38587 2.26155 -0.90610
v 0.38587 2.36763 -0.85276
v 0.38587 2.46523 -0.78038
v 0.38587 2.52888 -0.67753
v 0.38587 2.55859 -0.55944
v 0.42448 2.25890 -0.90179
v 0.42448 2.36477 -0.84912
v 0.42448 2.46217 -0.77764
v 0.42448 2.52570 -0.67606
v 0.59538 2.23672 -0.88272
v 0.59538 2.33528 -0.83298
v 0.59538 2.42595 -0.76548
v 0.59538 2.48508 -0.66956
v 0.65935 2.22443 -0.87558
v 0.65935 2.31777 -0.82694
v 0.65935 2.40364 -0.76093
v 0.65935 2.45964 -0.66713
v 0.65935 2.48577 -0.55944
v 0.73971 2.20640 -0.85741
v 0.73971 2.29410 -0.81157
v 0.73971 2.37479 -0.74935
v 0.73971 2.42741 -0.66094
v 0.87090 2.16911 -0.82775
v 0.87090 2.24490 -0.78647
v 0.87090 2.31462 -0.73045
v 0.87090 2.36009 -0.65084
v 0.89867 2.15940 -0.82147
v 0.89867 2.23162 -0.78115
v 0.89867 2.29807 -0.72644
v 0.89867 2.34140 -0.64870
v 0.89867 2.36162 -0.55944
v 0.99208 2.12357 -0.79149
v 0.99208 2.18493 -0.75579
v 0.99208 2.24138 -0.70734
v 0.99208 2.27820 -0.63849
v 1.07077 2.08947 -0.76623
v 1.07077 2.13649 -0.73442
v 1.07077 2.17975 -0.69124
v 1.07077 2.20797 -0.62988
v 1.07077 2.22113 -0.55944
v 1.10012 2.07679 -0.75042
v 1.10012 2.11845 -0.72104
v 1.10012 2.15678 -0.68116
v 1.10012 2.18178 -0.62449
v 1.10447 2.07467 -0.74807
v 1.10447 2.11533 -0.71905
v 1.10447 2.15274 -0.67967
v 1.10447 2.17713 -0.62370
v 1.10447 2.18852 -0.55944
v 1.12003 2.07156 -0.73047
v 1.12003 2.10705 -0.70416
v 1.12003 2.13969 -0.66845
v 1.12003 2.16098 -0.61770
v 1.12003 2.17091 -0.55944
v 1.13688 2.06820 -0.70613
v 1.13688 2.09807 -0.68356
v 1.13688 2.12556 -0.65293
v 1.13688 2.14348 -0.60941
v 1.13688 2.15184 -0.55944
v 1.17113 2.06137 -0.65652
v 1.17113 2.07983 -0.64158
v 1.17113 2.09682 -0.62131
v 1.17113 2.10790 -0.59251
v 1.17113 2.11307 -0.55944
v 1.17669 2.06032 -0.64383
v 1.17669 2.07691 -0.63084
v 1.17669 2.09218 -0.61322
v 1.17669 2.10214 -0.58818
v -0.38587 2.00690 -0.94038
v 0.38587 2.00690 -0.94038
v 0.38587 2.14401 -0.94038
v -0.38587 2.14401 -0.94038
v -0.38587 2.00690 -0.68566
v -0.38587 0.00000 -0.68566
v 0.38587 0.00000 -0.68566
v 0.38587 2.00690 -0.68566
v -0.24071 1.17932 -0.70441
v 0.24071 1.17932 -0.70441
v 0.24071 1.87667 -0.70441
v -0.24071 1.87667 -0.70441
v -0.38587 1.35414 -0.67153
v 0.00000 1.11315 -0.67153
v 0.00000 1.05065 -0.67153
v -0.38587 1.29164 -0.67153
v -0.38587 1.29164 -0.74095
v 0.00000 1.05065 -0.74095
v 0.00000 1.11315 -0.74095
v -0.38587 1.35414 -0.74095
v 0.38587 1.29164 -0.67153
v 0.38587 1.35414 -0.67153
v 0.38587 1.35414 -0.74095
v 0.38587 1.29164 -0.74095
v -0.38587 0.99522 -0.67153
v 0.00000 0.75423 -0.67153
v 0.00000 0.69173 -0.67153
v -0.38587 0.93272 -0.67153
v -0.38587 0.93272 -0.74095
v 0.00000 0.69173 -0.74095
v 0.00000 0.75423 -0.74095
v -0.38587 0.99522 -0.74095
v 0.38587 0.93272 -0.67153
v 0.38587 0.99522 -0.67153
v 0.38587 0.99522 -0.74095
v 0.38587 0.93272 -0.74095
v -0.38587 0.63629 -0.67153
v 0.00000 0.39530 -0.67153
v 0.00000 0.33280 -0.67153
v -0.38587 0.57379 -0.67153
v -0.38587 0.57379 -0.74095
v 0.00000 0.33280 -0.74095
v 0.00000 0.39530 -0.74095
v -0.38587 0.63629 -0.74095
v 0.38587 0.57379 -0.67153
v 0.38587 0.63629 -0.67153
v 0.38587 0.63629 -0.74095
v 0.38587 0.57379 -0.74095
v 0.03125 1.35414 -0.67153
v 0.03125 1.35414 -0.74095
v 0.03125 0.33280 -0.74095
v 0.03125 0.33280 -0.67153
v -0.03125 0.33280 -0.67153
v -0.03125 0.33280 -0.74095
v -0.03125 1.35414 -0.74095
v -0.03125 1.35414 -0.67153
v 1.19428 0.00000 -0.55944
v 1.19428 0.00000 -1.20312
v 1.19428 -0.17577 -1.20312
v 1.19428 -0.17577 -0.55944
v -1.19428 -0.17577 -0.55944
v -1.19428 -0.17577 -1.20312
v -1.19428 0.00000 -1.20312
v -1.19428 0.00000 -0.55944
v -0.96974 -0.01518 -1.11568
v -0.96974 -0.01518 -1.30600
v -0.92716 -0.05777 -1.30600
v -0.92716 -0.05777 -1.11568
v -1.02997 -0.01518 -1.11568
v -1.02997 -0.01518 -1.30600
v -1.07256 -0.05777 -1.11568
v -1.07256 -0.05777 -1.30600
v -1.07256 -0.11800 -1.11568
v -1.07256 -0.11800 -1.30600
v -1.02997 -0.16059 -1.11568
v -1.02997 -0.16059 -1.30600
v -0.96974 -0.16059 -1.11568
v -0.96974 -0.16059 -1.30600
v -0.92716 -0.11800 -1.11568
v -0.92716 -0.11800 -1.30600
v 1.02997 -0.01518 -1.11568
v 1.02997 -0.01518 -1.30600
v 1.07256 -0.05777 -1.30600
v 1.07256 -0.05777 -1.11568
v 0.96974 -0.01518 -1.11568
v 0.96974 -0.01518 -1.30600
v 0.92716 -0.05777 -1.11568
v 0.92716 -0.05777 -1.30600
v 0.92716 -0.11800 -1.11568
v 0.92716 -0.11800 -1.30600
v 0.96974 -0.16059 -1.11568
v 0.96974 -0.16059 -1.30600
v 1.02997 -0.16059 -1.11568
v 1.02997 -0.16059 -1.30600
v 1.07256 -0.11800 -1.11568
v 1.07256 -0.11800 -1.30600
v 0.25000 -0.25000 -0.32812
v 0.25000 -0.25000 -0.70312
v 0.25000 -0.50000 -0.70312
v 0.25000 -0.50000 -0.32812
v -0.25000 -0.50000 -0.32812
v -0.25000 -0.50000 -0.70312
v -0.25000 -0.25000 -0.70312
v -0.25000 -0.25000 -0.32812
v 0.09375 -0.28125 -0.51562
v 0.09375 -0.28125 -0.82812
v 0.09375 -0.46875 -0.82812
v 0.09375 -0.46875 -0.51562
v -0.09375 -0.46875 -0.51562
v -0.09375 -0.46875 -0.82812
v -0.09375 -0.28125 -0.82812
v -0.09375 -0.28125 -0.51562
v 0.15625 -0.25000 -0.76562
v 0.15625 -0.25000 -1.07812
v 0.15625 -0.50000 -1.07812
v 0.15625 -0.50000 -0.76562
v -0.15625 -0.50000 -0.76562
v -0.15625 -0.50000 -1.07812
v -0.15625 -0.25000 -1.07812
v -0.15625 -0.25000 -0.76562
v 0.15625 -0.28125 -1.01562
v 0.15625 -0.28125 -1.26562
v 0.15625 -0.46875 -1.26562
v 0.15625 -0.46875 -1.01562
v 0.03125 -0.46875 -1.01562
v 0.03125 -0.46875 -1.26562
v 0.03125 -0.28125 -1.26562
v 0.03125 -0.28125 -1.01562
v 0.47376 1.04661 -0.98638
v 0.56751 1.04661 -0.98638
v 0.56751 2.02374 -0.98638
v 0.47376 2.02374 -0.98638
v 0.47376 1.04661 -0.92960
v 0.47376 2.02374 -0.92960
v 0.56751 2.02374 -0.91811
v 0.56751 1.04661 -0.91811
v 1.02763 1.04661 -0.85088
v 1.10447 1.04661 -0.85088
v 1.10447 2.02374 -0.85088
v 1.02763 2.02374 -0.85088
v 1.02763 1.04661 -0.80190
v 1.02763 2.02374 -0.80190
v 1.10447 2.02374 -0.76673
v 1.10447 1.04661 -0.76673
v 0.56751 1.92999 -0.93503
v 1.02763 1.92999 -0.93503
v 1.02763 2.02374 -0.93503
v 0.56751 2.02374 -0.93503
v 0.56751 1.92999 -0.91811
v 1.02763 1.92999 -0.80190
v 0.56751 1.04661 -0.93503
v 1.02763 1.04661 -0.93503
v 1.02763 1.14036 -0.93503
v 0.56751 1.14036 -0.93503
v 0.56751 1.14036 -0.91811
v 1.02763 1.14036 -0.80190
v -1.09083 1.14710 -0.85867
v -0.99708 1.14710 -0.85867
v -0.99708 1.85761 -0.85867
v -1.09083 1.85761 -0.85867
v -1.09083 1.14710 -0.77481
v -1.09083 1.85761 -0.77481
v -0.99708 1.85761 -0.81268
v -0.99708 1.14710 -0.81268
v -0.57770 1.14710 -0.98514
v -0.48395 1.14710 -0.98514
v -0.48395 1.85761 -0.98514
v -0.57770 1.85761 -0.98514
v -0.57770 1.14710 -0.91686
v -0.57770 1.85761 -0.91686
v -0.48395 1.85761 -0.92835
v -0.48395 1.14710 -0.92835
v -0.99708 1.76386 -0.93756
v -0.57770 1.76386 -0.93756
v -0.57770 1.85761 -0.93756
v -0.99708 1.85761 -0.93756
v -0.99708 1.76386 -0.81268
v -0.57770 1.76386 -0.91686
v -0.99708 1.14710 -0.93756
v -0.57770 1.14710 -0.93756
v -0.57770 1.24085 -0.93756
v -0.99708 1.24085 -0.93756
v -0.99708 1.24085 -0.81268
v -0.57770 1.24085 -0.91686
v -0.59833 0.90450 -0.91433
v -0.59833 0.90450 -0.93540
v -0.53284 0.83902 -0.93540
v -0.53284 0.83902 -0.92236
v -0.69094 0.90450 -0.89900
v -0.69094 0.90450 -0.93540
v -0.75642 0.83902 -0.88273
v -0.75642 0.83902 -0.93540
v -0.75642 0.74641 -0.88273
v -0.75642 0.74641 -0.93540
v -0.69094 0.68092 -0.89900
v -0.69094 0.68092 -0.93540
v -0.59833 0.68092 -0.91433
v -0.59833 0.68092 -0.93540
v -0.53284 0.74641 -0.92236
v -0.53284 0.74641 -0.93540
v -0.59833 0.45944 -0.91433
v -0.59833 0.45944 -0.93540
v -0.53284 0.39395 -0.93540
v -0.53284 0.39395 -0.92236
v -0.69094 0.45944 -0.89900
v -0.69094 0.45944 -0.93540
v -0.75642 0.39395 -0.88273
v -0.75642 0.39395 -0.93540
v -0.75642 0.30134 -0.88273
v -0.75642 0.30134 -0.93540
v -0.69094 0.23585 -0.89900
v -0.69094 0.23585 -0.93540
v -0.59833 0.23585 -0.91433
v -0.59833 0.23585 -0.93540
v -0.53284 0.30134 -0.92236
v -0.53284 0.30134 -0.93540
v 0.69094 0.90450 -0.89900
v 0.69094 0.90450 -0.93540
v 0.75642 0.83902 -0.93540
v 0.75642 0.83902 -0.88273
v 0.59833 0.90450 -0.91433
v 0.59833 0.90450 -0.93540
v 0.53284 0.83902 -0.92236
v 0.53284 0.83902 -0.93540
v 0.53284 0.74641 -0.92236
v 0.53284 0.74641 -0.93540
v 0.59833 0.68092 -0.91433
v 0.59833 0.68092 -0.93540
v 0.69094 0.68092 -0.89900
v 0.69094 0.68092 -0.93540
v 0.75642 0.74641 -0.88273
v 0.75642 0.74641 -0.93540
v 0.69094 0.45944 -0.89900
v 0.69094 0.45944 -0.93540
v 0.75642 0.39395 -0.93540
v 0.75642 0.39395 -0.88273
v 0.59833 0.45944 -0.91433
v 0.59833 0.45944 -0.93540
v 0.53284 0.39395 -0.92236
v 0.53284 0.39395 -0.93540
v 0.53284 0.30134 -0.92236
v 0.53284 0.30134 -0.93540
v 0.59833 0.23585 -0.91433
v 0.59833 0.23585 -0.93540
v 0.69094 0.23585 -0.89900
v 0.69094 0.23585 -0.93540
v 0.75642 0.30134 -0.88273
v 0.75642 0.30134 -0.93540
v 0.56887 1.14117 -0.89336
v 1.02396 1.14117 -0.89336
v 1.02396 1.93236 -0.89336
v 0.56887 1.93236 -0.89336
v -0.75665 0.23562 -0.93540
v -0.53261 0.23562 -0.93540
v -0.53261 0.45967 -0.93540
v -0.75665 0.45967 -0.93540
v 0.53261 0.23562 -0.93540
v 0.75665 0.23562 -0.93540
v 0.75665 0.45967 -0.93540
v 0.53261 0.45967 -0.93540
v -0.75665 0.68069 -0.93540
v -0.53261 0.68069 -0.93540
v -0.53261 0.90473 -0.93540
v -0.75665 0.90473 -0.93540
v 0.53261 0.68069 -0.93540
v 0.75665 0.68069 -0.93540
v 0.75665 0.90473 -0.93540
v 0.53261 0.90473 -0.93540
vt 0.999846 0.000000
vt 0.000379 0.000000
vt 0.000379 1.000000
vt 0.999846 1.000000
vt 0.000000 0.000000
vt 1.000000 0.000000
vt 1.000000 1.000000
vt 0.000000 1.000000
vt 0.000154 1.000000
vt 0.999621 1.000000
vt 0.999621 0.000000
vt 0.000154 0.000000
vt 0.999846 0.422000
vt 0.000379 0.422000
vt 0.000379 0.500000
vt 0.999846 0.500000
vt 0.999846 0.352000
vt 0.000379 0.352000
vt 0.999846 0.291000
vt 0.000379 0.291000
vt 0.999846 0.228000
vt 0.000379 0.228000
vt 0.999846 0.174000
vt 0.000379 0.174000
vt 0.999846 0.116000
vt 0.000379 0.116000
vt 0.999846 0.066000
vt 0.000379 0.066000
vt 0.999846 0.025000
vt 0.000379 0.025000
vt 0.000379 0.578000
vt 0.999846 0.578000
vt 0.000379 0.648000
vt 0.999846 0.648000
vt 0.000379 0.709000
vt 0.999846 0.709000
vt 0.000379 0.772000
vt 0.999846 0.772000
vt 0.000379 0.826000
vt 0.999846 0.826000
vt 0.000379 0.884000
vt 0.999846 0.884000
vt 0.000379 0.934000
vt 0.999846 0.934000
vt 0.000379 0.975000
vt 0.999846 0.975000
vt 0.986133 0.000000
vt 0.013867 0.000000
vt 0.013867 0.023800
vt 0.986133 0.023800
vt 0.986133 0.924851
vt 0.013867 0.924851
vt 0.013867 1.000000
vt 0.986133 1.000000
vt 0.986133 0.422000
vt 0.013867 0.422000
vt 0.013867 0.500000
vt 0.986133 0.500000
vt 0.986133 0.352000
vt 0.013867 0.352000
vt 0.986133 0.291000
vt 0.013867 0.291000
vt 0.986133 0.228000
vt 0.013867 0.228000
vt 0.986133 0.174000
vt 0.013867 0.174000
vt 0.986133 0.116000
vt 0.013867 0.116000
vt 0.986133 0.066000
vt 0.013867 0.066000
vt 0.986133 0.025000
vt 0.013867 0.025000
vt 0.013867 0.578000
vt 0.986133 0.578000
vt 0.013867 0.648000
vt 0.986133 0.648000
vt 0.013867 0.709000
vt 0.986133 0.709000
vt 0.013867 0.772000
vt 0.986133 0.772000
vt 0.013867 0.826000
vt 0.986133 0.826000
vt 0.013867 0.884000
vt 0.986133 0.884000
vt 0.013867 0.934000
vt 0.986133 0.934000
vt 0.013867 0.975000
vt 0.986133 0.975000
vt 0.999562 0.000000
vt 0.999562 1.000000
vt 0.000438 1.000000
vt 0.000438 0.000000
vt 0.999562 0.422000
vt 0.000000 0.422000
vt 0.000000 0.500000
vt 0.999562 0.500000
vt 0.999562 0.352000
vt 0.000000 0.352000
vt 0.999562 0.291000
vt 0.000000 0.291000
vt 0.999562 0.228000
vt 0.000000 0.228000
vt 0.999562 0.174000
vt 0.000000 0.174000
vt 0.999562 0.116000
vt 0.000000 0.116000
vt 0.999562 0.066000
vt 0.000000 0.066000
vt 0.999562 0.025000
vt 0.000000 0.025000
vt 0.000000 0.578000
vt 0.999562 0.578000
vt 0.000000 0.648000
vt 0.999562 0.648000
vt 0.000000 0.709000
vt 0.999562 0.709000
vt 0.000000 0.772000
vt 0.999562 0.772000
vt 0.000000 0.826000
vt 0.999562 0.826000
vt 0.000000 0.884000
vt 0.999562 0.884000
vt 0.000000 0.934000
vt 0.999562 0.934000
vt 0.000000 0.975000
vt 0.999562 0.975000
vt 0.106471 0.000000
vt 0.106471 1.000000
vt 0.491471 0.000000
vt 0.491471 1.000000
vt 0.834706 0.000000
vt 0.834706 1.000000
vt 0.658980 0.171711
vt 0.674886 0.172642
vt 0.674886 0.999358
vt 0.658980 0.999358
vt 0.745298 0.177835
vt 0.745298 0.999358
vt 0.771654 0.180173
vt 0.771654 0.999358
vt 0.804763 0.184544
vt 0.804763 0.999358
vt 0.858811 0.193461
vt 0.858811 0.999358
vt 0.870254 0.195563
vt 0.870254 0.999358
vt 0.908740 0.204408
vt 0.908740 0.999358
vt 0.941162 0.210956
vt 0.941162 0.999358
vt 0.953253 0.213378
vt 0.953253 0.999358
vt 0.955046 0.213737
vt 0.955046 0.999358
vt 0.000000 0.213737
vt 0.142494 0.212531
vt 0.142494 0.999358
vt 0.000000 0.999358
vt 0.296862 0.211224
vt 0.296862 0.999358
vt 0.610687 0.208567
vt 0.610687 0.999358
vt 0.661578 0.208105
vt 0.661578 0.999358
vt 1.000000 0.205028
vt 1.000000 0.999358
vt 0.341020 0.999358
vt 0.325114 0.999358
vt 0.325114 0.172642
vt 0.341020 0.171711
vt 0.254702 0.999358
vt 0.254702 0.177835
vt 0.228346 0.999358
vt 0.228346 0.180173
vt 0.195237 0.999358
vt 0.195237 0.184544
vt 0.141189 0.999358
vt 0.141189 0.193461
vt 0.129746 0.999358
vt 0.129746 0.195563
vt 0.091260 0.999358
vt 0.091260 0.204408
vt 0.058838 0.999358
vt 0.058838 0.210956
vt 0.046747 0.999358
vt 0.046747 0.213378
vt 0.044954 0.999358
vt 0.044954 0.213737
vt 0.500000 0.117745
vt 0.589483 0.119261
vt 0.589483 0.169664
vt 0.500000 0.167924
vt 0.500000 0.075928
vt 0.589483 0.077258
vt 0.500000 0.037457
vt 0.589483 0.038616
vt 0.500000 0.012368
vt 0.589483 0.013414
vt 0.500000 0.000659
vt 0.589483 0.001653
vt 0.658980 0.122344
vt 0.658980 0.081205
vt 0.658980 0.043357
vt 0.658980 0.018674
vt 0.658980 0.007155
vt 0.674886 0.123374
vt 0.674886 0.082317
vt 0.674886 0.044544
vt 0.674886 0.019910
vt 0.674886 0.008414
vt 0.745298 0.131972
vt 0.745298 0.093752
vt 0.745298 0.058591
vt 0.745298 0.035659
vt 0.745298 0.024958
vt 0.771654 0.136739
vt 0.771654 0.100544
vt 0.771654 0.067244
vt 0.771654 0.045527
vt 0.771654 0.035392
vt 0.804763 0.143731
vt 0.804763 0.109720
vt 0.804763 0.078430
vt 0.804763 0.058023
vt 0.804763 0.048500
vt 0.858811 0.158193
vt 0.858811 0.128803
vt 0.858811 0.101764
vt 0.858811 0.084130
vt 0.858811 0.075901
vt 0.870254 0.161956
vt 0.870254 0.133949
vt 0.870254 0.108184
vt 0.870254 0.091380
vt 0.870254 0.083538
vt 0.908740 0.175854
vt 0.908740 0.152058
vt 0.908740 0.130166
vt 0.908740 0.115889
vt 0.908740 0.109226
vt 0.941162 0.189075
vt 0.941162 0.170840
vt 0.941162 0.154065
vt 0.941162 0.143124
vt 0.941162 0.138018
vt 0.953253 0.193991
vt 0.953253 0.177836
vt 0.953253 0.162973
vt 0.953253 0.153280
vt 0.953253 0.148756
vt 0.955046 0.194816
vt 0.955046 0.179048
vt 0.955046 0.164541
vt 0.955046 0.155081
vt 0.955046 0.150666
vt 0.000000 0.194816
vt 0.142494 0.196019
vt 0.000000 0.179048
vt 0.142494 0.182260
vt 0.000000 0.164541
vt 0.142494 0.169601
vt 0.000000 0.155081
vt 0.142494 0.161345
vt 0.000000 0.150666
vt 0.142494 0.157492
vt 0.296862 0.197323
vt 0.296862 0.185739
vt 0.296862 0.175082
vt 0.296862 0.168131
vt 0.296862 0.164888
vt 0.610687 0.199974
vt 0.610687 0.192812
vt 0.610687 0.186224
vt 0.610687 0.181927
vt 0.610687 0.179922
vt 0.661578 0.200381
vt 0.661578 0.193945
vt 0.661578 0.188024
vt 0.661578 0.184162
vt 0.661578 0.182360
vt 0.410517 0.169664
vt 0.410517 0.119261
vt 0.410517 0.077258
vt 0.410517 0.038616
vt 0.410517 0.013414
vt 0.410517 0.001653
vt 0.341020 0.122344
vt 0.341020 0.081205
vt 0.341020 0.043357
vt 0.341020 0.018674
vt 0.341020 0.007155
vt 0.325114 0.123374
vt 0.325114 0.082317
vt 0.325114 0.044544
vt 0.325114 0.019910
vt 0.325114 0.008414
vt 0.254702 0.131972
vt 0.254702 0.093752
vt 0.254702 0.058591
vt 0.254702 0.035659
vt 0.254702 0.024958
vt 0.228346 0.136739
vt 0.228346 0.100544
vt 0.228346 0.067244
vt 0.228346 0.045527
vt 0.228346 0.035392
vt 0.195237 0.143731
vt 0.195237 0.109720
vt 0.195237 0.078430
vt 0.195237 0.058023
vt 0.195237 0.048500
vt 0.141189 0.158193
vt 0.141189 0.128803
vt 0.141189 0.101764
vt 0.141189 0.084130
vt 0.141189 0.075901
vt 0.129746 0.161956
vt 0.129746 0.133949
vt 0.129746 0.108184
vt 0.129746 0.091380
vt 0.129746 0.083538
vt 0.091260 0.175854
vt 0.091260 0.152058
vt 0.091260 0.130166
vt 0.091260 0.115889
vt 0.091260 0.109226
vt 0.058838 0.189075
vt 0.058838 0.170840
vt 0.058838 0.154065
vt 0.058838 0.143124
vt 0.058838 0.138018
vt 0.046747 0.193991
vt 0.046747 0.177836
vt 0.046747 0.162973
vt 0.046747 0.153280
vt 0.046747 0.148756
vt 0.044954 0.194816
vt 0.044954 0.179048
vt 0.044954 0.164541
vt 0.044954 0.155081
vt 0.044954 0.150666
vt 0.658980 0.221094
vt 0.341020 0.221094
vt 0.341020 0.167924
vt 0.658980 0.167924
vt 0.500000 0.221094
vt 0.304809 0.593491
vt 0.266183 0.593491
vt 0.266183 0.214565
vt 0.304809 0.214565
vt 0.076613 0.593491
vt 0.044954 0.593491
vt 0.044954 0.214565
vt 0.076613 0.214565
vt 0.266183 0.250920
vt 0.076613 0.250920
vt 0.076613 0.557136
vt 0.266183 0.557136
vt 0.949425 0.554518
vt 0.910800 0.554518
vt 0.910800 0.278989
vt 0.949425 0.278989
vt 0.738012 0.554518
vt 0.699387 0.554518
vt 0.699387 0.278989
vt 0.738012 0.278989
vt 0.910800 0.315345
vt 0.738012 0.315345
vt 0.738012 0.518163
vt 0.910800 0.518163
vt 0.746512 0.648598
vt 0.719532 0.673993
vt 0.784668 0.648598
vt 0.811648 0.673993
vt 0.811648 0.709907
vt 0.784668 0.735301
vt 0.746512 0.735301
vt 0.719532 0.709907
vt 0.746512 0.821192
vt 0.719532 0.846587
vt 0.784668 0.821192
vt 0.811648 0.846587
vt 0.811648 0.882501
vt 0.784668 0.907895
vt 0.746512 0.907895
vt 0.719532 0.882501
vt 0.215332 0.648598
vt 0.188352 0.673993
vt 0.253488 0.648598
vt 0.280468 0.673993
vt 0.280468 0.709907
vt 0.253488 0.735301
vt 0.215332 0.735301
vt 0.188352 0.709907
vt 0.215332 0.821192
vt 0.188352 0.846587
vt 0.253488 0.821192
vt 0.280468 0.846587
vt 0.280468 0.882501
vt 0.253488 0.907895
vt 0.215332 0.907895
vt 0.188352 0.882501

g panel_exterior
usemtl r62_side_panel_a
f 4/4 3/3 2/2 1/1
usemtl r62_glass#interior_translucent
f 8/8 7/7 6/6 5/5
f 12/8 11/7 10/6 9/5
usemtl r62_side_panel_b
f 16/12 15/11 14/10 13/9
usemtl r62_glass#interior_translucent
f 20/5 19/6 18/7 17/8
f 24/5 23/6 22/7 21/8
usemtl r62_roof_panel
f 28/16 27/15 26/14 25/13
f 25/13 26/14 30/18 29/17
f 29/17 30/18 32/20 31/19
f 31/19 32/20 34/22 33/21
f 33/21 34/22 36/24 35/23
f 35/23 36/24 38/26 37/25
f 37/25 38/26 40/28 39/27
f 39/27 40/28 42/30 41/29
f 41/29 42/30 15/2 16/1
f 44/32 43/31 27/15 28/16
f 46/34 45/33 43/31 44/32
f 48/36 47/35 45/33 46/34
f 50/38 49/37 47/35 48/36
f 52/40 51/39 49/37 50/38
f 54/42 53/41 51/39 52/40
f 56/44 55/43 53/41 54/42
f 58/46 57/45 55/43 56/44
f 1/4 2/3 57/45 58/46
usemtl r62_underframe
f 62/5 61/6 60/7 59/8
f 66/8 65/7 64/6 63/5
usemtl r62_underframe_lo
f 13/5 14/8 3/7 4/6
f 59/5 60/8 65/7 66/6
usemtl r62_sign
f 70/8 69/7 68/6 67/5
usemtl r62_case
f 72/5 68/5 69/5 71/5
f 74/5 70/5 67/5 73/5
f 67/5 68/5 72/5 73/5
f 74/5 71/5 69/5 70/5
g door_exterior
usemtl r62_side_door_a
f 78/50 77/49 76/48 75/47
f 82/54 81/53 80/52 79/51
usemtl r62_reveal
f 84/5 80/5 77/5 83/5
f 86/5 78/5 79/5 85/5
f 86/5 83/5 77/5 78/5
usemtl r62_threshold
f 90/8 89/7 88/6 87/5
f 94/5 93/6 92/7 91/8
f 87/8 88/7 93/6 94/5
f 91/5 92/6 89/7 90/8
f 93/8 88/7 89/6 92/5
f 91/5 90/6 87/7 94/8
usemtl r62_side_door_a
f 98/48 97/47 96/50 95/49
f 102/52 101/51 100/54 99/53
usemtl r62_reveal
f 104/5 96/5 101/5 103/5
f 106/5 102/5 95/5 105/5
f 95/5 96/5 104/5 105/5
usemtl r62_threshold
f 110/8 109/7 108/6 107/5
f 114/5 113/6 112/7 111/8
f 107/8 108/7 113/6 114/5
f 111/5 112/6 109/7 110/8
f 113/8 108/7 109/6 112/5
f 111/5 110/6 107/7 114/8
usemtl r62_roof_door
f 118/58 117/57 116/56 115/55
f 115/55 116/56 120/60 119/59
f 119/59 120/60 122/62 121/61
f 121/61 122/62 124/64 123/63
f 123/63 124/64 126/66 125/65
f 125/65 126/66 128/68 127/67
f 127/67 128/68 130/70 129/69
f 129/69 130/70 132/72 131/71
f 131/71 132/72 97/48 98/47
f 134/74 133/73 117/57 118/58
f 136/76 135/75 133/73 134/74
f 138/78 137/77 135/75 136/76
f 140/80 139/79 137/77 138/78
f 142/82 141/81 139/79 140/80
f 144/84 143/83 141/81 142/82
f 146/86 145/85 143/83 144/84
f 148/88 147/87 145/85 146/86
f 75/54 76/53 147/87 148/88
usemtl r62_underframe
f 152/5 151/6 150/7 149/8
f 156/8 155/7 154/6 153/5
usemtl r62_underframe_lo
f 99/5 100/8 81/7 82/6
f 149/5 150/8 155/7 156/6
g end_exterior
usemtl r62_side_end_a
f 160/90 159/8 158/5 157/89
usemtl r62_glass#interior_translucent
f 164/8 163/7 162/6 161/5
usemtl r62_side_end_b
f 168/92 167/6 166/7 165/91
usemtl r62_glass#interior_translucent
f 172/5 171/6 170/7 169/8
usemtl r62_roof_end
f 176/96 175/95 174/94 173/93
f 173/93 174/94 178/98 177/97
f 177/97 178/98 180/100 179/99
f 179/99 180/100 182/102 181/101
f 181/101 182/102 184/104 183/103
f 183/103 184/104 186/106 185/105
f 185/105 186/106 188/108 187/107
f 187/107 188/108 190/110 189/109
f 189/109 190/110 167/5 168/89
f 192/112 191/111 175/95 176/96
f 194/114 193/113 191/111 192/112
f 196/116 195/115 193/113 194/114
f 198/118 197/117 195/115 196/116
f 200/120 199/119 197/117 198/118
f 202/122 201/121 199/119 200/120
f 204/124 203/123 201/121 202/122
f 206/126 205/125 203/123 204/124
f 157/90 158/8 205/125 206/126
usemtl r62_underframe
f 210/5 209/6 208/7 207/8
f 214/8 213/7 212/6 211/5
usemtl r62_underframe_lo
f 165/5 166/8 159/7 160/6
f 207/5 208/8 213/7 214/6
f 209/5 212/5 213/5 208/5
usemtl r62_vent
f 218/5 217/8 216/128 215/127
f 220/8 219/128 216/127 217/5
f 218/5 215/127 222/128 221/8
f 215/127 216/128 224/130 223/129
f 219/128 225/130 224/129 216/127
f 215/127 223/129 226/130 222/128
f 223/129 224/130 228/132 227/131
f 225/130 229/132 228/131 224/129
f 223/129 227/131 230/132 226/130
f 227/131 228/132 232/7 231/6
f 229/132 233/7 232/6 228/131
f 227/131 231/6 234/7 230/132
f 231/5 232/6 233/7 234/8
f 221/8 220/7 217/6 218/5
f 238/127 237/128 236/8 235/5
f 236/5 237/127 240/128 239/8
f 242/8 241/128 238/127 235/5
f 244/129 243/130 237/128 238/127
f 237/127 243/129 245/130 240/128
f 241/128 246/130 244/129 238/127
f 248/131 247/132 243/130 244/129
f 243/129 247/131 249/132 245/130
f 246/130 250/132 248/131 244/129
f 252/6 251/7 247/132 248/131
f 247/131 251/6 253/7 249/132
f 250/132 254/7 252/6 248/131
f 254/8 253/7 251/6 252/5
f 235/5 236/6 239/7 242/8
f 218/5 217/8 216/128 215/127
f 220/8 219/128 216/127 217/5
f 218/5 215/127 222/128 221/8
f 215/127 216/128 224/130 223/129
f 219/128 225/130 224/129 216/127
f 215/127 223/129 226/130 222/128
f 223/129 224/130 228/132 227/131
f 225/130 229/132 228/131 224/129
f 223/129 227/131 230/132 226/130
f 227/131 228/132 232/7 231/6
f 229/132 233/7 232/6 228/131
f 227/131 231/6 234/7 230/132
f 231/5 232/6 233/7 234/8
f 221/8 220/7 217/6 218/5
f 238/127 237/128 236/8 235/5
f 236/5 237/127 240/128 239/8
f 242/8 241/128 238/127 235/5
f 244/129 243/130 237/128 238/127
f 237/127 243/129 245/130 240/128
f 241/128 246/130 244/129 238/127
f 248/131 247/132 243/130 244/129
f 243/129 247/131 249/132 245/130
f 246/130 250/132 248/131 244/129
f 252/6 251/7 247/132 248/131
f 247/131 251/6 253/7 249/132
f 250/132 254/7 252/6 248/131
f 254/8 253/7 251/6 252/5
f 235/5 236/6 239/7 242/8
usemtl r62_front
f 258/136 257/135 256/134 255/133
f 257/135 260/138 259/137 256/134
f 260/138 262/140 261/139 259/137
f 262/140 264/142 263/141 261/139
f 264/142 266/144 265/143 263/141
f 266/144 268/146 267/145 265/143
f 268/146 270/148 269/147 267/145
f 270/148 272/150 271/149 269/147
f 272/150 274/152 273/151 271/149
f 274/152 276/154 275/153 273/151
usemtl r62_corner
f 276/158 278/157 277/156 275/155
f 278/157 280/160 279/159 277/156
f 280/160 282/162 281/161 279/159
f 282/162 284/164 283/163 281/161
f 284/164 285/166 167/165 283/163
usemtl r62_front
f 289/170 288/169 287/168 286/167
f 288/169 291/172 290/171 287/168
f 291/172 293/174 292/173 290/171
f 293/174 295/176 294/175 292/173
f 295/176 297/178 296/177 294/175
f 297/178 299/180 298/179 296/177
f 299/180 301/182 300/181 298/179
f 301/182 303/184 302/183 300/181
f 303/184 305/186 304/185 302/183
f 305/186 307/188 306/187 304/185
usemtl r62_corner
f 307/155 309/156 308/157 306/158
f 309/156 311/159 310/160 308/157
f 311/159 313/161 312/162 310/160
f 313/161 315/163 314/164 312/162
f 315/163 158/165 316/166 314/164
usemtl r62_front
f 320/192 319/191 318/190 317/189
f 317/189 318/190 322/194 321/193
f 321/193 322/194 324/196 323/195
f 323/195 324/196 326/198 325/197
f 325/197 326/198 174/200 175/199
f 319/191 255/133 327/201 318/190
f 318/190 327/201 328/202 322/194
f 322/194 328/202 329/203 324/196
f 324/196 329/203 330/204 326/198
f 326/198 330/204 331/205 174/200
f 255/133 256/134 332/206 327/201
f 327/201 332/206 333/207 328/202
f 328/202 333/207 334/208 329/203
f 329/203 334/208 335/209 330/204
f 330/204 335/209 178/210 331/205
f 256/134 259/137 336/211 332/206
f 332/206 336/211 337/212 333/207
f 333/207 337/212 338/213 334/208
f 334/208 338/213 339/214 335/209
f 335/209 339/214 180/215 178/210
f 259/137 261/139 340/216 336/211
f 336/211 340/216 341/217 337/212
f 337/212 341/217 342/218 338/213
f 338/213 342/218 343/219 339/214
f 339/214 343/219 344/220 180/215
f 261/139 263/141 345/221 340/216
f 340/216 345/221 346/222 341/217
f 341/217 346/222 347/223 342/218
f 342/218 347/223 348/224 343/219
f 343/219 348/224 182/225 344/220
f 263/141 265/143 349/226 345/221
f 345/221 349/226 350/227 346/222
f 346/222 350/227 351/228 347/223
f 347/223 351/228 352/229 348/224
f 348/224 352/229 184/230 182/225
f 265/143 267/145 353/231 349/226
f 349/226 353/231 354/232 350/227
f 350/227 354/232 355/233 351/228
f 351/228 355/233 356/234 352/229
f 352/229 356/234 357/235 184/230
f 267/145 269/147 358/236 353/231
f 353/231 358/236 359/237 354/232
f 354/232 359/237 360/238 355/233
f 355/233 360/238 361/239 356/234
f 356/234 361/239 186/240 357/235
f 269/147 271/149 362/241 358/236
f 358/236 362/241 363/242 359/237
f 359/237 363/242 364/243 360/238
f 360/238 364/243 365/244 361/239
f 361/239 365/244 366/245 186/240
f 271/149 273/151 367/246 362/241
f 362/241 367/246 368/247 363/242
f 363/242 368/247 369/248 364/243
f 364/243 369/248 370/249 365/244
f 365/244 370/249 188/250 366/245
f 273/151 275/153 371/251 367/246
f 367/246 371/251 372/252 368/247
f 368/247 372/252 373/253 369/248
f 369/248 373/253 374/254 370/249
f 370/249 374/254 375/255 188/250
usemtl r62_corner
f 275/155 277/156 376/257 371/256
f 371/256 376/257 377/259 372/258
f 372/258 377/259 378/261 373/260
f 373/260 378/261 379/263 374/262
f 374/262 379/263 380/265 375/264
f 277/156 279/159 381/266 376/257
f 376/257 381/266 382/267 377/259
f 377/259 382/267 383/268 378/261
f 378/261 383/268 384/269 379/263
f 379/263 384/269 385/270 380/265
f 279/159 281/161 386/271 381/266
f 381/266 386/271 387/272 382/267
f 382/267 387/272 388/273 383/268
f 383/268 388/273 389/274 384/269
f 384/269 389/274 390/275 385/270
f 281/161 283/163 391/276 386/271
f 386/271 391/276 392/277 387/272
f 387/272 392/277 393/278 388/273
f 388/273 393/278 394/279 389/274
f 389/274 394/279 190/280 390/275
f 283/163 167/165 167/165 391/276
f 391/276 167/165 167/165 392/277
f 392/277 167/165 167/165 393/278
f 393/278 167/165 167/165 394/279
f 394/279 167/165 167/165 190/280
usemtl r62_front
f 317/189 396/282 395/281 320/192
f 321/193 397/283 396/282 317/189
f 323/195 398/284 397/283 321/193
f 325/197 399/285 398/284 323/195
f 175/199 191/286 399/285 325/197
f 396/282 400/287 289/170 395/281
f 397/283 401/288 400/287 396/282
f 398/284 402/289 401/288 397/283
f 399/285 403/290 402/289 398/284
f 191/286 404/291 403/290 399/285
f 400/287 405/292 288/169 289/170
f 401/288 406/293 405/292 400/287
f 402/289 407/294 406/293 401/288
f 403/290 408/295 407/294 402/289
f 404/291 193/296 408/295 403/290
f 405/292 409/297 291/172 288/169
f 406/293 410/298 409/297 405/292
f 407/294 411/299 410/298 406/293
f 408/295 412/300 411/299 407/294
f 193/296 195/301 412/300 408/295
f 409/297 413/302 293/174 291/172
f 410/298 414/303 413/302 409/297
f 411/299 415/304 414/303 410/298
f 412/300 416/305 415/304 411/299
f 195/301 417/306 416/305 412/300
f 413/302 418/307 295/176 293/174
f 414/303 419/308 418/307 413/302
f 415/304 420/309 419/308 414/303
f 416/305 421/310 420/309 415/304
f 417/306 197/311 421/310 416/305
f 418/307 422/312 297/178 295/176
f 419/308 423/313 422/312 418/307
f 420/309 424/314 423/313 419/308
f 421/310 425/315 424/314 420/309
f 197/311 199/316 425/315 421/310
f 422/312 426/317 299/180 297/178
f 423/313 427/318 426/317 422/312
f 424/314 428/319 427/318 423/313
f 425/315 429/320 428/319 424/314
f 199/316 430/321 429/320 425/315
f 426/317 431/322 301/182 299/180
f 427/318 432/323 431/322 426/317
f 428/319 433/324 432/323 427/318
f 429/320 434/325 433/324 428/319
f 430/321 201/326 434/325 429/320
f 431/322 435/327 303/184 301/182
f 432/323 436/328 435/327 431/322
f 433/324 437/329 436/328 432/323
f 434/325 438/330 437/329 433/324
f 201/326 439/331 438/330 434/325
f 435/327 440/332 305/186 303/184
f 436/328 441/333 440/332 435/327
f 437/329 442/334 441/333 436/328
f 438/330 443/335 442/334 437/329
f 439/331 203/336 443/335 438/330
f 440/332 444/337 307/188 305/186
f 441/333 445/338 444/337 440/332
f 442/334 446/339 445/338 441/333
f 443/335 447/340 446/339 442/334
f 203/336 448/341 447/340 443/335
usemtl r62_corner
f 444/256 449/257 309/156 307/155
f 445/258 450/259 449/257 444/256
f 446/260 451/261 450/259 445/258
f 447/262 452/263 451/261 446/260
f 448/264 453/265 452/263 447/262
f 449/257 454/266 311/159 309/156
f 450/259 455/267 454/266 449/257
f 451/261 456/268 455/267 450/259
f 452/263 457/269 456/268 451/261
f 453/265 458/270 457/269 452/263
f 454/266 459/271 313/161 311/159
f 455/267 460/272 459/271 454/266
f 456/268 461/273 460/272 455/267
f 457/269 462/274 461/273 456/268
f 458/270 463/275 462/274 457/269
f 459/271 464/276 315/163 313/161
f 460/272 465/277 464/276 459/271
f 461/273 466/278 465/277 460/272
f 462/274 467/279 466/278 461/273
f 463/275 205/280 467/279 462/274
f 464/276 158/165 158/165 315/163
f 465/277 158/165 158/165 464/276
f 466/278 158/165 158/165 465/277
f 467/279 158/165 158/165 466/278
f 205/280 158/165 158/165 467/279
usemtl r62_front
f 471/345 470/344 469/343 468/342
f 473/136 258/136 468/342 472/342
f 475/343 469/343 286/167 474/167
f 472/346 468/346 469/346 475/346
f 472/342 475/343 474/167 473/136
usemtl r62_glass#interior_translucent
f 479/5 478/6 477/7 476/8
usemtl r62_chain
f 483/8 482/7 481/6 480/5
f 487/5 486/6 485/7 484/8
f 489/5 481/6 482/7 488/8
f 491/8 485/7 486/6 490/5
f 495/8 494/7 493/6 492/5
f 499/5 498/6 497/7 496/8
f 501/5 493/6 494/7 500/8
f 503/8 497/7 498/6 502/5
f 507/8 506/7 505/6 504/5
f 511/5 510/6 509/7 508/8
f 513/5 505/6 506/7 512/8
f 515/8 509/7 510/6 514/5
f 519/8 518/7 517/6 516/5
f 523/5 522/6 521/7 520/8
f 516/8 517/7 522/6 523/5
f 520/5 521/6 518/7 519/8
f 522/8 517/7 518/6 521/5
f 520/5 519/6 516/7 523/8
usemtl r62_apron
f 527/8 526/7 525/6 524/5
f 531/5 530/6 529/7 528/8
f 524/8 525/7 530/6 531/5
f 528/5 529/6 526/7 527/8
f 530/8 525/7 526/6 529/5
f 528/5 527/6 524/7 531/8
f 535/5 534/6 533/7 532/8
f 532/5 533/6 537/7 536/8
f 536/5 537/6 539/7 538/8
f 538/5 539/6 541/7 540/8
f 540/5 541/6 543/7 542/8
f 542/5 543/6 545/7 544/8
f 544/5 545/6 547/7 546/8
f 546/5 547/6 534/7 535/8
f 539/5 537/5 533/5 534/5
f 547/5 541/5 539/5 534/5
f 547/5 545/5 543/5 541/5
f 551/5 550/6 549/7 548/8
f 548/5 549/6 553/7 552/8
f 552/5 553/6 555/7 554/8
f 554/5 555/6 557/7 556/8
f 556/5 557/6 559/7 558/8
f 558/5 559/6 561/7 560/8
f 560/5 561/6 563/7 562/8
f 562/5 563/6 550/7 551/8
f 555/5 553/5 549/5 550/5
f 563/5 557/5 555/5 550/5
f 563/5 561/5 559/5 557/5
usemtl r62_coupler
f 567/8 566/7 565/6 564/5
f 571/5 570/6 569/7 568/8
f 564/8 565/7 570/6 571/5
f 568/5 569/6 566/7 567/8
f 570/8 565/7 566/6 569/5
f 568/5 567/6 564/7 571/8
f 575/8 574/7 573/6 572/5
f 579/5 578/6 577/7 576/8
f 572/8 573/7 578/6 579/5
f 576/5 577/6 574/7 575/8
f 578/8 573/7 574/6 577/5
f 576/5 575/6 572/7 579/8
f 583/8 582/7 581/6 580/5
f 587/5 586/6 585/7 584/8
f 580/8 581/7 586/6 587/5
f 584/5 585/6 582/7 583/8
f 586/8 581/7 582/6 585/5
f 584/5 583/6 580/7 587/8
f 591/8 590/7 589/6 588/5
f 595/5 594/6 593/7 592/8
f 588/8 589/7 594/6 595/5
f 592/5 593/6 590/7 591/8
f 594/8 589/7 590/6 593/5
f 592/5 591/6 588/7 595/8
usemtl r62_front
f 599/350 598/349 597/348 596/347
f 601/350 599/350 596/347 600/347
f 603/348 597/348 598/349 602/349
f 607/354 606/353 605/352 604/351
f 609/354 607/354 604/351 608/351
f 611/352 605/352 606/353 610/353
f 615/349 614/354 613/356 612/355
f 602/349 615/349 612/355 616/355
f 617/356 613/356 614/354 609/354
f 621/358 620/357 619/351 618/348
f 622/358 621/358 618/348 603/348
f 608/351 619/351 620/357 623/357
f 627/362 626/361 625/360 624/359
f 629/362 627/362 624/359 628/359
f 631/360 625/360 626/361 630/361
f 635/366 634/365 633/364 632/363
f 637/366 635/366 632/363 636/363
f 639/364 633/364 634/365 638/365
f 643/361 642/366 641/368 640/367
f 630/361 643/361 640/367 644/367
f 645/368 641/368 642/366 637/366
f 649/370 648/369 647/363 646/360
f 650/370 649/370 646/360 631/360
f 636/363 647/363 648/369 651/369
f 655/372 654/372 653/371 652/371
f 652/371 653/371 657/373 656/373
f 656/373 657/373 659/374 658/374
f 658/374 659/374 661/375 660/375
f 660/375 661/375 663/376 662/376
f 662/376 663/376 665/377 664/377
f 664/377 665/377 667/378 666/378
f 666/378 667/378 654/372 655/372
f 671/380 670/380 669/379 668/379
f 668/379 669/379 673/381 672/381
f 672/381 673/381 675/382 674/382
f 674/382 675/382 677/383 676/383
f 676/383 677/383 679/384 678/384
f 678/384 679/384 681/385 680/385
f 680/385 681/385 683/386 682/386
f 682/386 683/386 670/380 671/380
f 687/388 686/388 685/387 684/387
f 684/387 685/387 689/389 688/389
f 688/389 689/389 691/390 690/390
f 690/390 691/390 693/391 692/391
f 692/391 693/391 695/392 694/392
f 694/392 695/392 697/393 696/393
f 696/393 697/393 699/394 698/394
f 698/394 699/394 686/388 687/388
f 703/396 702/396 701/395 700/395
f 700/395 701/395 705/397 704/397
f 704/397 705/397 707/398 706/398
f 706/398 707/398 709/399 708/399
f 708/399 709/399 711/400 710/400
f 710/400 711/400 713/401 712/401
f 712/401 713/401 715/402 714/402
f 714/402 715/402 702/396 703/396
usemtl r62_glass#interior_translucent
f 719/5 718/6 717/7 716/8
g headlights
usemtl r62_lamp_white#light
f 723/5 722/6 721/7 720/8
f 727/5 726/6 725/7 724/8
g tail_lights
usemtl r62_lamp_red#light
f 731/5 730/6 729/7 728/8
f 735/5 734/6 733/7 732/8
g end_blind_exterior
usemtl r62_side_end_a
f 160/90 159/8 158/5 157/89
usemtl r62_glass#interior_translucent
f 164/8 163/7 162/6 161/5
usemtl r62_side_end_b
f 168/92 167/6 166/7 165/91
usemtl r62_glass#interior_translucent
f 172/5 171/6 170/7 169/8
usemtl r62_roof_end
f 176/96 175/95 174/94 173/93
f 173/93 174/94 178/98 177/97
f 177/97 178/98 180/100 179/99
f 179/99 180/100 182/102 181/101
f 181/101 182/102 184/104 183/103
f 183/103 184/104 186/106 185/105
f 185/105 186/106 188/108 187/107
f 187/107 188/108 190/110 189/109
f 189/109 190/110 167/5 168/89
f 192/112 191/111 175/95 176/96
f 194/114 193/113 191/111 192/112
f 196/116 195/115 193/113 194/114
f 198/118 197/117 195/115 196/116
f 200/120 199/119 197/117 198/118
f 202/122 201/121 199/119 200/120
f 204/124 203/123 201/121 202/122
f 206/126 205/125 203/123 204/124
f 157/90 158/8 205/125 206/126
usemtl r62_underframe
f 210/5 209/6 208/7 207/8
f 214/8 213/7 212/6 211/5
usemtl r62_underframe_lo
f 165/5 166/8 159/7 160/6
f 207/5 208/8 213/7 214/6
f 209/5 212/5 213/5 208/5
usemtl r62_vent
f 218/5 217/8 216/128 215/127
f 220/8 219/128 216/127 217/5
f 218/5 215/127 222/128 221/8
f 215/127 216/128 224/130 223/129
f 219/128 225/130 224/129 216/127
f 215/127 223/129 226/130 222/128
f 223/129 224/130 228/132 227/131
f 225/130 229/132 228/131 224/129
f 223/129 227/131 230/132 226/130
f 227/131 228/132 232/7 231/6
f 229/132 233/7 232/6 228/131
f 227/131 231/6 234/7 230/132
f 231/5 232/6 233/7 234/8
f 221/8 220/7 217/6 218/5
f 238/127 237/128 236/8 235/5
f 236/5 237/127 240/128 239/8
f 242/8 241/128 238/127 235/5
f 244/129 243/130 237/128 238/127
f 237/127 243/129 245/130 240/128
f 241/128 246/130 244/129 238/127
f 248/131 247/132 243/130 244/129
f 243/129 247/131 249/132 245/130
f 246/130 250/132 248/131 244/129
f 252/6 251/7 247/132 248/131
f 247/131 251/6 253/7 249/132
f 250/132 254/7 252/6 248/131
f 254/8 253/7 251/6 252/5
f 235/5 236/6 239/7 242/8
f 218/5 217/8 216/128 215/127
f 220/8 219/128 216/127 217/5
f 218/5 215/127 222/128 221/8
f 215/127 216/128 224/130 223/129
f 219/128 225/130 224/129 216/127
f 215/127 223/129 226/130 222/128
f 223/129 224/130 228/132 227/131
f 225/130 229/132 228/131 224/129
f 223/129 227/131 230/132 226/130
f 227/131 228/132 232/7 231/6
f 229/132 233/7 232/6 228/131
f 227/131 231/6 234/7 230/132
f 231/5 232/6 233/7 234/8
f 221/8 220/7 217/6 218/5
f 238/127 237/128 236/8 235/5
f 236/5 237/127 240/128 239/8
f 242/8 241/128 238/127 235/5
f 244/129 243/130 237/128 238/127
f 237/127 243/129 245/130 240/128
f 241/128 246/130 244/129 238/127
f 248/131 247/132 243/130 244/129
f 243/129 247/131 249/132 245/130
f 246/130 250/132 248/131 244/129
f 252/6 251/7 247/132 248/131
f 247/131 251/6 253/7 249/132
f 250/132 254/7 252/6 248/131
f 254/8 253/7 251/6 252/5
f 235/5 236/6 239/7 242/8
usemtl r62_front_blind
f 258/136 257/135 256/134 255/133
f 257/135 260/138 259/137 256/134
f 260/138 262/140 261/139 259/137
f 262/140 264/142 263/141 261/139
f 264/142 266/144 265/143 263/141
f 266/144 268/146 267/145 265/143
f 268/146 270/148 269/147 267/145
f 270/148 272/150 271/149 269/147
f 272/150 274/152 273/151 271/149
f 274/152 276/154 275/153 273/151
usemtl r62_corner
f 276/158 278/157 277/156 275/155
f 278/157 280/160 279/159 277/156
f 280/160 282/162 281/161 279/159
f 282/162 284/164 283/163 281/161
f 284/164 285/166 167/165 283/163
usemtl r62_front_blind
f 289/170 288/169 287/168 286/167
f 288/169 291/172 290/171 287/168
f 291/172 293/174 292/173 290/171
f 293/174 295/176 294/175 292/173
f 295/176 297/178 296/177 294/175
f 297/178 299/180 298/179 296/177
f 299/180 301/182 300/181 298/179
f 301/182 303/184 302/183 300/181
f 303/184 305/186 304/185 302/183
f 305/186 307/188 306/187 304/185
usemtl r62_corner
f 307/155 309/156 308/157 306/158
f 309/156 311/159 310/160 308/157
f 311/159 313/161 312/162 310/160
f 313/161 315/163 314/164 312/162
f 315/163 158/165 316/166 314/164
usemtl r62_front_blind
f 320/192 319/191 318/190 317/189
f 317/189 318/190 322/194 321/193
f 321/193 322/194 324/196 323/195
f 323/195 324/196 326/198 325/197
f 325/197 326/198 174/200 175/199
f 319/191 255/133 327/201 318/190
f 318/190 327/201 328/202 322/194
f 322/194 328/202 329/203 324/196
f 324/196 329/203 330/204 326/198
f 326/198 330/204 331/205 174/200
f 255/133 256/134 332/206 327/201
f 327/201 332/206 333/207 328/202
f 328/202 333/207 334/208 329/203
f 329/203 334/208 335/209 330/204
f 330/204 335/209 178/210 331/205
f 256/134 259/137 336/211 332/206
f 332/206 336/211 337/212 333/207
f 333/207 337/212 338/213 334/208
f 334/208 338/213 339/214 335/209
f 335/209 339/214 180/215 178/210
f 259/137 261/139 340/216 336/211
f 336/211 340/216 341/217 337/212
f 337/212 341/217 342/218 338/213
f 338/213 342/218 343/219 339/214
f 339/214 343/219 344/220 180/215
f 261/139 263/141 345/221 340/216
f 340/216 345/221 346/222 341/217
f 341/217 346/222 347/223 342/218
f 342/218 347/223 348/224 343/219
f 343/219 348/224 182/225 344/220
f 263/141 265/143 349/226 345/221
f 345/221 349/226 350/227 346/222
f 346/222 350/227 351/228 347/223
f 347/223 351/228 352/229 348/224
f 348/224 352/229 184/230 182/225
f 265/143 267/145 353/231 349/226
f 349/226 353/231 354/232 350/227
f 350/227 354/232 355/233 351/228
f 351/228 355/233 356/234 352/229
f 352/229 356/234 357/235 184/230
f 267/145 269/147 358/236 353/231
f 353/231 358/236 359/237 354/232
f 354/232 359/237 360/238 355/233
f 355/233 360/238 361/239 356/234
f 356/234 361/239 186/240 357/235
f 269/147 271/149 362/241 358/236
f 358/236 362/241 363/242 359/237
f 359/237 363/242 364/243 360/238
f 360/238 364/243 365/244 361/239
f 361/239 365/244 366/245 186/240
f 271/149 273/151 367/246 362/241
f 362/241 367/246 368/247 363/242
f 363/242 368/247 369/248 364/243
f 364/243 369/248 370/249 365/244
f 365/244 370/249 188/250 366/245
f 273/151 275/153 371/251 367/246
f 367/246 371/251 372/252 368/247
f 368/247 372/252 373/253 369/248
f 369/248 373/253 374/254 370/249
f 370/249 374/254 375/255 188/250
usemtl r62_corner
f 275/155 277/156 376/257 371/256
f 371/256 376/257 377/259 372/258
f 372/258 377/259 378/261 373/260
f 373/260 378/261 379/263 374/262
f 374/262 379/263 380/265 375/264
f 277/156 279/159 381/266 376/257
f 376/257 381/266 382/267 377/259
f 377/259 382/267 383/268 378/261
f 378/261 383/268 384/269 379/263
f 379/263 384/269 385/270 380/265
f 279/159 281/161 386/271 381/266
f 381/266 386/271 387/272 382/267
f 382/267 387/272 388/273 383/268
f 383/268 388/273 389/274 384/269
f 384/269 389/274 390/275 385/270
f 281/161 283/163 391/276 386/271
f 386/271 391/276 392/277 387/272
f 387/272 392/277 393/278 388/273
f 388/273 393/278 394/279 389/274
f 389/274 394/279 190/280 390/275
f 283/163 167/165 167/165 391/276
f 391/276 167/165 167/165 392/277
f 392/277 167/165 167/165 393/278
f 393/278 167/165 167/165 394/279
f 394/279 167/165 167/165 190/280
usemtl r62_front_blind
f 317/189 396/282 395/281 320/192
f 321/193 397/283 396/282 317/189
f 323/195 398/284 397/283 321/193
f 325/197 399/285 398/284 323/195
f 175/199 191/286 399/285 325/197
f 396/282 400/287 289/170 395/281
f 397/283 401/288 400/287 396/282
f 398/284 402/289 401/288 397/283
f 399/285 403/290 402/289 398/284
f 191/286 404/291 403/290 399/285
f 400/287 405/292 288/169 289/170
f 401/288 406/293 405/292 400/287
f 402/289 407/294 406/293 401/288
f 403/290 408/295 407/294 402/289
f 404/291 193/296 408/295 403/290
f 405/292 409/297 291/172 288/169
f 406/293 410/298 409/297 405/292
f 407/294 411/299 410/298 406/293
f 408/295 412/300 411/299 407/294
f 193/296 195/301 412/300 408/295
f 409/297 413/302 293/174 291/172
f 410/298 414/303 413/302 409/297
f 411/299 415/304 414/303 410/298
f 412/300 416/305 415/304 411/299
f 195/301 417/306 416/305 412/300
f 413/302 418/307 295/176 293/174
f 414/303 419/308 418/307 413/302
f 415/304 420/309 419/308 414/303
f 416/305 421/310 420/309 415/304
f 417/306 197/311 421/310 416/305
f 418/307 422/312 297/178 295/176
f 419/308 423/313 422/312 418/307
f 420/309 424/314 423/313 419/308
f 421/310 425/315 424/314 420/309
f 197/311 199/316 425/315 421/310
f 422/312 426/317 299/180 297/178
f 423/313 427/318 426/317 422/312
f 424/314 428/319 427/318 423/313
f 425/315 429/320 428/319 424/314
f 199/316 430/321 429/320 425/315
f 426/317 431/322 301/182 299/180
f 427/318 432/323 431/322 426/317
f 428/319 433/324 432/323 427/318
f 429/320 434/325 433/324 428/319
f 430/321 201/326 434/325 429/320
f 431/322 435/327 303/184 301/182
f 432/323 436/328 435/327 431/322
f 433/324 437/329 436/328 432/323
f 434/325 438/330 437/329 433/324
f 201/326 439/331 438/330 434/325
f 435/327 440/332 305/186 303/184
f 436/328 441/333 440/332 435/327
f 437/329 442/334 441/333 436/328
f 438/330 443/335 442/334 437/329
f 439/331 203/336 443/335 438/330
f 440/332 444/337 307/188 305/186
f 441/333 445/338 444/337 440/332
f 442/334 446/339 445/338 441/333
f 443/335 447/340 446/339 442/334
f 203/336 448/341 447/340 443/335
usemtl r62_corner
f 444/256 449/257 309/156 307/155
f 445/258 450/259 449/257 444/256
f 446/260 451/261 450/259 445/258
f 447/262 452/263 451/261 446/260
f 448/264 453/265 452/263 447/262
f 449/257 454/266 311/159 309/156
f 450/259 455/267 454/266 449/257
f 451/261 456/268 455/267 450/259
f 452/263 457/269 456/268 451/261
f 453/265 458/270 457/269 452/263
f 454/266 459/271 313/161 311/159
f 455/267 460/272 459/271 454/266
f 456/268 461/273 460/272 455/267
f 457/269 462/274 461/273 456/268
f 458/270 463/275 462/274 457/269
f 459/271 464/276 315/163 313/161
f 460/272 465/277 464/276 459/271
f 461/273 466/278 465/277 460/272
f 462/274 467/279 466/278 461/273
f 463/275 205/280 467/279 462/274
f 464/276 158/165 158/165 315/163
f 465/277 158/165 158/165 464/276
f 466/278 158/165 158/165 465/277
f 467/279 158/165 158/165 466/278
f 205/280 158/165 158/165 467/279
usemtl r62_front_blind
f 471/345 470/344 469/343 468/342
f 473/136 258/136 468/342 472/342
f 475/343 469/343 286/167 474/167
f 472/346 468/346 469/346 475/346
f 472/342 475/343 474/167 473/136
usemtl r62_glass#interior_translucent
f 479/5 478/6 477/7 476/8
usemtl r62_chain
f 483/8 482/7 481/6 480/5
f 487/5 486/6 485/7 484/8
f 489/5 481/6 482/7 488/8
f 491/8 485/7 486/6 490/5
f 495/8 494/7 493/6 492/5
f 499/5 498/6 497/7 496/8
f 501/5 493/6 494/7 500/8
f 503/8 497/7 498/6 502/5
f 507/8 506/7 505/6 504/5
f 511/5 510/6 509/7 508/8
f 513/5 505/6 506/7 512/8
f 515/8 509/7 510/6 514/5
f 519/8 518/7 517/6 516/5
f 523/5 522/6 521/7 520/8
f 516/8 517/7 522/6 523/5
f 520/5 521/6 518/7 519/8
f 522/8 517/7 518/6 521/5
f 520/5 519/6 516/7 523/8
usemtl r62_apron
f 527/8 526/7 525/6 524/5
f 531/5 530/6 529/7 528/8
f 524/8 525/7 530/6 531/5
f 528/5 529/6 526/7 527/8
f 530/8 525/7 526/6 529/5
f 528/5 527/6 524/7 531/8
f 535/5 534/6 533/7 532/8
f 532/5 533/6 537/7 536/8
f 536/5 537/6 539/7 538/8
f 538/5 539/6 541/7 540/8
f 540/5 541/6 543/7 542/8
f 542/5 543/6 545/7 544/8
f 544/5 545/6 547/7 546/8
f 546/5 547/6 534/7 535/8
f 539/5 537/5 533/5 534/5
f 547/5 541/5 539/5 534/5
f 547/5 545/5 543/5 541/5
f 551/5 550/6 549/7 548/8
f 548/5 549/6 553/7 552/8
f 552/5 553/6 555/7 554/8
f 554/5 555/6 557/7 556/8
f 556/5 557/6 559/7 558/8
f 558/5 559/6 561/7 560/8
f 560/5 561/6 563/7 562/8
f 562/5 563/6 550/7 551/8
f 555/5 553/5 549/5 550/5
f 563/5 557/5 555/5 550/5
f 563/5 561/5 559/5 557/5
usemtl r62_coupler
f 567/8 566/7 565/6 564/5
f 571/5 570/6 569/7 568/8
f 564/8 565/7 570/6 571/5
f 568/5 569/6 566/7 567/8
f 570/8 565/7 566/6 569/5
f 568/5 567/6 564/7 571/8
f 575/8 574/7 573/6 572/5
f 579/5 578/6 577/7 576/8
f 572/8 573/7 578/6 579/5
f 576/5 577/6 574/7 575/8
f 578/8 573/7 574/6 577/5
f 576/5 575/6 572/7 579/8
f 583/8 582/7 581/6 580/5
f 587/5 586/6 585/7 584/8
f 580/8 581/7 586/6 587/5
f 584/5 585/6 582/7 583/8
f 586/8 581/7 582/6 585/5
f 584/5 583/6 580/7 587/8
f 591/8 590/7 589/6 588/5
f 595/5 594/6 593/7 592/8
f 588/8 589/7 594/6 595/5
f 592/5 593/6 590/7 591/8
f 594/8 589/7 590/6 593/5
f 592/5 591/6 588/7 595/8
