# NYCT R62 interior — generated by tools/convert_r62_interior.py.
# DO NOT EDIT: re-run the converter instead.
mtllib r62_interior.mtl

v 1.10447 0.00000 1.81250
v 1.10447 0.00000 -1.81250
v 1.10447 2.02639 -1.81250
v 1.10447 2.02639 1.81250
v -1.10447 2.02639 1.81250
v -1.10447 2.02639 -1.81250
v -1.10447 0.00000 -1.81250
v -1.10447 0.00000 1.81250
v 1.04197 2.21389 -1.81250
v 0.83322 2.25610 -1.81250
v 0.83322 2.25610 1.81250
v 1.04197 2.21389 1.81250
v 0.00000 2.26943 -1.81250
v 0.00000 2.26943 1.81250
v -1.04197 2.21389 1.81250
v -0.83322 2.25610 1.81250
v -0.83322 2.25610 -1.81250
v -1.04197 2.21389 -1.81250
v 1.04197 2.02639 -1.81250
v 1.04197 2.02639 1.81250
v -1.04197 2.02639 1.81250
v -1.04197 2.02639 -1.81250
v 0.97947 2.02639 1.37500
v 0.97947 2.02639 -1.37500
v 0.97947 2.21389 -1.37500
v 0.97947 2.21389 1.37500
v 1.04197 2.02639 1.37500
v 1.04197 2.02639 -1.37500
v 1.04197 2.21389 -1.37500
v 1.04197 2.21389 1.37500
v -0.97947 2.21389 1.37500
v -0.97947 2.21389 -1.37500
v -0.97947 2.02639 -1.37500
v -0.97947 2.02639 1.37500
v -1.04197 2.02639 -1.37500
v -1.04197 2.02639 1.37500
v -1.04197 2.21389 -1.37500
v -1.04197 2.21389 1.37500
v 0.64390 2.14330 1.81250
v 0.64390 2.14330 -1.81250
v 0.64390 2.06829 -1.81250
v 0.64390 2.06829 1.81250
v 0.56890 2.06829 1.81250
v 0.56890 2.06829 -1.81250
v 0.56890 2.14330 -1.81250
v 0.56890 2.14330 1.81250
v -0.56890 2.14330 1.81250
v -0.56890 2.14330 -1.81250
v -0.56890 2.06829 -1.81250
v -0.56890 2.06829 1.81250
v -0.64390 2.06829 1.81250
v -0.64390 2.06829 -1.81250
v -0.64390 2.14330 -1.81250
v -0.64390 2.14330 1.81250
v 1.10447 0.89116 1.68750
v 1.02947 0.89116 1.68750
v 1.02947 0.89116 1.26562
v 1.10447 0.89116 1.26562
v 0.93572 0.41577 1.68750
v 0.93572 0.41577 1.26562
v 0.62491 0.45327 1.68750
v 0.62491 0.45327 1.26562
v 0.62491 0.37738 1.68750
v 0.62491 0.37738 1.26562
v 1.02947 0.89116 0.84375
v 1.10447 0.89116 0.84375
v 0.93572 0.41577 0.84375
v 0.62491 0.45327 0.84375
v 0.62491 0.37738 0.84375
v 1.11697 0.92241 1.29688
v 1.00378 0.92241 1.29688
v 1.00378 0.92241 1.23438
v 1.11697 0.92241 1.23438
v 1.11697 0.89116 1.29688
v 1.02947 0.89116 1.29688
v 1.02947 0.89116 1.23438
v 1.11697 0.89116 1.23438
v 0.91068 0.45027 1.29688
v 0.91068 0.45027 1.23438
v 0.93572 0.41577 1.29688
v 0.93572 0.41577 1.23438
v 0.59366 0.48852 1.29688
v 0.59366 0.48852 1.23438
v 0.62491 0.45327 1.29688
v 0.62491 0.45327 1.23438
v 0.59366 0.37738 1.29688
v 0.59366 0.37738 1.23438
v 0.62491 0.37738 1.29688
v 0.62491 0.37738 1.23438
v 1.02947 0.89116 0.42187
v 1.10447 0.89116 0.42187
v 0.93572 0.41577 0.42187
v 0.62491 0.45327 0.42187
v 0.62491 0.37738 0.42187
v 1.11697 0.92241 0.87500
v 1.00378 0.92241 0.87500
v 1.00378 0.92241 0.81250
v 1.11697 0.92241 0.81250
v 1.11697 0.89116 0.87500
v 1.02947 0.89116 0.87500
v 1.02947 0.89116 0.81250
v 1.11697 0.89116 0.81250
v 0.91068 0.45027 0.87500
v 0.91068 0.45027 0.81250
v 0.93572 0.41577 0.87500
v 0.93572 0.41577 0.81250
v 0.59366 0.48852 0.87500
v 0.59366 0.48852 0.81250
v 0.62491 0.45327 0.87500
v 0.62491 0.45327 0.81250
v 0.59366 0.37738 0.87500
v 0.59366 0.37738 0.81250
v 0.62491 0.37738 0.87500
v 0.62491 0.37738 0.81250
v 1.02947 0.89116 -0.00000
v 1.10447 0.89116 -0.00000
v 0.93572 0.41577 -0.00000
v 0.62491 0.45327 -0.00000
v 0.62491 0.37738 -0.00000
v 1.11697 0.92241 0.45312
v 1.00378 0.92241 0.45312
v 1.00378 0.92241 0.39062
v 1.11697 0.92241 0.39062
v 1.11697 0.89116 0.45312
v 1.02947 0.89116 0.45312
v 1.02947 0.89116 0.39062
v 1.11697 0.89116 0.39062
v 0.91068 0.45027 0.45312
v 0.91068 0.45027 0.39062
v 0.93572 0.41577 0.45312
v 0.93572 0.41577 0.39062
v 0.59366 0.48852 0.45312
v 0.59366 0.48852 0.39062
v 0.62491 0.45327 0.45312
v 0.62491 0.45327 0.39062
v 0.59366 0.37738 0.45312
v 0.59366 0.37738 0.39062
v 0.62491 0.37738 0.45312
v 0.62491 0.37738 0.39062
v 1.02947 0.89116 -0.42188
v 1.10447 0.89116 -0.42188
v 0.93572 0.41577 -0.42188
v 0.62491 0.45327 -0.42188
v 0.62491 0.37738 -0.42188
v 1.11697 0.92241 0.03125
v 1.00378 0.92241 0.03125
v 1.00378 0.92241 -0.03125
v 1.11697 0.92241 -0.03125
v 1.11697 0.89116 0.03125
v 1.02947 0.89116 0.03125
v 1.02947 0.89116 -0.03125
v 1.11697 0.89116 -0.03125
v 0.91068 0.45027 0.03125
v 0.91068 0.45027 -0.03125
v 0.93572 0.41577 0.03125
v 0.93572 0.41577 -0.03125
v 0.59366 0.48852 0.03125
v 0.59366 0.48852 -0.03125
v 0.62491 0.45327 0.03125
v 0.62491 0.45327 -0.03125
v 0.59366 0.37738 0.03125
v 0.59366 0.37738 -0.03125
v 0.62491 0.37738 0.03125
v 0.62491 0.37738 -0.03125
v 1.02947 0.89116 -0.84375
v 1.10447 0.89116 -0.84375
v 0.93572 0.41577 -0.84375
v 0.62491 0.45327 -0.84375
v 0.62491 0.37738 -0.84375
v 1.11697 0.92241 -0.39063
v 1.00378 0.92241 -0.39063
v 1.00378 0.92241 -0.45313
v 1.11697 0.92241 -0.45313
v 1.11697 0.89116 -0.39063
v 1.02947 0.89116 -0.39063
v 1.02947 0.89116 -0.45313
v 1.11697 0.89116 -0.45313
v 0.91068 0.45027 -0.39063
v 0.91068 0.45027 -0.45313
v 0.93572 0.41577 -0.39063
v 0.93572 0.41577 -0.45313
v 0.59366 0.48852 -0.39063
v 0.59366 0.48852 -0.45313
v 0.62491 0.45327 -0.39063
v 0.62491 0.45327 -0.45313
v 0.59366 0.37738 -0.39063
v 0.59366 0.37738 -0.45313
v 0.62491 0.37738 -0.39063
v 0.62491 0.37738 -0.45313
v 1.02947 0.89116 -1.26563
v 1.10447 0.89116 -1.26563
v 0.93572 0.41577 -1.26563
v 0.62491 0.45327 -1.26563
v 0.62491 0.37738 -1.26563
v 1.11697 0.92241 -0.81250
v 1.00378 0.92241 -0.81250
v 1.00378 0.92241 -0.87500
v 1.11697 0.92241 -0.87500
v 1.11697 0.89116 -0.81250
v 1.02947 0.89116 -0.81250
v 1.02947 0.89116 -0.87500
v 1.11697 0.89116 -0.87500
v 0.91068 0.45027 -0.81250
v 0.91068 0.45027 -0.87500
v 0.93572 0.41577 -0.81250
v 0.93572 0.41577 -0.87500
v 0.59366 0.48852 -0.81250
v 0.59366 0.48852 -0.87500
v 0.62491 0.45327 -0.81250
v 0.62491 0.45327 -0.87500
v 0.59366 0.37738 -0.81250
v 0.59366 0.37738 -0.87500
v 0.62491 0.37738 -0.81250
v 0.62491 0.37738 -0.87500
v 1.02947 0.89116 -1.68750
v 1.10447 0.89116 -1.68750
v 0.93572 0.41577 -1.68750
v 0.62491 0.45327 -1.68750
v 0.62491 0.37738 -1.68750
v 1.11697 0.92241 -1.23438
v 1.00378 0.92241 -1.23438
v 1.00378 0.92241 -1.29688
v 1.11697 0.92241 -1.29688
v 1.11697 0.89116 -1.23438
v 1.02947 0.89116 -1.23438
v 1.02947 0.89116 -1.29688
v 1.11697 0.89116 -1.29688
v 0.91068 0.45027 -1.23438
v 0.91068 0.45027 -1.29688
v 0.93572 0.41577 -1.23438
v 0.93572 0.41577 -1.29688
v 0.59366 0.48852 -1.23438
v 0.59366 0.48852 -1.29688
v 0.62491 0.45327 -1.23438
v 0.62491 0.45327 -1.29688
v 0.59366 0.37738 -1.23438
v 0.59366 0.37738 -1.29688
v 0.62491 0.37738 -1.23438
v 0.62491 0.37738 -1.29688
v 1.04197 0.37738 1.68750
v 1.04197 0.37738 -1.68750
v 0.62491 0.89116 1.68750
v 1.10447 0.37738 1.68750
v 1.04197 0.00000 1.68750
v 0.62491 0.00000 1.68750
v 0.65015 0.89116 1.79375
v 0.65015 0.89116 1.70625
v 0.65015 0.44077 1.70625
v 0.65015 0.44077 1.79375
v 0.56265 0.44077 1.79375
v 0.56265 0.44077 1.70625
v 0.56265 0.89116 1.70625
v 0.56265 0.89116 1.79375
v 1.11697 0.89116 1.70625
v 1.11697 0.89116 1.79375
v 1.11697 0.80366 1.79375
v 1.11697 0.80366 1.70625
v 0.65015 0.80366 1.70625
v 0.65015 0.80366 1.79375
v 0.65015 0.52827 1.79375
v 0.65015 0.52827 1.70625
v 1.11697 0.52827 1.70625
v 1.11697 0.52827 1.79375
v 1.11697 0.44077 1.79375
v 1.11697 0.44077 1.70625
v 1.10447 0.37738 -1.68750
v 0.62491 0.89116 -1.68750
v 0.62491 0.00000 -1.68750
v 1.04197 0.00000 -1.68750
v 0.65015 0.89116 -1.70625
v 0.65015 0.89116 -1.79375
v 0.65015 0.44077 -1.79375
v 0.65015 0.44077 -1.70625
v 0.56265 0.44077 -1.70625
v 0.56265 0.44077 -1.79375
v 0.56265 0.89116 -1.79375
v 0.56265 0.89116 -1.70625
v 1.11697 0.89116 -1.79375
v 1.11697 0.89116 -1.70625
v 1.11697 0.80366 -1.70625
v 1.11697 0.80366 -1.79375
v 0.65015 0.80366 -1.79375
v 0.65015 0.80366 -1.70625
v 0.65015 0.52827 -1.70625
v 0.65015 0.52827 -1.79375
v 1.11697 0.52827 -1.79375
v 1.11697 0.52827 -1.70625
v 1.11697 0.44077 -1.70625
v 1.11697 0.44077 -1.79375
v -1.10447 0.89116 1.26562
v -1.02947 0.89116 1.26562
v -1.02947 0.89116 1.68750
v -1.10447 0.89116 1.68750
v -0.93572 0.41577 1.26562
v -0.93572 0.41577 1.68750
v -0.62491 0.45327 1.26562
v -0.62491 0.45327 1.68750
v -0.62491 0.37738 1.26562
v -0.62491 0.37738 1.68750
v -1.10447 0.89116 0.84375
v -1.02947 0.89116 0.84375
v -0.93572 0.41577 0.84375
v -0.62491 0.45327 0.84375
v -0.62491 0.37738 0.84375
v -1.11697 0.92241 1.23438
v -1.00378 0.92241 1.23438
v -1.00378 0.92241 1.29688
v -1.11697 0.92241 1.29688
v -1.02947 0.89116 1.29688
v -1.11697 0.89116 1.29688
v -1.11697 0.89116 1.23438
v -1.02947 0.89116 1.23438
v -0.91068 0.45027 1.23438
v -0.91068 0.45027 1.29688
v -0.93572 0.41577 1.29688
v -0.93572 0.41577 1.23438
v -0.59366 0.48852 1.23438
v -0.59366 0.48852 1.29688
v -0.62491 0.45327 1.29688
v -0.62491 0.45327 1.23438
v -0.59366 0.37738 1.23438
v -0.59366 0.37738 1.29688
v -0.62491 0.37738 1.29688
v -0.62491 0.37738 1.23438
v -1.10447 0.89116 0.42187
v -1.02947 0.89116 0.42187
v -0.93572 0.41577 0.42187
v -0.62491 0.45327 0.42187
v -0.62491 0.37738 0.42187
v -1.11697 0.92241 0.81250
v -1.00378 0.92241 0.81250
v -1.00378 0.92241 0.87500
v -1.11697 0.92241 0.87500
v -1.02947 0.89116 0.87500
v -1.11697 0.89116 0.87500
v -1.11697 0.89116 0.81250
v -1.02947 0.89116 0.81250
v -0.91068 0.45027 0.81250
v -0.91068 0.45027 0.87500
v -0.93572 0.41577 0.87500
v -0.93572 0.41577 0.81250
v -0.59366 0.48852 0.81250
v -0.59366 0.48852 0.87500
v -0.62491 0.45327 0.87500
v -0.62491 0.45327 0.81250
v -0.59366 0.37738 0.81250
v -0.59366 0.37738 0.87500
v -0.62491 0.37738 0.87500
v -0.62491 0.37738 0.81250
v -1.10447 0.89116 -0.00000
v -1.02947 0.89116 -0.00000
v -0.93572 0.41577 -0.00000
v -0.62491 0.45327 -0.00000
v -0.62491 0.37738 -0.00000
v -1.11697 0.92241 0.39062
v -1.00378 0.92241 0.39062
v -1.00378 0.92241 0.45312
v -1.11697 0.92241 0.45312
v -1.02947 0.89116 0.45312
v -1.11697 0.89116 0.45312
v -1.11697 0.89116 0.39062
v -1.02947 0.89116 0.39062
v -0.91068 0.45027 0.39062
v -0.91068 0.45027 0.45312
v -0.93572 0.41577 0.45312
v -0.93572 0.41577 0.39062
v -0.59366 0.48852 0.39062
v -0.59366 0.48852 0.45312
v -0.62491 0.45327 0.45312
v -0.62491 0.45327 0.39062
v -0.59366 0.37738 0.39062
v -0.59366 0.37738 0.45312
v -0.62491 0.37738 0.45312
v -0.62491 0.37738 0.39062
v -1.10447 0.89116 -0.42188
v -1.02947 0.89116 -0.42188
v -0.93572 0.41577 -0.42188
v -0.62491 0.45327 -0.42188
v -0.62491 0.37738 -0.42188
v -1.11697 0.92241 -0.03125
v -1.00378 0.92241 -0.03125
v -1.00378 0.92241 0.03125
v -1.11697 0.92241 0.03125
v -1.02947 0.89116 0.03125
v -1.11697 0.89116 0.03125
v -1.11697 0.89116 -0.03125
v -1.02947 0.89116 -0.03125
v -0.91068 0.45027 -0.03125
v -0.91068 0.45027 0.03125
v -0.93572 0.41577 0.03125
v -0.93572 0.41577 -0.03125
v -0.59366 0.48852 -0.03125
v -0.59366 0.48852 0.03125
v -0.62491 0.45327 0.03125
v -0.62491 0.45327 -0.03125
v -0.59366 0.37738 -0.03125
v -0.59366 0.37738 0.03125
v -0.62491 0.37738 0.03125
v -0.62491 0.37738 -0.03125
v -1.10447 0.89116 -0.84375
v -1.02947 0.89116 -0.84375
v -0.93572 0.41577 -0.84375
v -0.62491 0.45327 -0.84375
v -0.62491 0.37738 -0.84375
v -1.11697 0.92241 -0.45313
v -1.00378 0.92241 -0.45313
v -1.00378 0.92241 -0.39063
v -1.11697 0.92241 -0.39063
v -1.02947 0.89116 -0.39063
v -1.11697 0.89116 -0.39063
v -1.11697 0.89116 -0.45313
v -1.02947 0.89116 -0.45313
v -0.91068 0.45027 -0.45313
v -0.91068 0.45027 -0.39063
v -0.93572 0.41577 -0.39063
v -0.93572 0.41577 -0.45313
v -0.59366 0.48852 -0.45313
v -0.59366 0.48852 -0.39063
v -0.62491 0.45327 -0.39063
v -0.62491 0.45327 -0.45313
v -0.59366 0.37738 -0.45313
v -0.59366 0.37738 -0.39063
v -0.62491 0.37738 -0.39063
v -0.62491 0.37738 -0.45313
v -1.10447 0.89116 -1.26563
v -1.02947 0.89116 -1.26563
v -0.93572 0.41577 -1.26563
v -0.62491 0.45327 -1.26563
v -0.62491 0.37738 -1.26563
v -1.11697 0.92241 -0.87500
v -1.00378 0.92241 -0.87500
v -1.00378 0.92241 -0.81250
v -1.11697 0.92241 -0.81250
v -1.02947 0.89116 -0.81250
v -1.11697 0.89116 -0.81250
v -1.11697 0.89116 -0.87500
v -1.02947 0.89116 -0.87500
v -0.91068 0.45027 -0.87500
v -0.91068 0.45027 -0.81250
v -0.93572 0.41577 -0.81250
v -0.93572 0.41577 -0.87500
v -0.59366 0.48852 -0.87500
v -0.59366 0.48852 -0.81250
v -0.62491 0.45327 -0.81250
v -0.62491 0.45327 -0.87500
v -0.59366 0.37738 -0.87500
v -0.59366 0.37738 -0.81250
v -0.62491 0.37738 -0.81250
v -0.62491 0.37738 -0.87500
v -1.10447 0.89116 -1.68750
v -1.02947 0.89116 -1.68750
v -0.93572 0.41577 -1.68750
v -0.62491 0.45327 -1.68750
v -0.62491 0.37738 -1.68750
v -1.11697 0.92241 -1.29688
v -1.00378 0.92241 -1.29688
v -1.00378 0.92241 -1.23438
v -1.11697 0.92241 -1.23438
v -1.02947 0.89116 -1.23438
v -1.11697 0.89116 -1.23438
v -1.11697 0.89116 -1.29688
v -1.02947 0.89116 -1.29688
v -0.91068 0.45027 -1.29688
v -0.91068 0.45027 -1.23438
v -0.93572 0.41577 -1.23438
v -0.93572 0.41577 -1.29688
v -0.59366 0.48852 -1.29688
v -0.59366 0.48852 -1.23438
v -0.62491 0.45327 -1.23438
v -0.62491 0.45327 -1.29688
v -0.59366 0.37738 -1.29688
v -0.59366 0.37738 -1.23438
v -0.62491 0.37738 -1.23438
v -0.62491 0.37738 -1.29688
v -1.04197 0.37738 -1.68750
v -1.04197 0.37738 1.68750
v -1.10447 0.37738 1.68750
v -0.62491 0.89116 1.68750
v -0.62491 0.00000 1.68750
v -1.04197 0.00000 1.68750
v -0.56265 0.89116 1.79375
v -0.56265 0.89116 1.70625
v -0.56265 0.44077 1.70625
v -0.56265 0.44077 1.79375
v -0.65015 0.44077 1.79375
v -0.65015 0.44077 1.70625
v -0.65015 0.89116 1.70625
v -0.65015 0.89116 1.79375
v -1.11697 0.89116 1.79375
v -1.11697 0.89116 1.70625
v -0.65015 0.80366 1.79375
v -0.65015 0.80366 1.70625
v -1.11697 0.80366 1.70625
v -1.11697 0.80366 1.79375
v -1.11697 0.52827 1.79375
v -1.11697 0.52827 1.70625
v -0.65015 0.52827 1.70625
v -0.65015 0.52827 1.79375
v -1.11697 0.44077 1.70625
v -1.11697 0.44077 1.79375
v -0.62491 0.89116 -1.68750
v -1.10447 0.37738 -1.68750
v -1.04197 0.00000 -1.68750
v -0.62491 0.00000 -1.68750
v -0.56265 0.89116 -1.70625
v -0.56265 0.89116 -1.79375
v -0.56265 0.44077 -1.79375
v -0.56265 0.44077 -1.70625
v -0.65015 0.44077 -1.70625
v -0.65015 0.44077 -1.79375
v -0.65015 0.89116 -1.79375
v -0.65015 0.89116 -1.70625
v -1.11697 0.89116 -1.70625
v -1.11697 0.89116 -1.79375
v -0.65015 0.80366 -1.70625
v -0.65015 0.80366 -1.79375
v -1.11697 0.80366 -1.79375
v -1.11697 0.80366 -1.70625
v -1.11697 0.52827 -1.70625
v -1.11697 0.52827 -1.79375
v -0.65015 0.52827 -1.79375
v -0.65015 0.52827 -1.70625
v -1.11697 0.44077 -1.79375
v -1.11697 0.44077 -1.70625
v 1.10447 0.37738 1.81250
v 1.04197 0.37738 1.81250
v 1.04197 0.37738 -1.81250
v 1.10447 0.37738 -1.81250
v 1.04197 0.00000 1.81250
v 1.04197 0.00000 -1.81250
v -1.10447 0.37738 -1.81250
v -1.04197 0.37738 -1.81250
v -1.04197 0.37738 1.81250
v -1.10447 0.37738 1.81250
v -1.04197 0.00000 -1.81250
v -1.04197 0.00000 1.81250
v 0.03125 2.26943 1.00768
v 0.03125 2.26943 0.94518
v 0.03125 0.00000 0.94518
v 0.03125 0.00000 1.00768
v -0.03125 0.00000 1.00768
v -0.03125 0.00000 0.94518
v -0.03125 2.26943 0.94518
v -0.03125 2.26943 1.00768
v 0.03125 2.26943 -0.83658
v 0.03125 2.26943 -0.89908
v 0.03125 0.00000 -0.89908
v 0.03125 0.00000 -0.83658
v -0.03125 0.00000 -0.83658
v -0.03125 0.00000 -0.89908
v -0.03125 2.26943 -0.89908
v -0.03125 2.26943 -0.83658
v 0.63765 2.14330 1.78125
v 0.63765 2.14330 1.71875
v 0.63765 0.00000 1.71875
v 0.63765 0.00000 1.78125
v 0.57515 0.00000 1.78125
v 0.57515 0.00000 1.71875
v 0.57515 2.14330 1.71875
v 0.57515 2.14330 1.78125
v -0.57515 2.14330 1.78125
v -0.57515 2.14330 1.71875
v -0.57515 0.00000 1.71875
v -0.57515 0.00000 1.78125
v -0.63765 0.00000 1.78125
v -0.63765 0.00000 1.71875
v -0.63765 2.14330 1.71875
v -0.63765 2.14330 1.78125
v 0.63765 2.14330 -1.71875
v 0.63765 2.14330 -1.78125
v 0.63765 0.00000 -1.78125
v 0.63765 0.00000 -1.71875
v 0.57515 0.00000 -1.71875
v 0.57515 0.00000 -1.78125
v 0.57515 2.14330 -1.78125
v 0.57515 2.14330 -1.71875
v -0.57515 2.14330 -1.71875
v -0.57515 2.14330 -1.78125
v -0.57515 0.00000 -1.78125
v -0.57515 0.00000 -1.71875
v -0.63765 0.00000 -1.71875
v -0.63765 0.00000 -1.78125
v -0.63765 2.14330 -1.78125
v -0.63765 2.14330 -1.71875
v 1.10447 1.99562 0.65625
v 1.10447 1.99562 -0.65625
v 1.10447 2.02639 -0.65625
v 1.10447 2.02639 0.65625
v -1.10447 2.02639 0.65625
v -1.10447 2.02639 -0.65625
v -1.10447 1.99562 -0.65625
v -1.10447 1.99562 0.65625
v 1.04197 2.21389 -0.65625
v 0.83322 2.25610 -0.65625
v 0.83322 2.25610 0.65625
v 1.04197 2.21389 0.65625
v 0.00000 2.26943 -0.65625
v 0.00000 2.26943 0.65625
v -1.04197 2.21389 0.65625
v -0.83322 2.25610 0.65625
v -0.83322 2.25610 -0.65625
v -1.04197 2.21389 -0.65625
v 1.04197 2.02639 -0.65625
v 1.04197 2.02639 0.65625
v -1.04197 2.02639 0.65625
v -1.04197 2.02639 -0.65625
v -1.10253 0.00000 0.65625
v -1.10253 0.00000 -0.65625
v 1.10253 0.00000 -0.65625
v 1.10253 0.00000 0.65625
v 0.64390 2.14330 0.65625
v 0.64390 2.14330 -0.65625
v 0.64390 2.06829 -0.65625
v 0.64390 2.06829 0.65625
v 0.56890 2.06829 0.65625
v 0.56890 2.06829 -0.65625
v 0.56890 2.14330 -0.65625
v 0.56890 2.14330 0.65625
v -0.56890 2.14330 0.65625
v -0.56890 2.14330 -0.65625
v -0.56890 2.06829 -0.65625
v -0.56890 2.06829 0.65625
v -0.64390 2.06829 0.65625
v -0.64390 2.06829 -0.65625
v -0.64390 2.14330 -0.65625
v -0.64390 2.14330 0.65625
v 1.13864 1.99562 0.65625
v 1.13864 1.99562 -0.65625
v 1.13864 0.00000 -0.65625
v 1.10447 0.00000 -0.65625
v 1.10447 0.00000 0.65625
v 1.13864 0.00000 0.65625
v -1.13864 1.99562 -0.65625
v -1.13864 1.99562 0.65625
v -1.10447 0.00000 -0.65625
v -1.13864 0.00000 -0.65625
v -1.13864 0.00000 0.65625
v -1.10447 0.00000 0.65625
v 1.10447 0.00000 1.20312
v 1.10447 0.00000 -0.55944
v 1.10447 2.02639 -0.55944
v 1.10447 2.02639 1.20312
v -1.10447 2.02639 1.20312
v -1.10447 2.02639 -0.55944
v -1.10447 0.00000 -0.55944
v -1.10447 0.00000 1.20312
v 1.04197 2.21389 -0.55944
v 0.83322 2.25610 -0.55944
v 0.83322 2.25610 1.20312
v 1.04197 2.21389 1.20312
v 0.00000 2.26943 -0.55944
v 0.00000 2.26943 1.20312
v -1.04197 2.21389 1.20312
v -0.83322 2.25610 1.20312
v -0.83322 2.25610 -0.55944
v -1.04197 2.21389 -0.55944
v 1.04197 2.02639 -0.55944
v 1.04197 2.02639 1.20312
v -1.04197 2.02639 1.20312
v -1.04197 2.02639 -0.55944
v -1.10447 0.00000 -0.68566
v 1.10447 0.00000 -0.68566
v 0.64390 2.14330 1.20312
v 0.64390 2.14330 -0.55944
v 0.64390 2.06829 -0.55944
v 0.64390 2.06829 1.20312
v 0.56890 2.06829 1.20312
v 0.56890 2.06829 -0.55944
v 0.56890 2.14330 -0.55944
v 0.56890 2.14330 1.20312
v -0.56890 2.14330 1.20312
v -0.56890 2.14330 -0.55944
v -0.56890 2.06829 -0.55944
v -0.56890 2.06829 1.20312
v -0.64390 2.06829 1.20312
v -0.64390 2.06829 -0.55944
v -0.64390 2.14330 -0.55944
v -0.64390 2.14330 1.20312
v 1.10447 0.37738 1.07812
v 1.04197 0.37738 1.07812
v 1.04197 0.37738 0.27828
v 1.10447 0.37738 0.27828
v 1.04197 0.00000 1.07812
v 1.04197 0.00000 0.27828
v 1.10447 0.89116 1.07812
v 1.02947 0.89116 1.07812
v 1.02947 0.89116 0.67820
v 1.10447 0.89116 0.67820
v 0.93572 0.41577 1.07812
v 0.93572 0.41577 0.67820
v 0.62491 0.45327 1.07812
v 0.62491 0.45327 0.67820
v 0.62491 0.37738 1.07812
v 0.62491 0.37738 0.67820
v 1.02947 0.89116 0.27828
v 1.10447 0.89116 0.27828
v 0.93572 0.41577 0.27828
v 0.62491 0.45327 0.27828
v 0.62491 0.37738 0.27828
v 1.11697 0.92241 0.70945
v 1.00378 0.92241 0.70945
v 1.00378 0.92241 0.64695
v 1.11697 0.92241 0.64695
v 1.11697 0.89116 0.70945
v 1.02947 0.89116 0.70945
v 1.02947 0.89116 0.64695
v 1.11697 0.89116 0.64695
v 0.91068 0.45027 0.70945
v 0.91068 0.45027 0.64695
v 0.93572 0.41577 0.70945
v 0.93572 0.41577 0.64695
v 0.59366 0.48852 0.70945
v 0.59366 0.48852 0.64695
v 0.62491 0.45327 0.70945
v 0.62491 0.45327 0.64695
v 0.59366 0.37738 0.70945
v 0.59366 0.37738 0.64695
v 0.62491 0.37738 0.70945
v 0.62491 0.37738 0.64695
v 0.62491 0.89116 1.07812
v 0.62491 0.00000 1.07812
v 0.65015 0.89116 1.18437
v 0.65015 0.89116 1.09688
v 0.65015 0.44077 1.09688
v 0.65015 0.44077 1.18437
v 0.56265 0.44077 1.18437
v 0.56265 0.44077 1.09688
v 0.56265 0.89116 1.09688
v 0.56265 0.89116 1.18437
v 1.11697 0.89116 1.09688
v 1.11697 0.89116 1.18437
v 1.11697 0.80366 1.18437
v 1.11697 0.80366 1.09688
v 0.65015 0.80366 1.09688
v 0.65015 0.80366 1.18437
v 0.65015 0.52827 1.18437
v 0.65015 0.52827 1.09688
v 1.11697 0.52827 1.09688
v 1.11697 0.52827 1.18437
v 1.11697 0.44077 1.18437
v 1.11697 0.44077 1.09688
v -1.10447 0.37738 -0.55944
v -1.04197 0.37738 -0.55944
v -1.04197 0.37738 1.07812
v -1.10447 0.37738 1.07812
v -1.04197 0.00000 -0.55944
v -1.04197 0.00000 1.07812
v -1.10447 0.89116 0.66873
v -1.02947 0.89116 0.66873
v -1.02947 0.89116 1.07812
v -1.10447 0.89116 1.07812
v -0.93572 0.41577 0.66873
v -0.93572 0.41577 1.07812
v -0.62491 0.45327 0.66873
v -0.62491 0.45327 1.07812
v -0.62491 0.37738 0.66873
v -0.62491 0.37738 1.07812
v -1.10447 0.89116 0.25934
v -1.02947 0.89116 0.25934
v -0.93572 0.41577 0.25934
v -0.62491 0.45327 0.25934
v -0.62491 0.37738 0.25934
v -1.11697 0.92241 0.63748
v -1.00378 0.92241 0.63748
v -1.00378 0.92241 0.69998
v -1.11697 0.92241 0.69998
v -1.02947 0.89116 0.69998
v -1.11697 0.89116 0.69998
v -1.11697 0.89116 0.63748
v -1.02947 0.89116 0.63748
v -0.91068 0.45027 0.63748
v -0.91068 0.45027 0.69998
v -0.93572 0.41577 0.69998
v -0.93572 0.41577 0.63748
v -0.59366 0.48852 0.63748
v -0.59366 0.48852 0.69998
v -0.62491 0.45327 0.69998
v -0.62491 0.45327 0.63748
v -0.59366 0.37738 0.63748
v -0.59366 0.37738 0.69998
v -0.62491 0.37738 0.69998
v -0.62491 0.37738 0.63748
v -1.10447 0.89116 -0.15005
v -1.02947 0.89116 -0.15005
v -0.93572 0.41577 -0.15005
v -0.62491 0.45327 -0.15005
v -0.62491 0.37738 -0.15005
v -1.11697 0.92241 0.22809
v -1.00378 0.92241 0.22809
v -1.00378 0.92241 0.29059
v -1.11697 0.92241 0.29059
v -1.02947 0.89116 0.29059
v -1.11697 0.89116 0.29059
v -1.11697 0.89116 0.22809
v -1.02947 0.89116 0.22809
v -0.91068 0.45027 0.22809
v -0.91068 0.45027 0.29059
v -0.93572 0.41577 0.29059
v -0.93572 0.41577 0.22809
v -0.59366 0.48852 0.22809
v -0.59366 0.48852 0.29059
v -0.62491 0.45327 0.29059
v -0.62491 0.45327 0.22809
v -0.59366 0.37738 0.22809
v -0.59366 0.37738 0.29059
v -0.62491 0.37738 0.29059
v -0.62491 0.37738 0.22809
v -1.10447 0.89116 -0.55944
v -1.02947 0.89116 -0.55944
v -0.93572 0.41577 -0.55944
v -0.62491 0.45327 -0.55944
v -0.62491 0.37738 -0.55944
v -1.11697 0.92241 -0.18130
v -1.00378 0.92241 -0.18130
v -1.00378 0.92241 -0.11880
v -1.11697 0.92241 -0.11880
v -1.02947 0.89116 -0.11880
v -1.11697 0.89116 -0.11880
v -1.11697 0.89116 -0.18130
v -1.02947 0.89116 -0.18130
v -0.91068 0.45027 -0.18130
v -0.91068 0.45027 -0.11880
v -0.93572 0.41577 -0.11880
v -0.93572 0.41577 -0.18130
v -0.59366 0.48852 -0.18130
v -0.59366 0.48852 -0.11880
v -0.62491 0.45327 -0.11880
v -0.62491 0.45327 -0.18130
v -0.59366 0.37738 -0.18130
v -0.59366 0.37738 -0.11880
v -0.62491 0.37738 -0.11880
v -0.62491 0.37738 -0.18130
v -0.62491 0.89116 1.07812
v -0.62491 0.00000 1.07812
v -0.56265 0.89116 1.18437
v -0.56265 0.89116 1.09688
v -0.56265 0.44077 1.09688
v -0.56265 0.44077 1.18437
v -0.65015 0.44077 1.18437
v -0.65015 0.44077 1.09688
v -0.65015 0.89116 1.09688
v -0.65015 0.89116 1.18437
v -1.11697 0.89116 1.18437
v -1.11697 0.89116 1.09688
v -0.65015 0.80366 1.18437
v -0.65015 0.80366 1.09688
v -1.11697 0.80366 1.09688
v -1.11697 0.80366 1.18437
v -1.11697 0.52827 1.18437
v -1.11697 0.52827 1.09688
v -0.65015 0.52827 1.09688
v -0.65015 0.52827 1.18437
v -1.11697 0.44077 1.09688
v -1.11697 0.44077 1.18437
v -0.38587 0.00000 -0.55944
v -1.10447 2.26943 -0.55944
v -0.38587 2.26943 -0.55944
v 0.38587 2.26943 -0.55944
v 1.10447 2.26943 -0.55944
v 1.10447 2.01613 -0.55944
v 0.38587 2.01613 -0.55944
v -0.38587 2.00690 -0.67538
v 0.38587 2.00690 -0.67538
v 0.38587 0.00000 -0.67538
v -0.38587 0.00000 -0.67538
v 0.38587 0.00000 -0.55944
v 0.38587 2.00690 -0.55944
v -0.38587 2.00690 -0.55944
v 0.38587 2.01613 0.27828
v 1.10447 2.01613 0.27828
v 1.10447 0.00000 0.27828
v 0.38587 0.00000 0.27828
v 1.10447 2.01613 -0.68566
v 0.38587 2.01613 -0.68566
v 1.08596 1.25000 -0.18566
v 1.08596 1.25000 -0.56066
v 1.08596 1.00000 -0.56066
v 1.08596 1.00000 -0.18566
v 0.44142 1.00000 -0.18566
v 0.44142 1.00000 -0.56066
v 0.44142 1.25000 -0.56066
v 0.44142 1.25000 -0.18566
v 1.04893 1.00000 -0.24816
v 1.04893 1.00000 -0.49816
v 1.04893 0.00000 -0.49816
v 1.04893 0.00000 -0.24816
v 0.47845 0.00000 -0.24816
v 0.47845 0.00000 -0.49816
v 0.47845 1.00000 -0.49816
v 0.47845 1.00000 -0.24816
v 1.01837 0.43750 0.15328
v 1.01837 0.43750 -0.22172
v 1.01837 0.37500 -0.22172
v 1.01837 0.37500 0.15328
v 0.66657 0.37500 0.15328
v 0.66657 0.37500 -0.22172
v 0.66657 0.43750 -0.22172
v 0.66657 0.43750 0.15328
v 1.01837 0.93750 0.21578
v 1.01837 0.93750 0.15328
v 1.01837 0.43750 0.21578
v 0.66657 0.43750 0.21578
v 0.66657 0.93750 0.15328
v 0.66657 0.93750 0.21578
v 0.63765 2.14330 1.17188
v 0.63765 2.14330 1.10938
v 0.63765 0.00000 1.10938
v 0.63765 0.00000 1.17188
v 0.57515 0.00000 1.17188
v 0.57515 0.00000 1.10938
v 0.57515 2.14330 1.10938
v 0.57515 2.14330 1.17188
v -0.57515 2.14330 1.17188
v -0.57515 2.14330 1.10938
v -0.57515 0.00000 1.10938
v -0.57515 0.00000 1.17188
v -0.63765 0.00000 1.17188
v -0.63765 0.00000 1.10938
v -0.63765 2.14330 1.10938
v -0.63765 2.14330 1.17188
v 1.04197 0.37738 -0.55944
v 1.10447 0.37738 -0.55944
v 1.04197 0.00000 -0.55944
v 1.02947 0.89116 0.66873
v 1.10447 0.89116 0.66873
v 0.93572 0.41577 0.66873
v 0.62491 0.45327 0.66873
v 0.62491 0.37738 0.66873
v 1.02947 0.89116 0.25934
v 1.10447 0.89116 0.25934
v 0.93572 0.41577 0.25934
v 0.62491 0.45327 0.25934
v 0.62491 0.37738 0.25934
v 1.11697 0.92241 0.69998
v 1.00378 0.92241 0.69998
v 1.00378 0.92241 0.63748
v 1.11697 0.92241 0.63748
v 1.11697 0.89116 0.69998
v 1.02947 0.89116 0.69998
v 1.02947 0.89116 0.63748
v 1.11697 0.89116 0.63748
v 0.91068 0.45027 0.69998
v 0.91068 0.45027 0.63748
v 0.93572 0.41577 0.69998
v 0.93572 0.41577 0.63748
v 0.59366 0.48852 0.69998
v 0.59366 0.48852 0.63748
v 0.62491 0.45327 0.69998
v 0.62491 0.45327 0.63748
v 0.59366 0.37738 0.69998
v 0.59366 0.37738 0.63748
v 0.62491 0.37738 0.69998
v 0.62491 0.37738 0.63748
v 1.02947 0.89116 -0.15005
v 1.10447 0.89116 -0.15005
v 0.93572 0.41577 -0.15005
v 0.62491 0.45327 -0.15005
v 0.62491 0.37738 -0.15005
v 1.11697 0.92241 0.29059
v 1.00378 0.92241 0.29059
v 1.00378 0.92241 0.22809
v 1.11697 0.92241 0.22809
v 1.11697 0.89116 0.29059
v 1.02947 0.89116 0.29059
v 1.02947 0.89116 0.22809
v 1.11697 0.89116 0.22809
v 0.91068 0.45027 0.29059
v 0.91068 0.45027 0.22809
v 0.93572 0.41577 0.29059
v 0.93572 0.41577 0.22809
v 0.59366 0.48852 0.29059
v 0.59366 0.48852 0.22809
v 0.62491 0.45327 0.29059
v 0.62491 0.45327 0.22809
v 0.59366 0.37738 0.29059
v 0.59366 0.37738 0.22809
v 0.62491 0.37738 0.29059
v 0.62491 0.37738 0.22809
v 1.02947 0.89116 -0.55944
v 1.10447 0.89116 -0.55944
v 0.93572 0.41577 -0.55944
v 0.62491 0.45327 -0.55944
v 0.62491 0.37738 -0.55944
v 1.11697 0.92241 -0.11880
v 1.00378 0.92241 -0.11880
v 1.00378 0.92241 -0.18130
v 1.11697 0.92241 -0.18130
v 1.11697 0.89116 -0.11880
v 1.02947 0.89116 -0.11880
v 1.02947 0.89116 -0.18130
v 1.11697 0.89116 -0.18130
v 0.91068 0.45027 -0.11880
v 0.91068 0.45027 -0.18130
v 0.93572 0.41577 -0.11880
v 0.93572 0.41577 -0.18130
v 0.59366 0.48852 -0.11880
v 0.59366 0.48852 -0.18130
v 0.62491 0.45327 -0.11880
v 0.62491 0.45327 -0.18130
v 0.59366 0.37738 -0.11880
v 0.59366 0.37738 -0.18130
v 0.62491 0.37738 -0.11880
v 0.62491 0.37738 -0.18130
vt 0.832003 0.210938
vt 0.646555 0.210938
vt 0.646555 0.007812
vt 0.832003 0.007812
vt 0.003935 0.476562
vt 0.189383 0.476562
vt 0.189383 0.679688
vt 0.003935 0.679688
vt 0.902344 0.500000
vt 0.920391 0.500000
vt 0.920391 0.476562
vt 0.902344 0.476562
vt 0.966797 0.500000
vt 0.966797 0.476562
vt 0.765625 0.476562
vt 0.765625 0.492031
vt 0.539062 0.492031
vt 0.539062 0.476562
vt 0.765625 0.546875
vt 0.539062 0.546875
vt 0.003906 0.007812
vt 0.003906 0.460938
vt 0.142578 0.460938
vt 0.142578 0.007812
vt 0.162109 0.742188
vt 0.505859 0.742188
vt 0.505859 0.695312
vt 0.162109 0.695312
vt 0.168984 0.696250
vt 0.984375 0.007812
vt 0.992188 0.007812
vt 0.992188 0.039062
vt 0.984375 0.039062
vt 0.458984 0.007812
vt 0.458984 0.026654
vt 0.513672 0.026654
vt 0.513672 0.007812
vt 0.458984 0.148381
vt 0.513672 0.148381
vt 0.458984 0.227029
vt 0.513672 0.227029
vt 0.458984 0.246094
vt 0.513672 0.246094
vt 0.521484 0.007812
vt 0.521484 0.026654
vt 0.576172 0.026654
vt 0.576172 0.007812
vt 0.521484 0.148381
vt 0.576172 0.148381
vt 0.521484 0.227029
vt 0.576172 0.227029
vt 0.521484 0.246094
vt 0.576172 0.246094
vt 0.953125 0.007812
vt 0.960938 0.007812
vt 0.960938 0.039062
vt 0.953125 0.039062
vt 0.583984 0.007812
vt 0.583984 0.026654
vt 0.638672 0.026654
vt 0.638672 0.007812
vt 0.583984 0.148381
vt 0.638672 0.148381
vt 0.583984 0.227029
vt 0.638672 0.227029
vt 0.583984 0.246094
vt 0.638672 0.246094
vt 0.972656 0.009687
vt 0.916016 0.007812
vt 0.945312 0.007812
vt 0.945312 0.070312
vt 0.916016 0.070312
vt 0.972656 0.026562
vt 0.974609 0.476562
vt 0.982422 0.476562
vt 0.982422 0.492188
vt 0.974609 0.492188
vt 0.968750 0.007812
vt 0.970703 0.007812
vt 0.970703 0.039062
vt 0.968750 0.039062
vt 0.976562 0.007812
vt 0.976562 0.039062
vt 0.907255 0.010896
vt 0.840792 0.010896
vt 0.840792 0.007812
vt 0.907255 0.007812
vt 0.855469 0.476562
vt 0.855469 0.492031
vt 0.773438 0.492031
vt 0.773438 0.476562
vt 0.855469 0.546875
vt 0.773438 0.546875
vt 0.392578 0.476562
vt 0.392578 0.640625
vt 0.531250 0.640625
vt 0.531250 0.476562
vt 0.513672 0.695312
vt 0.287070 0.679688
vt 0.197266 0.679688
vt 0.197266 0.476562
vt 0.287070 0.476562
vt 0.294961 0.476562
vt 0.384766 0.476562
vt 0.384766 0.679688
vt 0.294961 0.679688
vt 0.154297 0.695312
vt 0.154297 0.710781
vt 0.003906 0.710781
vt 0.003906 0.695312
vt 0.154297 0.765625
vt 0.003906 0.765625
vt 0.150391 0.007812
vt 0.150391 0.308594
vt 0.289062 0.308594
vt 0.289062 0.007812
vt 0.296875 0.292969
vt 0.341797 0.292969
vt 0.341797 0.007812
vt 0.296875 0.007812
vt 0.341797 0.042031
vt 0.296875 0.042031
vt 0.402344 0.007812
vt 0.451172 0.007812
vt 0.451172 0.257812
vt 0.402344 0.257812
vt 0.349609 0.007812
vt 0.394531 0.007812
vt 0.394531 0.261719
vt 0.349609 0.261719
vt 0.529297 0.695312
vt 0.863281 0.476562
vt 0.894531 0.476562
vt 0.894531 0.507812
vt 0.863281 0.507812
vt 0.537109 0.695312
vt 0.537109 0.710938
vt 0.529297 0.710938
vt 0.544922 0.695312
vt 0.552734 0.695312
vt 0.552734 0.710938
vt 0.544922 0.710938

g int_panel
usemtl r62_int_atlas
f 4/4 3/3 2/2 1/1
f 8/8 7/7 6/6 5/5
f 12/12 11/11 10/10 9/9
f 11/11 14/14 13/13 10/10
f 18/9 17/10 16/11 15/12
f 17/10 13/13 14/14 16/11
f 4/18 20/17 19/16 3/15
f 20/17 12/20 9/19 19/16
f 6/15 22/16 21/17 5/18
f 22/16 18/19 15/20 21/17
f 1/24 2/23 7/22 8/21
f 26/28 25/27 24/26 23/25
f 23/29 24/29 28/29 27/29
f 25/29 29/29 28/29 24/29
f 23/29 27/29 30/29 26/29
f 34/26 33/25 32/28 31/27
f 36/29 35/29 33/29 34/29
f 33/29 35/29 37/29 32/29
f 31/29 38/29 36/29 34/29
f 42/33 41/32 40/31 39/30
f 46/30 45/31 44/32 43/33
f 43/30 44/31 41/32 42/33
f 50/33 49/32 48/31 47/30
f 54/30 53/31 52/32 51/33
f 51/30 52/31 49/32 50/33
f 58/37 57/36 56/35 55/34
f 57/36 60/39 59/38 56/35
f 60/39 62/41 61/40 59/38
f 62/41 64/43 63/42 61/40
f 66/47 65/46 57/45 58/44
f 65/46 67/49 60/48 57/45
f 67/49 68/51 62/50 60/48
f 68/51 69/53 64/52 62/50
f 73/57 72/56 71/55 70/54
f 70/57 71/56 75/55 74/54
f 77/54 76/55 72/56 73/57
f 72/57 79/56 78/55 71/54
f 71/57 78/56 80/55 75/54
f 76/54 81/55 79/56 72/57
f 79/57 83/56 82/55 78/54
f 78/57 82/56 84/55 80/54
f 81/54 85/55 83/56 79/57
f 83/57 87/56 86/55 82/54
f 82/57 86/56 88/55 84/54
f 85/54 89/55 87/56 83/57
f 88/54 86/55 87/56 89/57
f 91/61 90/60 65/59 66/58
f 90/60 92/63 67/62 65/59
f 92/63 93/65 68/64 67/62
f 93/65 94/67 69/66 68/64
f 98/57 97/56 96/55 95/54
f 95/57 96/56 100/55 99/54
f 102/54 101/55 97/56 98/57
f 97/57 104/56 103/55 96/54
f 96/57 103/56 105/55 100/54
f 101/54 106/55 104/56 97/57
f 104/57 108/56 107/55 103/54
f 103/57 107/56 109/55 105/54
f 106/54 110/55 108/56 104/57
f 108/57 112/56 111/55 107/54
f 107/57 111/56 113/55 109/54
f 110/54 114/55 112/56 108/57
f 113/54 111/55 112/56 114/57
f 116/37 115/36 90/35 91/34
f 115/36 117/39 92/38 90/35
f 117/39 118/41 93/40 92/38
f 118/41 119/43 94/42 93/40
f 123/57 122/56 121/55 120/54
f 120/57 121/56 125/55 124/54
f 127/54 126/55 122/56 123/57
f 122/57 129/56 128/55 121/54
f 121/57 128/56 130/55 125/54
f 126/54 131/55 129/56 122/57
f 129/57 133/56 132/55 128/54
f 128/57 132/56 134/55 130/54
f 131/54 135/55 133/56 129/57
f 133/57 137/56 136/55 132/54
f 132/57 136/56 138/55 134/54
f 135/54 139/55 137/56 133/57
f 138/54 136/55 137/56 139/57
f 141/47 140/46 115/45 116/44
f 140/46 142/49 117/48 115/45
f 142/49 143/51 118/50 117/48
f 143/51 144/53 119/52 118/50
f 148/57 147/56 146/55 145/54
f 145/57 146/56 150/55 149/54
f 152/54 151/55 147/56 148/57
f 147/57 154/56 153/55 146/54
f 146/57 153/56 155/55 150/54
f 151/54 156/55 154/56 147/57
f 154/57 158/56 157/55 153/54
f 153/57 157/56 159/55 155/54
f 156/54 160/55 158/56 154/57
f 158/57 162/56 161/55 157/54
f 157/57 161/56 163/55 159/54
f 160/54 164/55 162/56 158/57
f 163/54 161/55 162/56 164/57
f 166/61 165/60 140/59 141/58
f 165/60 167/63 142/62 140/59
f 167/63 168/65 143/64 142/62
f 168/65 169/67 144/66 143/64
f 173/57 172/56 171/55 170/54
f 170/57 171/56 175/55 174/54
f 177/54 176/55 172/56 173/57
f 172/57 179/56 178/55 171/54
f 171/57 178/56 180/55 175/54
f 176/54 181/55 179/56 172/57
f 179/57 183/56 182/55 178/54
f 178/57 182/56 184/55 180/54
f 181/54 185/55 183/56 179/57
f 183/57 187/56 186/55 182/54
f 182/57 186/56 188/55 184/54
f 185/54 189/55 187/56 183/57
f 188/54 186/55 187/56 189/57
f 191/37 190/36 165/35 166/34
f 190/36 192/39 167/38 165/35
f 192/39 193/41 168/40 167/38
f 193/41 194/43 169/42 168/40
f 198/57 197/56 196/55 195/54
f 195/57 196/56 200/55 199/54
f 202/54 201/55 197/56 198/57
f 197/57 204/56 203/55 196/54
f 196/57 203/56 205/55 200/54
f 201/54 206/55 204/56 197/57
f 204/57 208/56 207/55 203/54
f 203/57 207/56 209/55 205/54
f 206/54 210/55 208/56 204/57
f 208/57 212/56 211/55 207/54
f 207/57 211/56 213/55 209/54
f 210/54 214/55 212/56 208/57
f 213/54 211/55 212/56 214/57
f 216/47 215/46 190/45 191/44
f 215/46 217/49 192/48 190/45
f 217/49 218/51 193/50 192/48
f 218/51 219/53 194/52 193/50
f 223/57 222/56 221/55 220/54
f 220/57 221/56 225/55 224/54
f 227/54 226/55 222/56 223/57
f 222/57 229/56 228/55 221/54
f 221/57 228/56 230/55 225/54
f 226/54 231/55 229/56 222/57
f 229/57 233/56 232/55 228/54
f 228/57 232/56 234/55 230/54
f 231/54 235/55 233/56 229/57
f 233/57 237/56 236/55 232/54
f 232/57 236/56 238/55 234/54
f 235/54 239/55 237/56 233/57
f 238/54 236/55 237/56 239/57
f 63/68 219/68 241/68 240/68
f 63/72 243/71 55/70 242/69
f 245/73 244/73 240/73 63/73
f 249/77 248/76 247/75 246/74
f 253/74 252/75 251/76 250/77
f 246/77 247/76 252/75 253/74
f 250/74 251/75 248/76 249/77
f 252/77 247/76 248/75 251/74
f 250/74 249/75 246/76 253/77
f 255/77 254/76 247/75 246/74
f 259/74 258/75 257/76 256/77
f 247/77 254/76 257/75 258/74
f 259/74 256/75 255/76 246/77
f 263/77 262/76 261/75 260/74
f 249/74 248/75 265/76 264/77
f 261/77 262/76 265/75 248/74
f 249/74 264/75 263/76 260/77
f 267/69 216/70 266/71 219/72
f 219/73 241/73 269/73 268/73
f 273/77 272/76 271/75 270/74
f 277/74 276/75 275/76 274/77
f 270/77 271/76 276/75 277/74
f 274/74 275/75 272/76 273/77
f 276/77 271/76 272/75 275/74
f 274/74 273/75 270/76 277/77
f 279/77 278/76 271/75 270/74
f 283/74 282/75 281/76 280/77
f 271/77 278/76 281/75 282/74
f 283/74 280/75 279/76 270/77
f 287/77 286/76 285/75 284/74
f 273/74 272/75 289/76 288/77
f 285/77 286/76 289/75 272/74
f 273/74 288/75 287/76 284/77
f 293/34 292/35 291/36 290/37
f 292/35 295/38 294/39 291/36
f 295/38 297/40 296/41 294/39
f 297/40 299/42 298/43 296/41
f 290/44 291/45 301/46 300/47
f 291/45 294/48 302/49 301/46
f 294/48 296/50 303/51 302/49
f 296/50 298/52 304/53 303/51
f 308/54 307/55 306/56 305/57
f 310/54 309/55 307/56 308/57
f 305/57 306/56 312/55 311/54
f 307/54 314/55 313/56 306/57
f 309/54 315/55 314/56 307/57
f 306/57 313/56 316/55 312/54
f 314/54 318/55 317/56 313/57
f 315/54 319/55 318/56 314/57
f 313/57 317/56 320/55 316/54
f 318/54 322/55 321/56 317/57
f 319/54 323/55 322/56 318/57
f 317/57 321/56 324/55 320/54
f 324/57 321/56 322/55 323/54
f 300/58 301/59 326/60 325/61
f 301/59 302/62 327/63 326/60
f 302/62 303/64 328/65 327/63
f 303/64 304/66 329/67 328/65
f 333/54 332/55 331/56 330/57
f 335/54 334/55 332/56 333/57
f 330/57 331/56 337/55 336/54
f 332/54 339/55 338/56 331/57
f 334/54 340/55 339/56 332/57
f 331/57 338/56 341/55 337/54
f 339/54 343/55 342/56 338/57
f 340/54 344/55 343/56 339/57
f 338/57 342/56 345/55 341/54
f 343/54 347/55 346/56 342/57
f 344/54 348/55 347/56 343/57
f 342/57 346/56 349/55 345/54
f 349/57 346/56 347/55 348/54
f 325/34 326/35 351/36 350/37
f 326/35 327/38 352/39 351/36
f 327/38 328/40 353/41 352/39
f 328/40 329/42 354/43 353/41
f 358/54 357/55 356/56 355/57
f 360/54 359/55 357/56 358/57
f 355/57 356/56 362/55 361/54
f 357/54 364/55 363/56 356/57
f 359/54 365/55 364/56 357/57
f 356/57 363/56 366/55 362/54
f 364/54 368/55 367/56 363/57
f 365/54 369/55 368/56 364/57
f 363/57 367/56 370/55 366/54
f 368/54 372/55 371/56 367/57
f 369/54 373/55 372/56 368/57
f 367/57 371/56 374/55 370/54
f 374/57 371/56 372/55 373/54
f 350/44 351/45 376/46 375/47
f 351/45 352/48 377/49 376/46
f 352/48 353/50 378/51 377/49
f 353/50 354/52 379/53 378/51
f 383/54 382/55 381/56 380/57
f 385/54 384/55 382/56 383/57
f 380/57 381/56 387/55 386/54
f 382/54 389/55 388/56 381/57
f 384/54 390/55 389/56 382/57
f 381/57 388/56 391/55 387/54
f 389/54 393/55 392/56 388/57
f 390/54 394/55 393/56 389/57
f 388/57 392/56 395/55 391/54
f 393/54 397/55 396/56 392/57
f 394/54 398/55 397/56 393/57
f 392/57 396/56 399/55 395/54
f 399/57 396/56 397/55 398/54
f 375/58 376/59 401/60 400/61
f 376/59 377/62 402/63 401/60
f 377/62 378/64 403/65 402/63
f 378/64 379/66 404/67 403/65
f 408/54 407/55 406/56 405/57
f 410/54 409/55 407/56 408/57
f 405/57 406/56 412/55 411/54
f 407/54 414/55 413/56 406/57
f 409/54 415/55 414/56 407/57
f 406/57 413/56 416/55 412/54
f 414/54 418/55 417/56 413/57
f 415/54 419/55 418/56 414/57
f 413/57 417/56 420/55 416/54
f 418/54 422/55 421/56 417/57
f 419/54 423/55 422/56 418/57
f 417/57 421/56 424/55 420/54
f 424/57 421/56 422/55 423/54
f 400/34 401/35 426/36 425/37
f 401/35 402/38 427/39 426/36
f 402/38 403/40 428/41 427/39
f 403/40 404/42 429/43 428/41
f 433/54 432/55 431/56 430/57
f 435/54 434/55 432/56 433/57
f 430/57 431/56 437/55 436/54
f 432/54 439/55 438/56 431/57
f 434/54 440/55 439/56 432/57
f 431/57 438/56 441/55 437/54
f 439/54 443/55 442/56 438/57
f 440/54 444/55 443/56 439/57
f 438/57 442/56 445/55 441/54
f 443/54 447/55 446/56 442/57
f 444/54 448/55 447/56 443/57
f 442/57 446/56 449/55 445/54
f 449/57 446/56 447/55 448/54
f 425/44 426/45 451/46 450/47
f 426/45 427/48 452/49 451/46
f 427/48 428/50 453/51 452/49
f 428/50 429/52 454/53 453/51
f 458/54 457/55 456/56 455/57
f 460/54 459/55 457/56 458/57
f 455/57 456/56 462/55 461/54
f 457/54 464/55 463/56 456/57
f 459/54 465/55 464/56 457/57
f 456/57 463/56 466/55 462/54
f 464/54 468/55 467/56 463/57
f 465/54 469/55 468/56 464/57
f 463/57 467/56 470/55 466/54
f 468/54 472/55 471/56 467/57
f 469/54 473/55 472/56 468/57
f 467/57 471/56 474/55 470/54
f 474/57 471/56 472/55 473/54
f 476/68 475/68 454/68 299/68
f 478/69 293/70 477/71 299/72
f 299/73 476/73 480/73 479/73
f 484/77 483/76 482/75 481/74
f 488/74 487/75 486/76 485/77
f 481/77 482/76 487/75 488/74
f 485/74 486/75 483/76 484/77
f 487/77 482/76 483/75 486/74
f 485/74 484/75 481/76 488/77
f 488/77 487/76 490/75 489/74
f 494/74 493/75 492/76 491/77
f 490/77 487/76 492/75 493/74
f 494/74 491/75 488/76 489/77
f 498/77 497/76 496/75 495/74
f 500/74 499/75 486/76 485/77
f 496/77 497/76 486/75 499/74
f 500/74 485/75 498/76 495/77
f 454/72 502/71 450/70 501/69
f 504/73 503/73 475/73 454/73
f 508/77 507/76 506/75 505/74
f 512/74 511/75 510/76 509/77
f 505/77 506/76 511/75 512/74
f 509/74 510/75 507/76 508/77
f 511/77 506/76 507/75 510/74
f 509/74 508/75 505/76 512/77
f 512/77 511/76 514/75 513/74
f 518/74 517/75 516/76 515/77
f 514/77 511/76 516/75 517/74
f 518/74 515/75 512/76 513/77
f 522/77 521/76 520/75 519/74
f 524/74 523/75 510/76 509/77
f 520/77 521/76 510/75 523/74
f 524/74 509/75 522/76 519/77
f 528/81 527/80 526/79 525/78
f 527/80 530/83 529/82 526/79
f 534/78 533/79 532/80 531/81
f 533/79 536/82 535/83 532/80
f 540/33 539/32 538/31 537/30
f 544/30 543/31 542/32 541/33
f 543/33 538/32 539/31 542/30
f 541/30 540/31 537/32 544/33
f 548/33 547/32 546/31 545/30
f 552/30 551/31 550/32 549/33
f 551/33 546/32 547/31 550/30
f 549/30 548/31 545/32 552/33
f 556/33 555/32 554/31 553/30
f 560/30 559/31 558/32 557/33
f 559/33 554/32 555/31 558/30
f 557/30 556/31 553/32 560/33
f 564/33 563/32 562/31 561/30
f 568/30 567/31 566/32 565/33
f 567/33 562/32 563/31 566/30
f 565/30 564/31 561/32 568/33
f 572/33 571/32 570/31 569/30
f 576/30 575/31 574/32 573/33
f 575/33 570/32 571/31 574/30
f 573/30 572/31 569/32 576/33
f 580/33 579/32 578/31 577/30
f 584/30 583/31 582/32 581/33
f 583/33 578/32 579/31 582/30
f 581/30 580/31 577/32 584/33
g int_door
usemtl r62_int_atlas
f 588/87 587/86 586/85 585/84
f 592/85 591/84 590/87 589/86
f 596/12 595/11 594/10 593/9
f 595/11 598/14 597/13 594/10
f 602/9 601/10 600/11 599/12
f 601/10 597/13 598/14 600/11
f 588/91 604/90 603/89 587/88
f 604/90 596/93 593/92 603/89
f 590/88 606/89 605/90 589/91
f 606/89 602/92 599/93 605/90
f 610/97 609/96 608/95 607/94
f 614/33 613/32 612/31 611/30
f 618/30 617/31 616/32 615/33
f 615/30 616/31 613/32 614/33
f 622/33 621/32 620/31 619/30
f 626/30 625/31 624/32 623/33
f 623/30 624/31 621/32 622/33
f 585/98 586/98 628/98 627/98
f 630/98 629/98 628/98 586/98
f 585/98 627/98 632/98 631/98
f 634/98 633/98 591/98 592/98
f 591/98 633/98 636/98 635/98
f 638/98 637/98 634/98 592/98
g int_end_cab
usemtl r62_int_atlas
f 642/102 641/101 640/100 639/99
f 646/106 645/105 644/104 643/103
f 650/12 649/11 648/10 647/9
f 649/11 652/14 651/13 648/10
f 656/9 655/10 654/11 653/12
f 655/10 651/13 652/14 654/11
f 642/110 658/109 657/108 641/107
f 658/109 650/112 647/111 657/108
f 644/107 660/108 659/109 643/110
f 660/108 656/111 653/112 659/109
f 639/116 662/115 661/114 646/113
f 666/33 665/32 664/31 663/30
f 670/30 669/31 668/32 667/33
f 667/30 668/31 665/32 666/33
f 674/33 673/32 672/31 671/30
f 678/30 677/31 676/32 675/33
f 675/30 676/31 673/32 674/33
f 682/81 681/80 680/79 679/78
f 681/80 684/83 683/82 680/79
f 688/37 687/36 686/35 685/34
f 687/36 690/39 689/38 686/35
f 690/39 692/41 691/40 689/38
f 692/41 694/43 693/42 691/40
f 696/47 695/46 687/45 688/44
f 695/46 697/49 690/48 687/45
f 697/49 698/51 692/50 690/48
f 698/51 699/53 694/52 692/50
f 703/57 702/56 701/55 700/54
f 700/57 701/56 705/55 704/54
f 707/54 706/55 702/56 703/57
f 702/57 709/56 708/55 701/54
f 701/57 708/56 710/55 705/54
f 706/54 711/55 709/56 702/57
f 709/57 713/56 712/55 708/54
f 708/57 712/56 714/55 710/54
f 711/54 715/55 713/56 709/57
f 713/57 717/56 716/55 712/54
f 712/57 716/56 718/55 714/54
f 715/54 719/55 717/56 713/57
f 718/54 716/55 717/56 719/57
f 693/68 699/68 681/68 680/68
f 693/72 679/71 685/70 720/69
f 721/73 683/73 680/73 693/73
f 725/77 724/76 723/75 722/74
f 729/74 728/75 727/76 726/77
f 722/77 723/76 728/75 729/74
f 726/74 727/75 724/76 725/77
f 728/77 723/76 724/75 727/74
f 726/74 725/75 722/76 729/77
f 731/77 730/76 723/75 722/74
f 735/74 734/75 733/76 732/77
f 723/77 730/76 733/75 734/74
f 735/74 732/75 731/76 722/77
f 739/77 738/76 737/75 736/74
f 725/74 724/75 741/76 740/77
f 737/77 738/76 741/75 724/74
f 725/74 740/75 739/76 736/77
f 745/78 744/79 743/80 742/81
f 744/79 747/82 746/83 743/80
f 751/34 750/35 749/36 748/37
f 750/35 753/38 752/39 749/36
f 753/38 755/40 754/41 752/39
f 755/40 757/42 756/43 754/41
f 748/44 749/45 759/46 758/47
f 749/45 752/48 760/49 759/46
f 752/48 754/50 761/51 760/49
f 754/50 756/52 762/53 761/51
f 766/54 765/55 764/56 763/57
f 768/54 767/55 765/56 766/57
f 763/57 764/56 770/55 769/54
f 765/54 772/55 771/56 764/57
f 767/54 773/55 772/56 765/57
f 764/57 771/56 774/55 770/54
f 772/54 776/55 775/56 771/57
f 773/54 777/55 776/56 772/57
f 771/57 775/56 778/55 774/54
f 776/54 780/55 779/56 775/57
f 777/54 781/55 780/56 776/57
f 775/57 779/56 782/55 778/54
f 782/57 779/56 780/55 781/54
f 758/58 759/59 784/60 783/61
f 759/59 760/62 785/63 784/60
f 760/62 761/64 786/65 785/63
f 761/64 762/66 787/67 786/65
f 791/54 790/55 789/56 788/57
f 793/54 792/55 790/56 791/57
f 788/57 789/56 795/55 794/54
f 790/54 797/55 796/56 789/57
f 792/54 798/55 797/56 790/57
f 789/57 796/56 799/55 795/54
f 797/54 801/55 800/56 796/57
f 798/54 802/55 801/56 797/57
f 796/57 800/56 803/55 799/54
f 801/54 805/55 804/56 800/57
f 802/54 806/55 805/56 801/57
f 800/57 804/56 807/55 803/54
f 807/57 804/56 805/55 806/54
f 783/34 784/35 809/36 808/37
f 784/35 785/38 810/39 809/36
f 785/38 786/40 811/41 810/39
f 786/40 787/42 812/43 811/41
f 816/54 815/55 814/56 813/57
f 818/54 817/55 815/56 816/57
f 813/57 814/56 820/55 819/54
f 815/54 822/55 821/56 814/57
f 817/54 823/55 822/56 815/57
f 814/57 821/56 824/55 820/54
f 822/54 826/55 825/56 821/57
f 823/54 827/55 826/56 822/57
f 821/57 825/56 828/55 824/54
f 826/54 830/55 829/56 825/57
f 827/54 831/55 830/56 826/57
f 825/57 829/56 832/55 828/54
f 832/57 829/56 830/55 831/54
f 744/68 743/68 812/68 757/68
f 833/69 751/70 745/71 757/72
f 757/73 744/73 747/73 834/73
f 838/77 837/76 836/75 835/74
f 842/74 841/75 840/76 839/77
f 835/77 836/76 841/75 842/74
f 839/74 840/75 837/76 838/77
f 841/77 836/76 837/75 840/74
f 839/74 838/75 835/76 842/77
f 842/77 841/76 844/75 843/74
f 848/74 847/75 846/76 845/77
f 844/77 841/76 846/75 847/74
f 848/74 845/75 842/76 843/77
f 852/77 851/76 850/75 849/74
f 854/74 853/75 840/76 839/77
f 850/77 851/76 840/75 853/74
f 854/74 839/75 852/76 849/77
f 857/120 856/119 645/118 855/117
f 861/122 860/121 859/119 858/120
f 865/126 864/125 863/124 862/123
f 867/120 863/120 864/120 866/120
f 855/120 865/120 862/120 868/120
f 868/120 862/120 863/120 867/120
f 868/120 867/120 858/120 857/120
f 872/130 871/129 870/128 869/127
f 869/127 870/128 871/129 872/130
f 869/127 861/128 866/129 872/130
f 872/130 866/129 861/128 869/127
f 869/131 874/131 873/131 870/131
f 878/135 877/134 876/133 875/132
f 875/132 876/133 877/134 878/135
f 882/132 881/133 880/134 879/135
f 879/135 880/134 881/133 882/132
f 875/135 876/134 881/133 882/132
f 882/132 881/133 876/134 875/135
f 879/132 880/133 877/134 878/135
f 878/135 877/134 880/133 879/132
f 881/135 876/134 877/133 880/132
f 880/132 877/133 876/134 881/135
f 879/132 878/133 875/134 882/135
f 882/135 875/134 878/133 879/132
f 886/138 885/137 884/136 883/131
f 883/131 884/136 885/137 886/138
f 890/131 889/136 888/137 887/138
f 887/138 888/137 889/136 890/131
f 889/138 884/137 885/136 888/131
f 888/131 885/136 884/137 889/138
f 887/131 886/136 883/137 890/138
f 890/138 883/137 886/136 887/131
f 894/142 893/141 892/140 891/139
f 891/139 892/140 893/141 894/142
f 898/139 897/140 896/141 895/142
f 895/142 896/141 897/140 898/139
f 891/142 892/141 897/140 898/139
f 898/139 897/140 892/141 891/142
f 895/139 896/140 893/141 894/142
f 894/142 893/141 896/140 895/139
f 897/142 892/141 893/140 896/139
f 896/139 893/140 892/141 897/142
f 895/139 894/140 891/141 898/142
f 898/142 891/141 894/140 895/139
f 901/142 891/141 900/140 899/139
f 899/139 900/140 891/141 901/142
f 904/139 903/140 898/141 902/142
f 902/142 898/141 903/140 904/139
f 899/142 900/141 903/140 904/139
f 904/139 903/140 900/141 899/142
f 903/142 900/141 891/140 898/139
f 898/139 891/140 900/141 903/142
f 902/139 901/140 899/141 904/142
f 904/142 899/141 901/140 902/139
f 908/33 907/32 906/31 905/30
f 912/30 911/31 910/32 909/33
f 911/33 906/32 907/31 910/30
f 909/30 908/31 905/32 912/33
f 916/33 915/32 914/31 913/30
f 920/30 919/31 918/32 917/33
f 919/33 914/32 915/31 918/30
f 917/30 916/31 913/32 920/33
g int_end_blind
usemtl r62_int_atlas
f 642/102 641/101 640/100 639/99
f 646/106 645/105 644/104 643/103
f 650/12 649/11 648/10 647/9
f 649/11 652/14 651/13 648/10
f 656/9 655/10 654/11 653/12
f 655/10 651/13 652/14 654/11
f 642/110 658/109 657/108 641/107
f 658/109 650/112 647/111 657/108
f 644/107 660/108 659/109 643/110
f 660/108 656/111 653/112 659/109
f 639/116 662/115 661/114 646/113
f 666/33 665/32 664/31 663/30
f 670/30 669/31 668/32 667/33
f 667/30 668/31 665/32 666/33
f 674/33 673/32 672/31 671/30
f 678/30 677/31 676/32 675/33
f 675/30 676/31 673/32 674/33
f 922/81 921/80 680/79 679/78
f 921/80 923/83 683/82 680/79
f 925/37 924/36 686/35 685/34
f 924/36 926/39 689/38 686/35
f 926/39 927/41 691/40 689/38
f 927/41 928/43 693/42 691/40
f 930/47 929/46 924/45 925/44
f 929/46 931/49 926/48 924/45
f 931/49 932/51 927/50 926/48
f 932/51 933/53 928/52 927/50
f 937/57 936/56 935/55 934/54
f 934/57 935/56 939/55 938/54
f 941/54 940/55 936/56 937/57
f 936/57 943/56 942/55 935/54
f 935/57 942/56 944/55 939/54
f 940/54 945/55 943/56 936/57
f 943/57 947/56 946/55 942/54
f 942/57 946/56 948/55 944/54
f 945/54 949/55 947/56 943/57
f 947/57 951/56 950/55 946/54
f 946/57 950/56 952/55 948/54
f 949/54 953/55 951/56 947/57
f 952/54 950/55 951/56 953/57
f 955/61 954/60 929/59 930/58
f 954/60 956/63 931/62 929/59
f 956/63 957/65 932/64 931/62
f 957/65 958/67 933/66 932/64
f 962/57 961/56 960/55 959/54
f 959/57 960/56 964/55 963/54
f 966/54 965/55 961/56 962/57
f 961/57 968/56 967/55 960/54
f 960/57 967/56 969/55 964/54
f 965/54 970/55 968/56 961/57
f 968/57 972/56 971/55 967/54
f 967/57 971/56 973/55 969/54
f 970/54 974/55 972/56 968/57
f 972/57 976/56 975/55 971/54
f 971/57 975/56 977/55 973/54
f 974/54 978/55 976/56 972/57
f 977/54 975/55 976/56 978/57
f 980/37 979/36 954/35 955/34
f 979/36 981/39 956/38 954/35
f 981/39 982/41 957/40 956/38
f 982/41 983/43 958/42 957/40
f 987/57 986/56 985/55 984/54
f 984/57 985/56 989/55 988/54
f 991/54 990/55 986/56 987/57
f 986/57 993/56 992/55 985/54
f 985/57 992/56 994/55 989/54
f 990/54 995/55 993/56 986/57
f 993/57 997/56 996/55 992/54
f 992/57 996/56 998/55 994/54
f 995/54 999/55 997/56 993/57
f 997/57 1001/56 1000/55 996/54
f 996/57 1000/56 1002/55 998/54
f 999/54 1003/55 1001/56 997/57
f 1002/54 1000/55 1001/56 1003/57
f 693/68 983/68 921/68 680/68
f 693/72 679/71 685/70 720/69
f 721/73 683/73 680/73 693/73
f 725/77 724/76 723/75 722/74
f 729/74 728/75 727/76 726/77
f 722/77 723/76 728/75 729/74
f 726/74 727/75 724/76 725/77
f 728/77 723/76 724/75 727/74
f 726/74 725/75 722/76 729/77
f 731/77 730/76 723/75 722/74
f 735/74 734/75 733/76 732/77
f 723/77 730/76 733/75 734/74
f 735/74 732/75 731/76 722/77
f 739/77 738/76 737/75 736/74
f 725/74 724/75 741/76 740/77
f 737/77 738/76 741/75 724/74
f 725/74 740/75 739/76 736/77
f 745/78 744/79 743/80 742/81
f 744/79 747/82 746/83 743/80
f 751/34 750/35 749/36 748/37
f 750/35 753/38 752/39 749/36
f 753/38 755/40 754/41 752/39
f 755/40 757/42 756/43 754/41
f 748/44 749/45 759/46 758/47
f 749/45 752/48 760/49 759/46
f 752/48 754/50 761/51 760/49
f 754/50 756/52 762/53 761/51
f 766/54 765/55 764/56 763/57
f 768/54 767/55 765/56 766/57
f 763/57 764/56 770/55 769/54
f 765/54 772/55 771/56 764/57
f 767/54 773/55 772/56 765/57
f 764/57 771/56 774/55 770/54
f 772/54 776/55 775/56 771/57
f 773/54 777/55 776/56 772/57
f 771/57 775/56 778/55 774/54
f 776/54 780/55 779/56 775/57
f 777/54 781/55 780/56 776/57
f 775/57 779/56 782/55 778/54
f 782/57 779/56 780/55 781/54
f 758/58 759/59 784/60 783/61
f 759/59 760/62 785/63 784/60
f 760/62 761/64 786/65 785/63
f 761/64 762/66 787/67 786/65
f 791/54 790/55 789/56 788/57
f 793/54 792/55 790/56 791/57
f 788/57 789/56 795/55 794/54
f 790/54 797/55 796/56 789/57
f 792/54 798/55 797/56 790/57
f 789/57 796/56 799/55 795/54
f 797/54 801/55 800/56 796/57
f 798/54 802/55 801/56 797/57
f 796/57 800/56 803/55 799/54
f 801/54 805/55 804/56 800/57
f 802/54 806/55 805/56 801/57
f 800/57 804/56 807/55 803/54
f 807/57 804/56 805/55 806/54
f 783/34 784/35 809/36 808/37
f 784/35 785/38 810/39 809/36
f 785/38 786/40 811/41 810/39
f 786/40 787/42 812/43 811/41
f 816/54 815/55 814/56 813/57
f 818/54 817/55 815/56 816/57
f 813/57 814/56 820/55 819/54
f 815/54 822/55 821/56 814/57
f 817/54 823/55 822/56 815/57
f 814/57 821/56 824/55 820/54
f 822/54 826/55 825/56 821/57
f 823/54 827/55 826/56 822/57
f 821/57 825/56 828/55 824/54
f 826/54 830/55 829/56 825/57
f 827/54 831/55 830/56 826/57
f 825/57 829/56 832/55 828/54
f 832/57 829/56 830/55 831/54
f 744/68 743/68 812/68 757/68
f 833/69 751/70 745/71 757/72
f 757/73 744/73 747/73 834/73
f 838/77 837/76 836/75 835/74
f 842/74 841/75 840/76 839/77
f 835/77 836/76 841/75 842/74
f 839/74 840/75 837/76 838/77
f 841/77 836/76 837/75 840/74
f 839/74 838/75 835/76 842/77
f 842/77 841/76 844/75 843/74
f 848/74 847/75 846/76 845/77
f 844/77 841/76 846/75 847/74
f 848/74 845/75 842/76 843/77
f 852/77 851/76 850/75 849/74
f 854/74 853/75 840/76 839/77
f 850/77 851/76 840/75 853/74
f 854/74 839/75 852/76 849/77
f 866/117 640/118 859/119 858/120
f 857/120 856/119 645/118 855/117
f 865/126 864/125 863/124 862/123
f 867/120 863/120 864/120 866/120
f 855/120 865/120 862/120 868/120
f 868/120 862/120 863/120 867/120
f 868/120 867/120 858/120 857/120
f 908/33 907/32 906/31 905/30
f 912/30 911/31 910/32 909/33
f 911/33 906/32 907/31 910/30
f 909/30 908/31 905/32 912/33
f 916/33 915/32 914/31 913/30
f 920/30 919/31 918/32 917/33
f 919/33 914/32 915/31 918/30
f 917/30 916/31 913/32 920/33
